<?xml version="1.0" encoding="UTF-8"?>
<svg id="Warstwa_1" data-name="Warstwa 1" xmlns="http://www.w3.org/2000/svg" version="1.1" viewBox="0 0 1180 229">
  <defs>
    <style>
      .cls-1 {
        fill: #fff;
        stroke-width: 0px;
      }
    </style>
  </defs>
  <path class="cls-1" d="M80.9,194.6c-.3.4-.8.5-1.4.3-1.5-.4-3.3-1.1-5-1.5-7.9-1.9-17.4-2.2-25.5-.3-4.8.7-8.8,5-8.7-3-.9-50.2-2.7-100.1-4.8-149.9-.4-3.8.9-6.1,5.1-6.2,5.9-.4,11.7-.6,17.5-.7,13.4-.2,26.5-.3,39.7.2,6.3.3,12.2.9,18.5,1.7,2.7.4,5.2.7,7.5,1.2,1.4.3,2.5.8,3.2,1.8,1.8,2.6,1.3,7.9,1.7,11.4.3,5.6.5,12.3.6,17.4,0,2.9-.9,4.5-4.1,4.1-10.7-.8-21.8-1.5-32.7-2-4.6-.2-9.3-.3-14-.4-4.6-.2-6,1.4-5.4,5.9.3,4.5.6,8.9.9,13.5,0,4,.6,7,5.4,6.9,9,.2,18.5.8,27.3,1.8,2.8.3,6,.7,8.6,1,1,.1,2.3.5,2.7,1.1,1.4,4-10.1,9.6-9.7,15-.9,4.3,11.2,12.4,8.6,15.7-2.2,1.2-5.5,0-8,0-9.7-.6-19.3-1.8-29-1.3-2,.5-2.4,2-2.4,3.9.3,4.3.8,8.9,1.1,13.3,1,12.6,1.7,24.6,2.5,37.4.2,2.8.3,5.6.5,8.3,0,1,0,2.5-.4,3.1h0Z"/>
  <path class="cls-1" d="M164.1,195.7c-1.4,1.1-3.8.8-5.6.8-5.6-.2-11-.3-16.6-.5-4.2-.1-8.4-.3-12.7-.5-2.9,0-5.4-.6-4.6-4.3,4.3-23,9.3-45.2,14.6-68.2,6.1-26,12.7-52.3,19.5-77.8,1-4.8,2.5-7.4,7.6-7.7,9-1,17.7-1.9,26.7-2.5,11.6-.7,23.2-.6,34.8.5,4.1.2,6.4,2,6.9,6.3,9.8,48.7,13.7,94.8,17.9,146.4.6,6.2-1.6,6.7-7.2,7-6,.5-11.6.9-17.6,1.2-3.5.1-7.2.3-10.6.3-4,.3-5.5-1.5-5.5-5.3-.5-11.3-1.1-22.6-1.3-34,0-2.7,0-6.5-3.5-6.7-8.3-.2-16.7.7-25,1.4-3,.4-7,.1-8.8,2.8-1.5,2.5-1.6,5.7-2.4,8.5-1.2,6-2.4,12.4-3.4,18.4-.6,3.2-1.1,6.7-1.6,9.8-.2,1.5-.5,3.3-1.5,4.2h0ZM178.6,118.8c1.2,1.1,3.5.3,5.2.3,4.8-.5,9.3-.9,14.1-1.2,2.5-.2,5.1-.3,7.5-.4,2.7,0,4.2-.9,4-3.8-.9-14.4-1.3-29.3-2.5-43.6-.2-2.5-2-3.2-4.2-3.1-2.7,0-5.5.3-8.2.5-3.9.3-6.6.4-7.4,4-2.8,12.8-5.1,25.3-7.6,38.2-.4,2.2-.9,4.7-1.3,6.8-.1,1,0,1.8.3,2.3h0Z"/>
  <path class="cls-1" d="M269.3,192.3c-1-.9-.9-3-.9-4.5,0-3.3,0-8,.1-11.6,0-7.5.3-15.8.4-24,.6-27.1,1.2-55.5,1.8-82.3.2-7.5.4-15.6.5-23.2,0-1.7,0-3.4,0-5.2,0-3.4,0-5.5,3.5-5.6,13.1-1,27.4-1.9,40.9-2.2,15.7-.4,32.8-.5,46.1,9.2,11.2,7.8,14.6,23.2,11.9,36.4-2.6,12.1-12.5,22.2-24,26.5-2.4,1,4.7,1,5.4,1.4,20.4,3.2,33,19.8,30.8,40.2-.7,18.7-10.8,33.1-27.6,39.8-18.7,7.6-40.1,8.2-60.9,8.3-4.7,0-9.1-.2-13.6-.6-3.9-.3-8.3-.8-11.7-1.4-1.2-.2-2.2-.6-2.8-1.2h0ZM307.9,94.6c9.7.8,24.7-1.9,31.3-9.5,3.9-4.6,3.9-11.9.6-16.8-4.1-5.8-12.9-6.7-19.9-6.1-3.4.2-7.3.6-10.5,1-.9.1-2.2.3-2.8.7-.8.5-.8,1.5-.7,3.3.1,5.2.3,14.7.5,20.4.3,2.2-.6,6.6,1.3,7h.1ZM308.8,158.3c10.7,1,28.8-.4,37.1-7.6,6-4.9,6.3-15.4.1-20.2-8.9-6.5-21.1-5.1-31.5-4.9-1.9.3-6.6-.3-7.2,1.9-.3,2.2,0,4.9,0,8.9.1,5.7.2,11.7.3,17.1,0,2-.2,4.5,1,4.8h0Z"/>
  <path class="cls-1" d="M402.4,193.4c-1.2-1.1-.7-4.3-.6-6.4.2-3.7.3-8.4.5-12.3.3-8.8.4-17.8.6-26.6.5-33.2.2-67.1-1-100.3.2-3.4-1.2-7.9.6-10.5,1.6-1.5,4.6-1.2,6.8-1.5,4.3-.4,8.4-.7,12.4-.8,6-.2,11.6-.1,17.5.3,3.4.1,5.1,1.5,4.9,5.2.3,17.4-.3,34.9-.8,52.4-.5,16.1-1.1,32.2-2,48.3.4,3.2-2.6,12.7,1.7,13.1,14.2-.2,28.7-1.3,43-1.4,2.9.1,6.4-.6,9.1.6,2.6,1.9,1.6,6.1,2.1,9,.3,5.2.5,9.8.6,14.9,0,2.6.1,5.3.2,7.9,0,1.9.2,4.1-1,5.5-.9,1.1-2.9,1.5-4.5,1.7-7.2.9-14.4,1.6-21.7,2.1-13.4.9-26.8,1.4-40.3,1.2-6.6,0-13.5-.4-20.2-.8-2.5-.3-5.9,0-7.8-1.4h0Z"/>
  <path class="cls-1" d="M840,194.9c-30.5.6-55.4-14.1-65.5-42.5-18.5-54,3.2-121,69.2-117.9,33,.4,57.4,19.8,65,51.4,4.9,20,4.7,42.1-1.6,61.8-9.6,30.2-35,47.9-66.9,47.2h-.2ZM840.5,157.4c30,.4,40.1-33.2,36-58.2-1.9-15.4-10.4-31.1-27-33.4-19.6-3.6-33.8,8.5-39.7,26.7-4.5,13.9-4.6,31.1.6,45.1,4.8,12.9,16.1,20.1,29.9,19.8h.2Z"/>
  <path class="cls-1" d="M981.5,197.2c-21-.1-42.6-7.9-57.4-23.2-2.3-2.6-5.4-5.5-6.3-8.9-.3-2.2,1.4-4,2.9-5.4,5.7-5.3,11.5-10.5,18.1-14.7,3.8-2.6,6.6.8,9,3.5,5.6,5.9,11.6,11.2,18.9,14.8,9.1,4.5,22.3,6.6,30.8-.5,4.7-4,7-11,5.6-17.1-3-10.3-14.4-15-23.4-19-21.5-9-53.4-18.2-56.6-45-5.2-44.1,49.5-54.8,82.4-44.7,7.9,2.3,15.3,5.5,22.1,10.3,2.7,2.3,9.2,5.9,7.9,9.9-.8,2-2.5,3.6-3.9,5.3-2.8,3.2-5.3,5.9-8.2,8.9-2.8,2.5-6.1,7.9-10.2,4.8-7.8-6.2-16.6-11.4-26.4-13.3-7.3-1.4-16.6-1.2-22.4,4.4-3.4,3.3-4.1,9-1.9,13.1,3.7,6.6,12.2,9.2,19,11.7,12.4,4.3,24.2,8.2,35.6,14.4,12.9,6.8,23.6,17.9,24.8,33.1,3.8,35.6-26.7,58.4-60.1,57.8h-.2Z"/>
  <path class="cls-1" d="M1145.4,196.3c-1.1.7-3.1.6-4.6.5-14.7-1-29.2-1.6-43.9-2.3-8.8-.4-18.1-1-27.1-1.4-2.8-.3-6.4.3-8.3-1.9-.9-1-1.1-3-1.2-4.5-.4-10.2-.7-20.1-.9-29.9-.3-15.5-.5-30.2-.4-45,0-20.4.3-34,.9-52.2.4-4.1-.3-9.5,1.1-13.2.8-1.4,3.1-2.1,4.8-2.4,11.7-2.1,22.7-3.7,33.1-4.9,13.2-1.4,27.1-2.6,38.7-3,4.1.2,9.3-1.1,12.6.2,1.6,1.8.9,5.1,1,7.4-.5,7.4-.4,15-1.8,22.3-.4.8-1,.9-2,1-8.8,1-40.7,2.9-48.4,4.2-1.8,3.6-.7,11.1-1.2,15.5.1,3.8-.9,8,3.3,8.4,7,.2,14.2-.2,21.2-.3,5.6-.1,11.2-.2,16.7-.3,2.2-.1,4.1.2,3.8,2.7,0,5.9-.3,22.5-.4,27.8,0,.8,0,1.6-.8,1.9-10.4.6-21.2-.8-31.7-.7-4.8.5-14-2.9-13.2,5,0,7.4-.5,14.9,0,22.3.6,3.1,4.3,2,6.8,2.2,10.6,0,21.3-.2,32,.4,3.7.2,7.5.3,11.2.7,3.1.2,4,2.6,3.7,5.4-.4,7.5-1,14.7-1.8,22.1-.8,3.7,0,8.8-2.9,11.6h-.1Z"/>
  <path class="cls-1" d="M26,36.3c-.7.9-1,2.3-1,4,.2,14.1.5,29.2.9,43.1.9,35.2,2.4,71.3,3.9,106.2-.2,4.9,2.5,6.5,6.6,5.9,1.1-9.7-6.4-149-6.4-160,0-.2,0-.4-.3-.5-.5-.2-2.4-.2-3.6,1.3h0Z"/>
  <path class="cls-1" d="M598.1,196.2c-1.2.8-3.2.6-4.8.5-14.6-1-29.1-1.6-43.8-2.3-8.8-.4-18-1-26.9-1.4-2.8-.3-6.5.3-8.5-1.9-.9-1.1-1.1-3.1-1.2-4.7-.4-10.2-.7-20.2-.9-30-.3-15.5-.5-30.6-.4-45.6,0-20.5.3-34.3.9-52.5.4-4.1-.3-9.5,1.1-13.1.9-1.5,3.2-2.1,5-2.4,11-2,21.5-3.5,31.3-4.7,13.5-1.5,28.2-2.8,40.2-3.2,4.1.2,9.2-1.1,12.6.3,1.2,1.1,1,3.3,1.1,4.9-.4,8.2-.4,16.7-1.8,24.8-.4.8-.9,1.1-1.9,1.1-8.4.8-40.3,3.1-48.2,4.1-1.3.5-1.1,2.2-1.3,5-.1,2.9-.2,5.9-.2,8.9.2,3.2-.8,7.9,1.2,9.7.9.8,2.5.9,3.9.9,6.4,0,12.9-.2,19.4-.4,5.6-.1,11.2-.2,16.7-.3,2.3-.1,4.1.3,3.8,2.9,0,6.1-.3,22.6-.4,27.9,0,.8-.1,1.6-.8,1.9-10.3.7-21.1-.8-31.4-.7-3.8.2-8.2-.9-11.8.4-1.5.9-1.5,2.9-1.6,4.6-.2,6.8-.2,13.9-.2,20.7-.4,4.5,3.6,4.1,6.9,4,10.6,0,21.2-.2,31.8.4,3.7.2,7.6.3,11.4.7,3.1.2,4,2.7,3.7,5.5-.4,7.3-1,14.6-1.7,21.9-.8,3.9,0,9-3,11.9h-.1Z"/>
  <path class="cls-1" d="M617.7,39.9c-.7.7-.9,1.9-.8,3.5.2,2.6.5,6,.7,8.8.6,8.2,1.2,16.5,1.9,24.8,2.6,33.9,5.5,68.8,8.7,102.6.4,3.8.8,8.5,1.2,11.9.2,1.8.6,3.3,1.7,4,1.5,1.1,4.6.9,5.7.7.3,0,.8-.2.8-.5-.4-5-4.5-50.2-8.1-90.9-2-22.5-4.4-49.1-5.9-65.8,0-.4-.5-.5-.9-.5-1,0-3.7.3-4.9,1.4h0Z"/>
  <path class="cls-1" d="M750.3,79.5c-8.7-32.9-36.9-43.6-69.1-44.3-15.8-.6-32.5,1.1-47.9,2.4-1.8.2-3,.3-3.6.5-.4.1-.5.3-.5.6.9,9.8,12,136.3,13.7,155.5.1,1-.2,1.5,1.5,1.5,9.6-.2,19.9-1.2,29.1-2,19.3-1.7,39.2-4.7,54.7-14.5,20-12.8,25.6-33.9,26.5-57.8.4-14.1-.6-28.9-4.2-41.8v-.2ZM712.2,138.8c-4.6,10.8-15.6,15.6-27.3,16.8-4,.6-7.3-.2-7.3-4.9-.5-6.8-1.1-14.1-1.6-21.6-.9-11.3-1.7-22.5-2.4-33.8-.5-7.8-1.1-16-1.6-23-.7-6.3,7.1-4.5,11.3-4.5,15.6.4,25.8,12.5,29.5,26.9,3.5,13.7,4.9,30.8-.4,44.1v.2Z"/>
</svg>