<?xml version="1.0" encoding="UTF-8"?>
<svg id="Baśń_Klasyczna" data-name="Baśń Klasyczna" xmlns="http://www.w3.org/2000/svg" viewBox="0 0 50 50">
  <defs>
    <style>
      .cls-1 {
        fill: #d55554;
      }

      .cls-1, .cls-2, .cls-3 {
        stroke-width: 0px;
      }

      .cls-2 {
        fill: #d34d47;
      }

      .cls-3 {
        fill: none;
      }
    </style>
  </defs>
  <g>
    <g>
      <path class="cls-3" d="M30.75,19.95c-.13-.06-.31-.08-.59-.01-.73.19-1.64.89-2.46,1.73,1.01-.68,2.11-1.26,3.04-1.72Z"/>
      <path class="cls-3" d="M23.78,24.66h.41c-1.01-1.86-4.69-3.62-6.35-4.42l-.04-.02c-.23-.01-.44.27-.72.7,0,.01-.02.03-.03.04,1.04.46,2.39,1.24,4.08,2.25,1.07.64,2.28,1.36,2.65,1.45Z"/>
      <path class="cls-3" d="M19.84,19.94c-.27-.07-.46-.05-.59.01.93.46,2.03,1.04,3.04,1.72-.82-.85-1.73-1.54-2.46-1.73Z"/>
      <path class="cls-3" d="M25.81,24.66h.41c.38-.1,1.59-.82,2.66-1.46,1.65-.99,3.02-1.78,4.08-2.24,0-.01-.02-.03-.03-.04-.29-.42-.5-.71-.72-.7l-.04.02c-1.66.79-5.34,2.55-6.35,4.42Z"/>
      <path class="cls-3" d="M34.51,21.4c-.15,0-.63.05-1.88.68-1.03.51-2.24,1.24-3.31,1.88-1.25.75-2.09,1.24-2.61,1.46v12.22c1.34-.5,3.02-1.47,4.46-2.3,1.11-.64,2.16-1.24,2.93-1.57.78-1.69.58-5.57.44-8.43-.09-1.76-.16-3.17-.03-3.93Z"/>
      <path class="cls-3" d="M23.29,25.41c-.52-.22-1.36-.71-2.61-1.45-1.07-.64-2.29-1.36-3.31-1.88-1.25-.63-1.73-.69-1.88-.69.13.75.06,2.17-.03,3.93-.14,2.86-.34,6.75.44,8.44.77.33,1.81.93,2.91,1.57,1.45.83,3.14,1.81,4.48,2.31v-12.23Z"/>
      <path class="cls-3" d="M25.83,25.54h-1.66v12.37c.2.04.39.07.56.07.01,0,.02,0,.03,0v.44s0-.44,0-.44h.46v.44-.44s.02,0,.03,0c.17,0,.36-.02.57-.07v-12.37Z"/>
      <path class="cls-2" d="M35.42,25.29c-.08-1.67-.16-3.25-.02-3.83l.02-.07v-.07c-.02-.31-.18-.56-.43-.69-.28-.15-.68-.13-1.18.01-.05-.07-.1-.14-.15-.22-.35-.52-.83-1.23-1.66-1.06h-.05s-.15.08-.15.08c-.06.03-.12.06-.18.09-.38-.47-.96-.63-1.66-.45-1.7.44-4.13,2.98-4.94,4.89-.81-1.92-3.25-4.46-4.94-4.89-.7-.18-1.28-.02-1.66.45-.06-.03-.12-.06-.18-.09l-.15-.07h-.05c-.83-.18-1.31.53-1.66,1.05-.05.07-.1.15-.15.21-.52-.15-.92-.16-1.2,0-.25.14-.4.39-.41.71v.06s.01.06.01.06c.14.58.06,2.15-.02,3.82-.16,3.21-.36,7.21.61,9.03l.08.14.15.06c.72.29,1.81.91,2.96,1.58,2.25,1.3,4.79,2.76,6.35,2.76.01,0,.03,0,.04,0h0s.46,0,.46,0c.01,0,.02,0,.03,0,1.57,0,4.11-1.46,6.35-2.75,1.16-.67,2.25-1.29,2.98-1.58l.15-.06.08-.14c.97-1.82.77-5.81.61-9.02ZM32.16,20.24l.04-.02c.22-.01.44.27.72.7,0,.01.02.03.03.04-1.05.46-2.42,1.25-4.08,2.24-1.07.64-2.28,1.36-2.66,1.46h-.41c1.01-1.86,4.69-3.62,6.35-4.42ZM30.16,19.94c.27-.07.46-.05.59.01-.93.46-2.03,1.04-3.04,1.72.82-.85,1.73-1.54,2.46-1.73ZM19.84,19.94c.73.19,1.64.89,2.46,1.73-1.01-.68-2.11-1.26-3.04-1.72.13-.06.31-.08.59-.01ZM17.08,20.92c.29-.42.49-.71.72-.7l.04.02c1.66.79,5.34,2.55,6.35,4.42h-.41c-.37-.09-1.58-.81-2.65-1.45-1.69-1-3.04-1.79-4.08-2.25,0-.01.02-.03.03-.04ZM15.9,33.76c-.78-1.69-.58-5.58-.44-8.44.09-1.76.16-3.18.03-3.93.16,0,.63.06,1.88.69,1.03.52,2.24,1.24,3.31,1.88,1.25.74,2.08,1.24,2.61,1.45v12.23c-1.34-.5-3.03-1.48-4.48-2.31-1.1-.64-2.15-1.24-2.91-1.57ZM25.24,37.97v.44s0-.44,0-.44h-.46v.44-.44s-.03,0-.04,0c-.17,0-.35-.02-.56-.07v-12.37h1.66v12.37c-.21.04-.4.07-.57.07,0,0-.02,0-.02,0ZM34.1,33.76c-.78.33-1.83.94-2.93,1.57-1.44.83-3.13,1.8-4.46,2.3v-12.22c.53-.22,1.36-.71,2.61-1.46,1.07-.64,2.29-1.36,3.31-1.88,1.25-.63,1.72-.69,1.88-.68-.13.75-.06,2.17.03,3.93.14,2.86.34,6.74-.44,8.43Z"/>
    </g>
    <g>
      <g>
        <rect class="cls-2" x="28.18" y="16.91" width=".73" height=".98" rx=".23" ry=".23" transform="translate(-3.94 25.28) rotate(-45)"/>
        <path class="cls-2" d="M23.17,11.53c1.31,1.27,2.76,2.76,4.22,4.21.12.13.21.06.3-.05.28-.32.41-.63.37-1.05-.02-.16.05-.3.22-.33.14-.02.3-.11.42-.01.06.06.08.17.09.26.09.9-.35,1.44-.89,1.97-.53.53-1.04,1.11-1.87,1.14-.33,0-.79.05-.61-.45.03-.16.08-.31.27-.3.44.05.78-.06,1.12-.37.05-.04.11-.09.13-.15,0-.05-.02-.09-.07-.14-.58-.58-1.19-1.19-1.54-1.54-.83-.86-2.06-2.01-2.7-2.73-.1-.16-.19-.33-.29-.5-.05-.09-.09-.23,0-.3.07-.06.17-.04.24,0,.2.1.39.21.57.33h.02Z"/>
      </g>
      <g>
        <rect class="cls-2" x="20.97" y="17.04" width=".98" height=".73" rx=".23" ry=".23" transform="translate(-6.02 20.27) rotate(-45)"/>
        <path class="cls-2" d="M27.66,11.19c-.07-.06-.17-.04-.24,0-.2.1-.39.21-.57.33h-.02c-.53.52-1.08,1.07-1.64,1.63.17.17.34.34.52.52.62-.61,1.25-1.23,1.65-1.68.1-.16.19-.33.29-.5.05-.09.09-.23,0-.3Z"/>
        <path class="cls-2" d="M24.75,14.44c-.12-.13-.28-.28-.43-.43-.57.57-1.14,1.15-1.72,1.72-.12.13-.21.06-.3-.05-.28-.32-.41-.63-.37-1.05.02-.16-.05-.3-.22-.33-.14-.02-.3-.11-.42-.01-.06.06-.08.17-.09.26-.09.9.35,1.44.89,1.97.53.53,1.04,1.11,1.87,1.14.33,0,.79.05.61-.45-.03-.16-.08-.31-.27-.3-.44.05-.78-.06-1.12-.37-.05-.04-.11-.09-.13-.15,0-.05.02-.09.07-.14.58-.58,1.19-1.19,1.54-1.54.06-.06.12-.12.18-.19-.04-.04-.07-.07-.09-.09Z"/>
      </g>
    </g>
  </g>
  <g>
    <path class="cls-3" d="M45.16,24.82c-.01-.06-.08-.82-.09-.91,0-.09-.03-.27-.05-.36-.04-.26-.11-.64-.15-.9-.06-.24-.2-.83-.25-1.07-.1-.32-.22-.73-.32-1.05-.09-.23-.3-.8-.39-1.03-.14-.31-.31-.7-.45-1.01-.11-.22-.39-.76-.51-.98-.17-.29-.39-.66-.56-.95-.2-.28-.52-.79-.73-1.06-2.18-2.98-5.16-5.36-8.51-6.9-.33-.13-.69-.3-1.02-.43-.23-.08-.82-.3-1.04-.38-.23-.08-.82-.25-1.06-.33-.41-.1-1.03-.27-1.44-.34-.42-.09-1.03-.19-1.46-.24-.21-.03-.52-.07-.73-.08-8.28-.65-15.87,3.25-19.03,11.14-3.42,8.38-.33,18.79,7.34,23.7,5.1,3.24,11.88,3.29,17.16.41.03-.02.07,0,.09.03.02.03,0,.07-.03.09-3.13,1.76-6.81,2.49-10.37,2.12.56.1,1.13.17,1.7.22,7.87.77,15.11-2.67,19.31-9.4,1.4-2.29,2.34-4.87,2.54-7.55.02-.22.06-.51.06-.73,0,0,.03-.73.03-.73,0-.2-.01-.52-.02-.73,0-.14-.01-.42-.02-.55Z"/>
    <path class="cls-1" d="M46.27,25.71c0-.19-.03-.59-.03-.78-.01-.36-.11-1-.14-1.35-.06-.35-.14-.8-.2-1.15-.09-.35-.22-.97-.33-1.32-.09-.27-.2-.66-.29-.93-.13-.34-.34-.93-.5-1.26-.12-.26-.28-.63-.4-.88-.12-.23-.42-.8-.54-1.03-.18-.3-.42-.69-.6-.99-.15-.21-.51-.74-.65-.96-.07-.09-.28-.37-.35-.46-2.34-3.05-5.52-5.47-9.06-6.97-.54-.24-1.23-.49-1.8-.68-.24-.07-.85-.26-1.11-.33,0,0-.75-.18-.75-.18-.43-.11-1.07-.22-1.51-.3-.37-.05-.77-.1-1.15-.15-.27-.03-.87-.06-1.15-.08-9.59-.33-17.68,5.18-19.79,14.72-1.48,6.52.57,13.73,5.2,18.51-3.03-2.83-5.16-6.63-6.01-11.06-.77-3.85-.22-7.93,1.45-11.47.94-2.01,2.23-3.86,3.75-5.48.19-.18.6-.61.79-.79.27-.24.55-.52.83-.75.22-.18.64-.54.86-.71,2.06-1.62,4.42-2.82,6.88-3.73.94-.36,1.89-.69,2.84-1.01.03-.01.05-.05.04-.08-.01-.03-.05-.06-.08-.05-1.94.55-3.87,1.15-5.73,1.96-1.39.6-2.74,1.37-3.98,2.24-2.93,2.05-5.37,4.82-6.97,8.02l-.33.7-.08.17c-.05.12-.16.41-.22.54-.59,1.42-.98,2.94-1.24,4.46-.61,4.1.19,8.35,2,12.05,3.66,7.78,11.85,12.14,20.32,11.8,6.37-.22,12.18-3.24,16.03-8.32,1.87-2.47,3.25-5.37,3.76-8.45l.11-.77s.07-.77.07-.77c.02-.24.06-.53.05-.77,0-.29.04-.87.01-1.17ZM45.2,26.1s-.03.73-.03.73c0,.22-.03.51-.06.73-.2,2.68-1.15,5.26-2.54,7.55-4.19,6.73-11.44,10.18-19.31,9.4-.58-.05-1.14-.13-1.7-.22,3.56.36,7.24-.37,10.37-2.12.03-.02.04-.06.03-.09-.02-.03-.06-.04-.09-.03-5.28,2.88-12.06,2.83-17.16-.41-7.67-4.9-10.76-15.32-7.34-23.7,3.16-7.88,10.75-11.78,19.03-11.14.21,0,.53.05.73.08.42.05,1.04.15,1.46.24.41.07,1.03.24,1.44.34.24.08.83.25,1.06.33.22.08.82.3,1.04.38.33.13.69.3,1.02.43,3.35,1.54,6.34,3.92,8.51,6.9.21.27.53.78.73,1.06.17.29.39.66.56.95.11.22.39.76.51.98.14.31.31.7.45,1.01.09.23.3.8.39,1.03.1.32.22.73.32,1.05.06.24.2.83.25,1.07.04.26.11.64.15.9.02.09.04.27.05.36.01.09.08.85.09.91,0,.13.02.41.02.55,0,.21.02.53.02.73Z"/>
  </g>
</svg>