<?xml version="1.0" encoding="UTF-8"?>
<svg id="Baśń_Klasyczna" data-name="Baśń Klasyczna" xmlns="http://www.w3.org/2000/svg" viewBox="0 0 50 50">
  <defs>
    <style>
      .cls-1 {
        fill: #d34d47;
        stroke-width: 0px;
      }
    </style>
  </defs>
  <path class="cls-1" d="M35.49,25.26h0s.12-.03.12-.03c-.08-1.65-.16-3.21-.02-3.77l.02-.09v-.09c-.03-.36-.2-.64-.5-.79-.28-.15-.67-.16-1.19-.02-.03-.05-.07-.1-.1-.15-.35-.52-.88-1.3-1.79-1.11l-.33.14c-.41-.45-1.02-.6-1.72-.42-1.73.45-4.02,2.87-4.91,4.71-.89-1.84-3.18-4.27-4.91-4.71-.71-.18-1.31-.03-1.72.42l-.25-.12-.08-.02c-.92-.19-1.44.6-1.79,1.11l-.1.14c-.52-.14-.92-.13-1.21.02-.29.16-.46.45-.48.81v.06s.02.09.02.09c.14.56.06,2.11-.02,3.79-.16,3.23-.36,7.24.62,9.09l.1.18.19.08c.71.28,1.79.9,2.94,1.57,2.26,1.3,4.82,2.78,6.42,2.78.02,0,.03,0,.04,0h.49c1.6,0,4.16-1.47,6.41-2.77,1.15-.66,2.24-1.29,2.96-1.57l.19-.08.1-.18c.98-1.85.78-5.86.62-9.08h-.12ZM19.77,20.01s.07.01.11.02c.4.1.89.38,1.42.8-.46-.27-.97-.54-1.53-.83ZM28.85,20.83c.53-.42,1.02-.7,1.42-.8.04,0,.07-.02.11-.02-.56.29-1.07.56-1.53.82ZM15.7,21.5c.22.04.71.17,1.68.66,1.03.52,2.24,1.24,3.31,1.87,1.22.73,2.02,1.2,2.55,1.43v11.96c-1.3-.51-2.89-1.43-4.29-2.24-1.08-.62-2.11-1.21-2.88-1.55-.74-1.68-.55-5.52-.41-8.33.08-1.67.15-3.01.05-3.8ZM17.85,20.32h.02c1.07.52,3.1,1.5,4.62,2.65.11.08.23.16.34.25.07.06.13.12.2.18.18.15.35.3.5.46.03.03.05.07.08.1.17.18.33.37.45.56h-.17s-.05-.02-.07-.03c-.03-.01-.06-.02-.1-.04-.03-.01-.07-.03-.1-.05-.05-.02-.09-.04-.14-.07-.04-.02-.09-.05-.13-.07-.06-.03-.11-.06-.17-.09-.05-.03-.1-.05-.15-.08-.07-.04-.13-.07-.2-.11-.03-.02-.07-.04-.1-.06-.46-.26-.97-.57-1.44-.84-1.47-.88-2.89-1.71-3.96-2.19.21-.31.39-.54.53-.56ZM25.78,37.56c-.44.06-.95.06-1.41.02v-11.94h1.41v11.93ZM28.15,22.6s.05-.03.07-.05c.85-.57,1.79-1.09,2.61-1.51.56-.29,1.07-.53,1.45-.71h.02c.14,0,.33.25.54.55-1.09.49-2.49,1.31-3.96,2.19-.99.59-2.23,1.33-2.61,1.44h-.17c.14-.22.32-.44.53-.65.41-.43.94-.85,1.52-1.25ZM26.91,37.43v-11.96c.53-.23,1.33-.7,2.55-1.43l.04-.02c1.06-.63,2.26-1.34,3.27-1.85.97-.48,1.45-.62,1.68-.65-.1.8-.04,2.14.05,3.82.14,2.8.33,6.63-.41,8.31-.78.34-1.81.93-2.9,1.56-1.4.81-2.98,1.71-4.27,2.23ZM25.33,38.82s0,0,0,0h0s0,0,0,0Z"/>
  <path class="cls-1" d="M28.24,16.65l-.19.19c-.07.07-.11.16-.11.25s.04.19.1.25l.37.36c.07.07.16.1.25.1s.18-.03.25-.1l.19-.19c.07-.07.11-.16.11-.25s-.04-.19-.1-.25l-.36-.36c-.13-.13-.37-.14-.5,0Z"/>
  <path class="cls-1" d="M22.64,11.92c.39.44,1.01,1.05,1.61,1.64.39.38.78.76,1.1,1.1l1.54,1.53s.03.04.04.04c-.01.02-.05.05-.08.08-.31.28-.62.38-1.03.34,0,0-.01,0-.02,0-.3,0-.36.3-.37.38-.07.18-.06.33.01.44.11.16.33.18.55.18.03,0,.06,0,.09,0h.08c.82-.04,1.34-.56,1.84-1.07l.11-.11c.5-.48,1.03-1.08.92-2.07-.02-.16-.06-.27-.14-.34-.14-.12-.31-.07-.43-.04-.03,0-.06.02-.09.02-.11.02-.2.06-.25.14-.06.08-.09.2-.07.32.03.36-.06.63-.35.96-.05.06-.07.07-.07.07,0,0-.02,0-.04-.03-.58-.58-1.16-1.16-1.73-1.74-.87-.88-1.7-1.71-2.49-2.47l-.04-.03c-.18-.11-.37-.22-.58-.33-.15-.07-.29-.06-.38.02-.12.1-.12.28,0,.48.09.16.19.33.29.5Z"/>
  <path class="cls-1" d="M21.08,17.9c.07.07.16.1.25.1s.18-.03.25-.1l.37-.36c.14-.14.14-.37,0-.5l-.19-.19c-.13-.14-.37-.13-.5,0l-.36.36c-.07.07-.11.16-.11.25s.04.19.1.25l.19.19Z"/>
  <path class="cls-1" d="M26.06,13.5c.59-.59,1.21-1.19,1.61-1.65.1-.16.2-.33.29-.5.1-.18.1-.36-.02-.46-.1-.08-.23-.09-.38-.02-.21.11-.41.23-.58.33l-.03.02c-.53.51-1.08,1.06-1.64,1.62l-.09.09.7.7.14-.14Z"/>
  <path class="cls-1" d="M21.96,16.58l.11.11c.5.51,1.02,1.03,1.84,1.07h.08s.06,0,.09,0c.22,0,.44-.02.55-.18.08-.11.08-.25.02-.42-.02-.1-.08-.4-.38-.4,0,0-.01,0-.02,0-.41.04-.72-.06-1.04-.35-.02-.02-.06-.05-.07-.05h0s0-.02.04-.05l1.54-1.54c.06-.06.12-.12.18-.19l.09-.09-.18-.18c-.09-.09-.19-.19-.3-.3l-.22-.22-.09.09c-.57.57-1.14,1.15-1.72,1.73-.02.02-.03.03-.03.03,0,0-.03-.01-.08-.08-.28-.32-.38-.59-.34-.95.02-.12,0-.24-.07-.33-.06-.08-.15-.13-.25-.14-.03,0-.06-.01-.09-.02-.12-.03-.29-.08-.43.04-.07.07-.12.18-.13.34-.1.99.42,1.59.92,2.07Z"/>
  <path class="cls-1" d="M46.38,25.32c0-.15-.01-.29-.02-.39,0-.23-.05-.58-.09-.89-.02-.18-.04-.34-.05-.48l-.21-1.16c-.03-.12-.07-.27-.11-.43-.07-.31-.16-.66-.23-.89l-.12-.4c-.06-.19-.12-.38-.17-.54-.05-.11-.1-.26-.16-.41-.11-.3-.24-.64-.34-.86l-.17-.38c-.08-.18-.16-.36-.23-.51l-.13-.25c-.14-.27-.32-.61-.41-.78l-.6-1-.19-.27c-.16-.24-.37-.54-.47-.69-.03-.04-.09-.11-.14-.19-.08-.1-.17-.22-.21-.27-2.35-3.06-5.5-5.48-9.11-7.01-.54-.24-1.22-.48-1.82-.69-.11-.03-.29-.09-.49-.15-.23-.07-.48-.15-.62-.19l-.75-.18c-.35-.09-.82-.18-1.24-.25l-.29-.05c-.27-.04-.56-.07-.84-.11l-.31-.04c-.16-.02-.44-.03-.7-.05-.17-.01-.34-.02-.46-.03-.29,0-.57-.01-.85-.01-9.62,0-17.06,5.75-19.07,14.83-1.12,4.93-.21,10.32,2.32,14.74-1.4-2.17-2.37-4.64-2.88-7.29-.75-3.77-.24-7.81,1.44-11.4.92-1.96,2.17-3.79,3.72-5.44.08-.08.21-.21.34-.34.17-.17.34-.34.44-.44.13-.11.25-.23.38-.35.15-.14.29-.27.44-.4.09-.07.21-.17.34-.28.19-.16.39-.33.53-.43,1.89-1.48,4.19-2.73,6.85-3.71.97-.37,1.97-.71,2.84-1.01.1-.03.15-.14.12-.23-.01-.05-.05-.09-.09-.12-.05-.02-.1-.03-.15-.02-2.17.62-3.98,1.19-5.74,1.96-1.38.6-2.72,1.36-4,2.26-3,2.09-5.42,4.88-7.01,8.07l-.41.88c-.02.06-.06.15-.1.25-.04.11-.09.22-.12.28-.55,1.32-.97,2.83-1.25,4.49-.59,3.95.12,8.26,2.01,12.13,3.44,7.3,11.02,11.89,19.5,11.89.31,0,.62,0,.94-.02,6.4-.22,12.27-3.28,16.12-8.37,1.99-2.63,3.3-5.57,3.78-8.5l.11-.78s.04-.45.06-.66v-.12c.02-.08.03-.17.03-.25.02-.18.04-.37.03-.53,0-.11,0-.25,0-.4,0-.27.02-.57,0-.77,0-.1,0-.24-.02-.39ZM45.07,25.85c0,.09,0,.17,0,.24l-.03.74c0,.18-.02.4-.04.6v.12c-.2,2.51-1.08,5.1-2.54,7.49-3.92,6.31-10.6,9.77-18.04,9.43,2.67-.16,5.28-.91,7.57-2.2.09-.05.12-.16.07-.26-.02-.04-.06-.08-.11-.09-.05-.02-.1,0-.15.02-5.36,2.92-12.04,2.76-17.03-.41-7.52-4.81-10.72-15.15-7.29-23.54,3-7.5,10.25-11.74,18.91-11.06.17,0,.41.04.61.06l.12.02c.41.04,1.02.15,1.45.24.28.05.66.14.99.23.16.04.31.08.43.11.11.04.31.1.5.15.22.06.44.13.55.17.22.08.82.3,1.04.38.17.06.34.14.51.22.17.08.34.15.5.21,3.4,1.56,6.33,3.93,8.46,6.86.14.18.33.47.5.72.08.12.16.24.22.33l.56.94.5.97.44,1,.38,1.02.32,1.04.25,1.06c.02.12.04.26.07.41.03.17.06.35.08.49.02.09.04.26.05.36,0,.04.02.23.04.42.01.11.02.22.03.31,0,.09.02.16.02.17,0,.05,0,.11,0,.18,0,0,0,0,0,.01,0,.07,0,.15,0,.22v.35c.02.09.02.18.02.27Z"/>
</svg>