<?xml version="1.0" encoding="UTF-8"?>
<svg id="Baśń_Współczesna" data-name="Baśń Współczesna" xmlns="http://www.w3.org/2000/svg" viewBox="0 0 50 50">
  <defs>
    <style>
      .cls-1 {
        fill: #d34d47;
        stroke-width: 0px;
      }
    </style>
  </defs>
  <path class="cls-1" d="M46.38,25.32c0-.15-.01-.29-.02-.39,0-.23-.05-.58-.09-.89-.02-.18-.04-.34-.05-.48l-.21-1.16c-.03-.12-.07-.27-.11-.43-.07-.31-.16-.66-.23-.89l-.12-.4c-.06-.19-.12-.38-.17-.54-.05-.11-.1-.26-.16-.41-.11-.3-.24-.64-.34-.86l-.17-.38c-.08-.18-.16-.36-.23-.51l-.13-.25c-.14-.27-.32-.61-.41-.78l-.6-1-.19-.27c-.16-.24-.37-.54-.47-.69-.03-.04-.09-.11-.14-.19-.08-.1-.17-.22-.21-.27-2.35-3.06-5.5-5.48-9.11-7.01-.54-.24-1.22-.48-1.82-.69-.11-.03-.29-.09-.49-.15-.23-.07-.48-.15-.62-.19l-.75-.18c-.35-.09-.82-.18-1.24-.25l-.29-.05c-.27-.04-.56-.07-.84-.11l-.31-.04c-.16-.02-.45-.03-.71-.05-.17-.01-.33-.02-.45-.03-10.04-.34-17.85,5.47-19.92,14.82-1.16,5.1-.15,10.56,2.46,14.97-1.45-2.2-2.49-4.74-3.02-7.52-.75-3.77-.24-7.81,1.44-11.4.92-1.96,2.17-3.79,3.72-5.44.08-.08.2-.2.33-.33.17-.17.35-.35.45-.45.13-.11.26-.23.38-.35.15-.14.29-.27.44-.4.09-.07.21-.17.34-.28.19-.16.39-.33.52-.43,1.89-1.48,4.19-2.73,6.85-3.71.97-.37,1.97-.72,2.84-1.01.1-.03.15-.14.12-.23-.01-.05-.05-.09-.09-.11-.04-.03-.1-.03-.15-.02-2.17.62-3.98,1.19-5.74,1.96-1.38.6-2.72,1.36-4,2.26-3,2.09-5.42,4.88-7.01,8.07l-.41.88c-.02.06-.06.15-.1.25-.04.11-.09.22-.12.28-.55,1.32-.97,2.83-1.25,4.49-.59,3.95.12,8.26,2.01,12.13,3.44,7.3,11.02,11.89,19.5,11.89.31,0,.62,0,.94-.02,6.4-.22,12.27-3.28,16.12-8.37,1.99-2.63,3.3-5.57,3.78-8.5l.11-.78s.04-.45.06-.66v-.12c.02-.08.03-.17.03-.25.02-.18.04-.37.03-.53,0-.11,0-.25,0-.4,0-.27.02-.58,0-.77,0-.1,0-.24-.02-.39ZM32,42.27c.09-.05.12-.16.07-.26-.02-.04-.06-.08-.11-.09-.05-.02-.1,0-.15.02-5.36,2.92-12.04,2.76-17.03-.41-7.52-4.81-10.72-15.15-7.29-23.54,3-7.5,10.25-11.74,18.91-11.06.17,0,.41.04.61.06l.12.02c.41.04,1.02.15,1.45.24.28.05.66.14.99.23.16.04.31.08.43.11.11.04.31.1.5.15.22.06.44.13.55.17.22.08.82.3,1.04.38.17.06.34.14.51.22.17.08.34.15.5.21,3.4,1.56,6.33,3.93,8.46,6.86.14.18.33.47.5.72.08.12.16.24.22.33l.56.94.5.97.44,1,.38,1.02.32,1.04.25,1.06c.02.12.04.26.07.41.03.17.06.35.08.49.02.09.04.26.05.36,0,.04.02.23.04.42.02.23.04.46.05.48,0,.1.01.27.02.41v.35c.02.17.03.37.02.51l-.03.74c0,.18-.02.4-.04.6v.12c-.2,2.51-1.08,5.1-2.54,7.49-3.9,6.27-10.54,9.74-17.93,9.43,2.58-.17,5.15-.9,7.46-2.2Z"/>
  <path class="cls-1" d="M23.07,18.33c-.17.29-.05.58.04.79.04.08.07.17.09.26.02.09.03.22.01.4v.04c-.01.16-.03.48.24.7.22.18.48.15.69.14.08,0,.18-.02.26-.01h.05c.06,0,.16.04.25.08.15.06.34.14.56.14h0l.14-.02c.39-.11.47-.49.52-.74.02-.08.04-.21.07-.26l.04-.08s.08-.1.11-.14c.12-.14.31-.35.32-.69v-.03c-.04-.34-.3-.5-.5-.61-.09-.05-.18-.1-.26-.18-.06-.05-.13-.15-.19-.25-.05-.08-.1-.16-.17-.24l-.02-.03c-.47-.5-.97-.05-1.14.1-.07.06-.17.15-.22.17l-.08.04s-.1.03-.16.04c-.18.04-.45.1-.64.35l-.03.04ZM24.09,19.16c-.03-.13-.07-.24-.12-.34.1-.02.22-.05.33-.11.21-.08.37-.21.5-.33.08.13.19.28.33.41.11.1.23.18.34.25-.08.1-.18.21-.24.34-.1.16-.14.34-.17.5,0,0,0,0,0,0-.16-.06-.35-.14-.58-.14-.12,0-.24,0-.34,0,0-.16,0-.37-.05-.58Z"/>
  <path class="cls-1" d="M19.62,15.76v.03c.05.09.06.19.05.31,0,.06-.02.12-.04.2-.06.29-.13.65.14.9l.03.02c.29.24.63.15.88.09.09-.02.18-.05.28-.05.12-.02.28.03.48.15l.07.04c.15.08.34.2.57.2h.12c.49-.12.53-.65.54-.92,0-.08.01-.18.03-.24v-.04c.03-.14.18-.28.34-.43.07-.06.14-.13.21-.21.21-.24.21-.46.18-.61-.09-.36-.44-.5-.7-.61-.03-.01-.07-.03-.12-.05-.14-.06-.25-.16-.32-.29-.03-.06-.06-.12-.09-.18-.12-.26-.26-.56-.6-.64-.33-.07-.55.13-.66.23-.07.06-.13.13-.2.22-.07.08-.13.15-.2.2-.06.05-.14.09-.23.11-.07.02-.17.03-.26.04-.27.03-.68.07-.84.48l-.03.13c-.02.31.13.56.25.74.04.06.09.14.1.18ZM21,16.36c-.05,0-.1,0-.15,0-.12,0-.22.03-.32.06.01-.06.02-.13.03-.19.04-.27,0-.54-.09-.78-.04-.12-.1-.22-.17-.32.1-.01.21-.03.31-.06.21-.05.41-.15.58-.29.11-.09.19-.18.27-.27.03.06.06.12.08.17.15.31.42.55.75.69.03.02.07.03.11.05-.21.2-.47.47-.53.86-.03.11-.04.21-.05.32-.29-.17-.57-.25-.83-.25ZM21.82,16.74h0s0,0,0,0h0Z"/>
  <path class="cls-1" d="M24.48,14.33c.21.23.18.42.03.89-.06.19-.12.39-.15.6-.07.38.1.58.2.67.35.3.86.11,1.33-.05.07-.03.23-.08.27-.09h.06c.14-.05.23-.03.39.07.08.04.18.11.29.2.25.18.54.39.88.44h.04s.12,0,.12,0c.6-.1.58-.8.57-1.33,0-.14,0-.32,0-.39v-.04c.02-.17.2-.31.49-.52.16-.12.32-.24.46-.38.08-.08.32-.32.26-.66-.06-.33-.37-.48-.48-.53-.19-.09-.37-.14-.55-.2-.49-.15-.65-.22-.73-.54l-.02-.05c-.03-.06-.05-.14-.08-.21l-.02-.04c-.13-.4-.29-.86-.72-.94-.19-.03-.46,0-.73.34-.11.13-.2.26-.3.4-.29.41-.4.54-.78.52-.69,0-1.2.02-1.41.42-.2.4.06.76.51,1.35l.05.07ZM26.97,12.33s.03.09.04.12v.04c.04.08.07.17.1.23.21.8.86,1,1.33,1.15.06.02.13.04.19.06-.05.04-.1.07-.15.11-.33.24-.78.57-.84,1.15-.03.16-.02.36-.02.58,0,.07,0,.15,0,.23-.06-.04-.12-.09-.18-.13-.12-.09-.25-.18-.38-.25-.34-.21-.66-.26-1.02-.17-.13.02-.27.07-.48.14-.06.02-.15.05-.23.08.02-.06.04-.13.06-.19.14-.47.34-1.12-.22-1.77-.08-.1-.16-.22-.23-.32.11,0,.24,0,.39,0,.86.06,1.24-.48,1.54-.91.04-.05.08-.11.12-.16Z"/>
  <path class="cls-1" d="M34.82,34.36l.1-.18c.98-1.85.78-5.86.62-9.09h-.12s0,0,0,0l.12-.03c-.08-1.65-.16-3.21-.02-3.77l.02-.09v-.09c-.03-.36-.2-.64-.5-.79-.28-.15-.67-.16-1.19-.02-.03-.05-.07-.1-.1-.15-.35-.52-.88-1.3-1.79-1.11l-.33.14c-.41-.45-1.02-.6-1.72-.42-1.73.45-4.02,2.87-4.91,4.71-.89-1.84-3.18-4.27-4.91-4.71-.7-.18-1.31-.03-1.72.42l-.27-.13h-.05c-.91-.2-1.44.59-1.79,1.1-.03.05-.06.09-.09.14-.53-.14-.92-.13-1.21.02-.29.16-.46.45-.48.81v.08s.02.08.02.08c.14.56.06,2.13-.02,3.79-.16,3.23-.36,7.24.62,9.09l.1.18.19.08c.71.28,1.79.9,2.94,1.57,2.26,1.3,4.82,2.78,6.42,2.78h.53c1.6,0,4.15-1.47,6.4-2.77l-.06-.11h0l.09.09c1.14-.66,2.22-1.28,2.93-1.56l.19-.08ZM19.7,19.84s.07.01.11.02c.4.1.89.38,1.42.8-.46-.27-.97-.54-1.53-.83ZM28.78,20.67c.53-.42,1.02-.7,1.42-.8.04,0,.07-.02.11-.02-.56.29-1.07.56-1.53.82ZM15.63,21.34c.22.04.71.17,1.68.66,1.02.51,2.24,1.24,3.31,1.87,1.22.73,2.02,1.2,2.55,1.43v11.96c-1.3-.51-2.89-1.43-4.3-2.25-1.08-.62-2.1-1.21-2.87-1.55-.74-1.68-.55-5.52-.41-8.33.08-1.67.15-3.01.05-3.8ZM17.77,20.16h.02c.91.44,2.5,1.21,3.89,2.12.08.05.17.1.25.16.11.08.21.16.32.24.17.12.34.25.5.37.05.04.09.09.14.13.2.17.39.34.56.51.03.03.04.06.07.09.17.19.33.38.45.57h-.17s-.06-.02-.09-.03c-.03-.01-.05-.02-.09-.03-.04-.02-.09-.04-.14-.07-.03-.02-.06-.03-.1-.05-.07-.04-.15-.08-.24-.12-.02-.01-.04-.02-.06-.03-.1-.06-.22-.12-.33-.18,0,0,0,0,0,0-.48-.27-1.05-.61-1.56-.91-1.47-.88-2.89-1.71-3.96-2.19.21-.31.39-.54.53-.56ZM25.71,37.57c-.45.05-.97.05-1.41,0v-12.1h1.41v12.1ZM27.72,22.7c.71-.52,1.5-1,2.26-1.41.86-.47,1.67-.86,2.22-1.12h.02c.14,0,.33.25.54.55-1.09.49-2.49,1.31-3.96,2.19-.99.59-2.23,1.33-2.61,1.44h-.17c.14-.22.32-.44.53-.66.33-.34.74-.67,1.17-.99ZM26.83,25.3c.53-.23,1.33-.7,2.57-1.44,1.07-.63,2.27-1.35,3.29-1.86.97-.48,1.45-.62,1.68-.65-.1.79-.04,2.12.05,3.78v.03c.14,2.8.33,6.63-.41,8.31-.77.34-1.8.93-2.9,1.56-1.4.8-2.98,1.71-4.27,2.22v-11.96Z"/>
</svg>