<?xml version="1.0" encoding="UTF-8"?>
<svg id="Baśń_Współczesna" data-name="Baśń Współczesna" xmlns="http://www.w3.org/2000/svg" viewBox="0 0 50 50">
  <defs>
    <style>
      .cls-1 {
        fill: #d55554;
      }

      .cls-1, .cls-2, .cls-3 {
        stroke-width: 0px;
      }

      .cls-2 {
        fill: #d34d47;
      }

      .cls-3 {
        fill: none;
      }
    </style>
  </defs>
  <path class="cls-1" d="M31.94,42.16c-5.31,2.98-12.2,3-17.4-.24-6.98-4.34-10.44-13.33-8.63-21.28,2.11-9.54,10.21-15.05,19.79-14.72.28.02.88.05,1.15.08.37.05.78.09,1.15.15.44.08,1.08.19,1.51.3l.75.18c.25.07.86.26,1.11.33.56.2,1.25.44,1.8.68,3.54,1.5,6.71,3.92,9.06,6.97.08.09.28.37.35.46.15.21.51.74.65.96.18.3.42.69.6.99.12.23.42.8.54,1.03.12.25.28.63.4.88.15.33.36.92.5,1.26.09.27.21.66.29.93.11.35.24.96.33,1.32.06.35.14.8.2,1.15.03.36.12,1,.14,1.35,0,.19.03.59.03.78.03.29-.01.87-.01,1.17.01.24-.04.54-.05.77,0,0-.07.77-.07.77l-.11.77c-.5,3.08-1.89,5.97-3.76,8.45-3.84,5.09-9.66,8.1-16.03,8.32-8.47.34-16.66-4.02-20.32-11.8-1.81-3.71-2.61-7.96-2-12.05.25-1.52.64-3.04,1.24-4.46.05-.13.17-.42.22-.54l.08-.17.33-.7c1.6-3.2,4.04-5.98,6.97-8.02,1.24-.87,2.59-1.64,3.98-2.24,1.85-.81,3.79-1.4,5.73-1.96.03-.01.07.01.08.05,0,.03,0,.07-.04.08-.95.32-1.9.65-2.84,1.01-2.46.91-4.81,2.11-6.88,3.73-.23.17-.64.53-.86.71-.28.23-.55.51-.83.75-.19.18-.6.6-.79.79-1.52,1.62-2.81,3.47-3.75,5.48-1.67,3.55-2.23,7.62-1.45,11.47,1.75,9.12,8.93,15.57,18.16,16.43,7.87.77,15.11-2.67,19.31-9.4,1.4-2.29,2.34-4.87,2.54-7.55.02-.22.06-.51.06-.73,0,0,.03-.73.03-.73,0-.2-.01-.52-.02-.73,0-.14-.01-.42-.02-.55-.01-.06-.08-.82-.09-.91,0-.09-.03-.27-.05-.36-.04-.26-.11-.64-.15-.9-.06-.24-.2-.83-.25-1.07-.1-.32-.22-.73-.32-1.05-.09-.23-.3-.8-.39-1.03-.14-.31-.31-.7-.45-1.01-.11-.22-.39-.76-.51-.98-.17-.29-.39-.66-.56-.95-.2-.28-.52-.79-.73-1.06-2.18-2.98-5.16-5.36-8.51-6.9-.33-.13-.69-.3-1.02-.43-.23-.08-.82-.3-1.04-.38-.23-.08-.82-.25-1.06-.33-.41-.1-1.03-.27-1.44-.34-.42-.09-1.03-.19-1.46-.24-.21-.03-.52-.07-.73-.08-8.28-.65-15.87,3.25-19.03,11.14-3.42,8.38-.33,18.79,7.34,23.7,5.1,3.24,11.88,3.29,17.16.41.03-.02.07,0,.09.03.02.03,0,.07-.03.09h0Z"/>
  <g>
    <g>
      <path class="cls-2" d="M25.28,20.72c-.2,0-.37-.07-.52-.13-.11-.04-.22-.09-.3-.09h-.02s-.02,0-.02,0c-.09,0-.19,0-.29.01-.2.02-.42.04-.6-.11-.22-.18-.21-.45-.2-.6v-.04c.02-.19.01-.33-.02-.43-.02-.1-.06-.19-.1-.28-.08-.19-.19-.44-.05-.67l.02-.03c.16-.21.4-.26.57-.3.07-.02.15-.03.19-.06l.03-.02h.03c.08-.04.18-.13.27-.21.17-.15.58-.52.96-.11l.02.02c.06.08.11.16.17.23.07.11.14.21.21.27h.01c.07.08.17.14.26.19.18.11.41.24.44.52v.02s0,.02,0,.02c0,.26-.17.45-.29.59-.06.06-.11.13-.13.17v.03s-.03.03-.03.03c-.04.07-.07.19-.09.3-.05.23-.12.55-.43.64l-.07.02h-.04s0,0,0,0ZM24.47,19.85c.21,0,.38.07.54.13.05.02.1.04.15.06,0-.04.02-.08.02-.11.03-.15.07-.33.17-.49.06-.14.15-.24.23-.33.02-.03.06-.07.09-.1-.02-.02-.05-.03-.07-.04-.11-.07-.25-.15-.37-.26-.14-.12-.24-.27-.33-.41-.02-.03-.04-.07-.06-.1-.03.03-.07.06-.1.08-.12.11-.28.25-.47.32-.12.06-.24.09-.34.11-.03,0-.08.02-.12.03.01.03.02.05.03.08.05.1.1.23.14.38.06.23.05.47.04.63v.03s0,.01,0,.02c.03,0,.05,0,.08,0,.11-.01.25-.02.39-.01Z"/>
      <path class="cls-2" d="M23.07,17.53c-.2,0-.37-.1-.51-.18l-.07-.04c-.22-.13-.4-.19-.55-.17h-.02c-.08,0-.18.03-.27.06-.24.06-.53.13-.77-.07l-.02-.02c-.21-.21-.15-.52-.1-.79.01-.07.03-.14.04-.21.02-.14,0-.26-.04-.37v-.02c-.03-.06-.08-.13-.13-.21-.11-.18-.25-.39-.23-.66v-.05s.02-.04.02-.04c.13-.34.48-.37.73-.4.1,0,.2-.02.28-.04.11-.03.2-.07.28-.14.07-.06.14-.14.22-.22.06-.07.12-.14.19-.2h0c.09-.09.27-.25.54-.19.27.07.39.32.51.57.03.06.06.13.09.19.08.15.21.27.38.34h.02s.08.04.12.06c.22.09.53.21.6.51.03.12.02.3-.15.5h0c-.06.07-.13.14-.19.2-.17.17-.34.32-.37.5v.03c-.02.07-.03.17-.04.26-.02.26-.05.7-.45.78h-.07s-.02,0-.03,0ZM22.82,16.74s.04.02.06.03c.02,0,.04.02.06.04,0-.04,0-.09,0-.12,0-.12.02-.25.05-.37.07-.39.34-.65.56-.86.03-.03.05-.05.08-.08-.04-.02-.09-.04-.12-.05-.06-.02-.11-.05-.16-.07-.3-.13-.55-.36-.69-.64-.04-.07-.07-.15-.11-.22-.02-.04-.04-.08-.06-.12-.03.03-.06.07-.09.1-.08.1-.18.21-.29.3-.15.12-.33.22-.53.26-.13.04-.26.05-.38.06-.03,0-.08,0-.11.01.03.04.06.09.08.13.06.1.14.21.18.34.09.22.12.47.08.72-.01.08-.03.16-.04.24,0,.04-.02.09-.03.13.04,0,.08-.02.11-.03.11-.03.24-.06.38-.07.3-.04.62.05.96.25ZM22.43,14.17h0Z"/>
      <path class="cls-2" d="M27.83,16.95h-.03c-.31-.05-.58-.25-.83-.43-.11-.08-.22-.16-.31-.21h-.01c-.17-.11-.29-.13-.47-.09h-.05s-.19.07-.3.11c-.44.16-.9.32-1.19.07-.1-.09-.22-.26-.16-.56.03-.21.09-.4.15-.59.14-.46.2-.72-.06-1.01l-.04-.06c-.43-.57-.66-.89-.49-1.22.17-.34.64-.36,1.29-.36h.02c.42.03.57-.17.86-.57.09-.13.18-.26.3-.39.19-.23.39-.34.61-.3.36.06.5.47.63.85.03.1.06.19.09.26v.04c.11.38.35.47.82.62.17.05.35.11.53.19.1.05.36.17.41.44.05.26-.15.47-.23.55-.13.14-.29.26-.45.37-.32.23-.51.39-.53.61v.03c-.02.09-.02.27-.01.42.01.49.03,1.1-.47,1.19h-.09ZM26.99,15.74c.13.07.25.16.37.25.12.09.25.18.37.24.01-.14,0-.34,0-.46,0-.2,0-.4.02-.55.05-.53.46-.83.79-1.07.12-.09.24-.17.32-.26-.12-.05-.25-.09-.39-.14-.47-.14-1.05-.32-1.25-1.06-.04-.09-.07-.19-.1-.28-.03-.1-.08-.23-.12-.33-.1.11-.18.23-.26.34-.3.42-.64.9-1.43.85-.32,0-.51.01-.62.02.08.13.22.32.36.5l.02.02c.51.58.33,1.16.19,1.63-.04.14-.08.27-.11.41.14-.03.35-.11.46-.15.17-.06.32-.11.43-.13.34-.08.63-.03.94.16Z"/>
    </g>
    <g>
      <path class="cls-3" d="M30.75,19.76c-.13-.06-.31-.08-.59-.01-.73.19-1.64.89-2.46,1.73,1.01-.68,2.11-1.26,3.04-1.72Z"/>
      <path class="cls-3" d="M23.78,24.47h.41c-1.01-1.86-4.69-3.62-6.35-4.42l-.04-.02c-.23-.01-.44.27-.72.7,0,.01-.02.03-.03.04,1.04.46,2.39,1.24,4.08,2.25,1.07.64,2.28,1.36,2.65,1.45Z"/>
      <path class="cls-3" d="M19.84,19.75c-.27-.07-.46-.05-.59.01.93.46,2.03,1.04,3.04,1.72-.82-.85-1.73-1.54-2.46-1.73Z"/>
      <path class="cls-3" d="M25.81,24.47h.41c.38-.1,1.59-.82,2.66-1.46,1.65-.99,3.02-1.78,4.08-2.24,0-.01-.02-.03-.03-.04-.29-.42-.5-.71-.72-.7l-.04.02c-1.66.79-5.34,2.55-6.35,4.42Z"/>
      <path class="cls-3" d="M34.51,21.21c-.15,0-.63.05-1.88.68-1.03.51-2.24,1.24-3.31,1.88-1.25.75-2.09,1.24-2.61,1.46v12.22c1.34-.5,3.02-1.47,4.46-2.3,1.11-.64,2.16-1.24,2.93-1.57.78-1.69.58-5.57.44-8.43-.09-1.76-.16-3.17-.03-3.93Z"/>
      <path class="cls-3" d="M23.29,25.22c-.52-.22-1.36-.71-2.61-1.45-1.07-.64-2.29-1.36-3.31-1.88-1.25-.63-1.73-.69-1.88-.69.13.75.06,2.17-.03,3.93-.14,2.86-.34,6.75.44,8.44.77.33,1.81.93,2.91,1.57,1.45.83,3.14,1.81,4.48,2.31v-12.23Z"/>
      <path class="cls-3" d="M25.83,25.35h-1.66v12.37c.2.04.39.07.56.07.01,0,.02,0,.03,0v.44s0-.44,0-.44h.46v.44-.44s.02,0,.03,0c.17,0,.36-.02.57-.07v-12.37Z"/>
      <path class="cls-2" d="M35.42,25.1c-.08-1.67-.16-3.25-.02-3.83l.02-.07v-.07c-.02-.31-.18-.56-.43-.69-.28-.15-.68-.13-1.18.01-.05-.07-.1-.14-.15-.22-.35-.52-.83-1.23-1.66-1.06h-.05s-.15.08-.15.08c-.06.03-.12.06-.18.09-.38-.47-.96-.63-1.66-.45-1.7.44-4.13,2.98-4.94,4.89-.81-1.92-3.25-4.46-4.94-4.89-.7-.18-1.28-.02-1.66.45-.06-.03-.12-.06-.18-.09l-.15-.07h-.05c-.83-.18-1.31.53-1.66,1.05-.05.07-.1.15-.15.21-.52-.15-.92-.16-1.2,0-.25.14-.4.39-.41.71v.06s.01.06.01.06c.14.58.06,2.15-.02,3.82-.16,3.21-.36,7.21.61,9.03l.08.14.15.06c.72.29,1.81.91,2.96,1.58,2.25,1.3,4.79,2.76,6.35,2.76.01,0,.03,0,.04,0h0s.46,0,.46,0c.01,0,.02,0,.03,0,1.57,0,4.11-1.46,6.35-2.75,1.16-.67,2.25-1.29,2.98-1.58l.15-.06.08-.14c.97-1.82.77-5.81.61-9.02ZM32.16,20.05l.04-.02c.22-.01.44.27.72.7,0,.01.02.03.03.04-1.05.46-2.42,1.25-4.08,2.24-1.07.64-2.28,1.36-2.66,1.46h-.41c1.01-1.86,4.69-3.62,6.35-4.42ZM30.16,19.75c.27-.07.46-.05.59.01-.93.46-2.03,1.04-3.04,1.72.82-.85,1.73-1.54,2.46-1.73ZM19.84,19.75c.73.19,1.64.89,2.46,1.73-1.01-.68-2.11-1.26-3.04-1.72.13-.06.31-.08.59-.01ZM17.08,20.73c.29-.42.49-.71.72-.7l.04.02c1.66.79,5.34,2.55,6.35,4.42h-.41c-.37-.09-1.58-.81-2.65-1.45-1.69-1-3.04-1.79-4.08-2.25,0-.01.02-.03.03-.04ZM15.9,33.57c-.78-1.69-.58-5.58-.44-8.44.09-1.76.16-3.18.03-3.93.16,0,.63.06,1.88.69,1.03.52,2.24,1.24,3.31,1.88,1.25.74,2.08,1.24,2.61,1.45v12.23c-1.34-.5-3.03-1.48-4.48-2.31-1.1-.64-2.15-1.24-2.91-1.57ZM25.24,37.78v.44s0-.44,0-.44h-.46v.44-.44s-.03,0-.04,0c-.17,0-.35-.02-.56-.07v-12.37h1.66v12.37c-.21.04-.4.07-.57.07,0,0-.02,0-.02,0ZM34.1,33.57c-.78.33-1.83.94-2.93,1.57-1.44.83-3.13,1.8-4.46,2.3v-12.22c.53-.22,1.36-.71,2.61-1.46,1.07-.64,2.29-1.36,3.31-1.88,1.25-.63,1.72-.69,1.88-.68-.13.75-.06,2.17.03,3.93.14,2.86.34,6.74-.44,8.43Z"/>
    </g>
  </g>
</svg>