<?xml version="1.0" encoding="UTF-8"?>
<svg id="Odpowiedzialność" xmlns="http://www.w3.org/2000/svg" viewBox="0 0 50 50">
  <defs>
    <style>
      .cls-1 {
        fill: #d55554;
      }

      .cls-1, .cls-2 {
        stroke-width: 0px;
      }

      .cls-2 {
        fill: none;
      }
    </style>
  </defs>
  <g>
    <path class="cls-2" d="M45.16,24.82c-.01-.06-.08-.82-.09-.91,0-.09-.03-.27-.05-.36-.04-.26-.11-.64-.15-.9-.06-.24-.2-.83-.25-1.07-.1-.32-.22-.73-.32-1.05-.09-.23-.3-.8-.39-1.03-.14-.31-.31-.7-.45-1.01-.11-.22-.39-.76-.51-.98-.17-.29-.39-.66-.56-.95-.2-.28-.52-.79-.73-1.06-2.18-2.98-5.16-5.36-8.51-6.9-.33-.13-.69-.3-1.02-.43-.23-.08-.82-.3-1.04-.38-.23-.08-.82-.25-1.06-.33-.41-.1-1.03-.27-1.44-.34-.42-.09-1.03-.19-1.46-.24-.21-.03-.52-.07-.73-.08-8.28-.65-15.87,3.25-19.03,11.14-3.42,8.38-.33,18.79,7.34,23.7,5.1,3.24,11.88,3.29,17.16.41.03-.02.07,0,.09.03.02.03,0,.07-.03.09-3.13,1.76-6.81,2.49-10.37,2.12.56.1,1.13.17,1.7.22,7.87.77,15.11-2.67,19.31-9.4,1.4-2.29,2.34-4.87,2.54-7.55.02-.22.06-.51.06-.73,0,0,.03-.73.03-.73,0-.2-.01-.52-.02-.73,0-.14-.01-.42-.02-.55Z"/>
    <path class="cls-1" d="M46.27,25.71c0-.19-.03-.59-.03-.78-.01-.36-.11-1-.14-1.35-.06-.35-.14-.8-.2-1.15-.09-.35-.22-.97-.33-1.32-.09-.27-.2-.66-.29-.93-.13-.34-.34-.93-.5-1.26-.12-.26-.28-.63-.4-.88-.12-.23-.42-.8-.54-1.03-.18-.3-.42-.69-.6-.99-.15-.21-.51-.74-.65-.96-.07-.09-.28-.37-.35-.46-2.34-3.05-5.52-5.47-9.06-6.97-.54-.24-1.23-.49-1.8-.68-.24-.07-.85-.26-1.11-.33,0,0-.75-.18-.75-.18-.43-.11-1.07-.22-1.51-.3-.37-.05-.77-.1-1.15-.15-.27-.03-.87-.06-1.15-.08-9.59-.33-17.68,5.18-19.79,14.72-1.48,6.52.57,13.73,5.2,18.51-3.03-2.83-5.16-6.63-6.01-11.06-.77-3.85-.22-7.93,1.45-11.47.94-2.01,2.23-3.86,3.75-5.48.19-.18.6-.61.79-.79.27-.24.55-.52.83-.75.22-.18.64-.54.86-.71,2.06-1.62,4.42-2.82,6.88-3.73.94-.36,1.89-.69,2.84-1.01.03-.01.05-.05.04-.08-.01-.03-.05-.06-.08-.05-1.94.55-3.87,1.15-5.73,1.96-1.39.6-2.74,1.37-3.98,2.24-2.93,2.05-5.37,4.82-6.97,8.02l-.33.7-.08.17c-.05.12-.16.41-.22.54-.59,1.42-.98,2.94-1.24,4.46-.61,4.1.19,8.35,2,12.05,3.66,7.78,11.85,12.14,20.32,11.8,6.37-.22,12.18-3.24,16.03-8.32,1.87-2.47,3.25-5.37,3.76-8.45l.11-.77s.07-.77.07-.77c.02-.24.06-.53.05-.77,0-.29.04-.87.01-1.17ZM45.2,26.1s-.03.73-.03.73c0,.22-.03.51-.06.73-.2,2.68-1.15,5.26-2.54,7.55-4.19,6.73-11.44,10.18-19.31,9.4-.58-.05-1.14-.13-1.7-.22,3.56.36,7.24-.37,10.37-2.12.03-.02.04-.06.03-.09-.02-.03-.06-.04-.09-.03-5.28,2.88-12.06,2.83-17.16-.41-7.67-4.9-10.76-15.32-7.34-23.7,3.16-7.88,10.75-11.78,19.03-11.14.21,0,.53.05.73.08.42.05,1.04.15,1.46.24.41.07,1.03.24,1.44.34.24.08.83.25,1.06.33.22.08.82.3,1.04.38.33.13.69.3,1.02.43,3.35,1.54,6.34,3.92,8.51,6.9.21.27.53.78.73,1.06.17.29.39.66.56.95.11.22.39.76.51.98.14.31.31.7.45,1.01.09.23.3.8.39,1.03.1.32.22.73.32,1.05.06.24.2.83.25,1.07.04.26.11.64.15.9.02.09.04.27.05.36.01.09.08.85.09.91,0,.13.02.41.02.55,0,.21.02.53.02.73Z"/>
  </g>
  <g>
    <path class="cls-1" d="M30.88,15.45c-.33-.99-1.26-1.66-2.34-1.68h-.04c-.52,0-1.04.15-1.48.43-.23.15-.46.33-.67.55-.08.08-.16.17-.25.27v.02c-.06.05-.1.1-.15.15l-.11-.13c-.12-.15-.25-.31-.38-.45-.42-.43-.88-.7-1.39-.82-1.05-.25-2.14.17-2.71,1.04-.5.76-.53,1.79-.08,2.76.41.88,1.11,1.55,1.79,2.21l.24.23c.33.32.71.69,1.03,1.1.28.34.54.72.84,1.2.13.22.27.45.42.7.08.14.21.22.35.22,0,0,.01,0,.02,0h.04c.15,0,.29-.08.37-.22.45-.79,1.01-1.7,1.77-2.49.21-.22.43-.43.65-.64l.05-.05c.51-.49,1.04-1,1.46-1.61.38-.54.95-1.62.56-2.79ZM26.69,15.71l.02-.03s.05-.06.08-.1c.26-.29.61-.64,1.05-.8.66-.24,1.57-.12,2.01.57.36.57.34,1.31-.07,2.05-.4.72-1.03,1.32-1.63,1.89l-.27.25c-.69.67-1.3,1.44-1.87,2.35l-.02.03c-.46-.75-.89-1.34-1.36-1.85-.27-.3-.57-.58-.86-.86l-.02-.02c-.4-.39-.82-.79-1.17-1.23-.42-.52-.88-1.32-.68-2.15.17-.71.81-1.2,1.56-1.2h0c.39,0,.78.13,1.08.36.17.13.33.3.5.5.05.06.09.11.14.17.1.13.19.26.32.37.24.21.53.24.78.09.17-.1.3-.26.41-.4Z"/>
    <path class="cls-1" d="M40.31,25.26c-.04-.1-.09-.2-.17-.28.17-.83-.2-1.29-.43-1.5-.82-.7-2.51-.51-3.61.07-.61.3-1.08.73-1.54,1.16-.07.06-.14.13-.21.19-1.81-1.57-3.11-.75-4.62.49-.73.59-1.51,1.07-2.34,1.57l-.05.03c-.89-.08-1.82-.11-2.65-.14-1.43-.05-2.9-.1-4.36-.37-3.43-.57-7.2-1.59-10.09-2.42-.12-.04-.25-.02-.36.04-.11.06-.19.16-.23.29-.04.12-.02.25.04.36.06.11.16.19.29.23,2.92.83,6.71,1.86,10.19,2.44,1.53.28,3.04.33,4.51.38.85.03,1.72.06,2.58.13l.25.03c.57.08,1.08.15,1.6.26l.22.06c1.34.39,2.01.59,2.44,1.03.45.47.54,1.01.49,1.26-.05.26-.22.44-.5.54-.4.14-.99.13-1.56.1-.88-.05-1.86-.19-2.81-.32h-.03c-.74-.11-1.5-.21-2.2-.28-1.95-.22-3.76.15-5.28.54-.12.03-.23.11-.29.22s-.08.24-.05.36c.07.25.32.4.58.34,1.5-.39,3.14-.72,4.94-.51.67.06,1.4.16,2.11.26h.09c.92.14,1.95.29,2.89.34.41.02.69.02.95.01-1.21.7-2.17,1.31-3.02,1.89-1.19.84-2.32,1.27-3.35,1.27-.09,0-.17,0-.25,0h-.02c-1.08-.03-1.88-.48-2.81-1l-.12-.07c-2.54-1.41-9.46-4.65-10.82-5.29-.24-.11-.52,0-.63.23-.05.12-.06.24-.02.36.04.12.13.21.25.27,1.92.9,8.35,3.92,10.76,5.26l.12.07c.99.55,1.93,1.08,3.24,1.12.11,0,.21.01.31.01,1.23,0,2.54-.48,3.89-1.43,1.64-1.12,3.41-2.12,5.12-3.08l.36-.2c1.28-.73,2.48-1.41,3.67-2.47,3.04-2.61,2.7-3.53,2.59-3.83ZM28.79,27.2c.44-.28,1-.65,1.53-1.08,1.42-1.16,2.12-1.55,3.27-.62-1.22.81-2.76,1.35-4.25,1.81-.17-.04-.35-.07-.55-.1ZM31.89,28.26c-.28-.18-.59-.34-.94-.48,1.43-.5,2.49-1.01,3.35-1.61.32-.23.61-.49.88-.75h.02c.43-.41.83-.78,1.32-1.02h.01c.89-.47,2.13-.56,2.56-.19.04.04.14.12.15.34-.16-.02-.33-.04-.53-.04h-.05c-2.16.25-3.9,1.58-5.59,2.87-.38.29-.77.59-1.18.88ZM37.1,28.37h0c-1.11.99-2.27,1.66-3.51,2.36l-.36.2s-.1.05-.15.08c.03-.08.05-.17.07-.26.12-.62-.07-1.33-.52-1.87.31-.23.62-.46.92-.69l.09-.07c1.65-1.26,3.21-2.45,5.09-2.68.5,0,.66.11.68.13.06.15-.25,1-2.32,2.78Z"/>
  </g>
</svg>