<?xml version="1.0" encoding="UTF-8"?>
<svg id="Ostrożność" xmlns="http://www.w3.org/2000/svg" viewBox="0 0 50 50">
  <defs>
    <style>
      .cls-1 {
        fill: #d34d47;
        stroke-width: 0px;
      }
    </style>
  </defs>
  <path class="cls-1" d="M46.37,25.36c0-.16-.02-.33-.02-.43,0-.23-.05-.58-.09-.89-.02-.17-.04-.34-.05-.48l-.21-1.16c-.03-.12-.07-.28-.11-.44-.07-.31-.16-.65-.23-.88l-.12-.38c-.06-.19-.12-.39-.17-.55-.04-.11-.09-.25-.15-.39-.11-.31-.25-.65-.35-.88l-.15-.34c-.09-.19-.17-.39-.25-.55l-.22-.42c-.12-.23-.25-.48-.33-.61l-.6-1-.23-.34c-.15-.23-.33-.49-.43-.63-.03-.04-.09-.12-.16-.2-.08-.1-.16-.2-.19-.25-2.35-3.06-5.5-5.48-9.11-7.01-.54-.24-1.21-.48-1.82-.69-.11-.03-.3-.09-.5-.15-.23-.07-.47-.15-.62-.18l-.75-.18c-.35-.09-.82-.18-1.24-.25l-.29-.05c-.27-.04-.55-.07-.83-.11l-.32-.04c-.16-.02-.44-.03-.7-.05-.18-.01-.34-.02-.46-.03-.29,0-.57-.01-.85-.01-9.62,0-17.06,5.75-19.07,14.83-1.12,4.93-.21,10.33,2.33,14.74-1.4-2.17-2.38-4.64-2.89-7.3-.75-3.77-.24-7.81,1.45-11.4.92-1.96,2.17-3.79,3.72-5.44l.31-.31c.18-.18.37-.37.48-.48.13-.11.26-.23.39-.35.15-.14.29-.27.44-.39.09-.07.22-.18.36-.29.18-.15.38-.31.51-.42,1.89-1.48,4.2-2.73,6.85-3.71.97-.37,1.97-.71,2.84-1.01.1-.03.15-.14.12-.23-.01-.05-.05-.09-.09-.12-.05-.02-.1-.03-.15-.02-2.18.62-3.98,1.19-5.74,1.96-1.38.6-2.72,1.36-4,2.26-3,2.09-5.42,4.88-7.01,8.07l-.41.88c-.02.06-.06.15-.1.25-.04.11-.09.22-.12.28-.55,1.32-.97,2.83-1.25,4.49-.59,3.95.12,8.26,2.01,12.13,3.44,7.3,11.02,11.89,19.5,11.89.31,0,.62,0,.94-.02,6.39-.22,12.27-3.28,16.12-8.37,1.99-2.63,3.3-5.57,3.78-8.5l.11-.78.07-.77c0-.08.01-.16.02-.24.02-.18.04-.37.03-.54,0-.1,0-.24.01-.4,0-.27.02-.58,0-.78,0-.09,0-.21-.01-.34ZM45.06,26.09l-.03.74c0,.18-.02.4-.04.6v.12c-.2,2.51-1.08,5.1-2.54,7.49-3.92,6.31-10.62,9.77-18.04,9.43,2.66-.16,5.28-.91,7.57-2.2.09-.05.12-.16.07-.26-.02-.04-.06-.08-.11-.09-.05-.02-.1,0-.15.02-5.36,2.92-12.05,2.76-17.03-.41-7.52-4.81-10.72-15.15-7.29-23.54,3-7.5,10.24-11.74,18.91-11.06.17,0,.42.04.61.06l.11.02c.41.04,1.02.15,1.45.24.28.05.66.14.99.23.16.04.31.08.43.11.11.04.31.1.51.16.21.06.43.13.55.17.22.08.81.3,1.04.38.17.06.34.14.51.22.17.08.34.15.5.21,3.4,1.56,6.33,3.93,8.46,6.86.14.18.33.47.5.72.08.12.16.24.22.33l.56.94.5.97.45,1,.38,1.02.32,1.04.25,1.06c.02.13.05.29.07.44.03.16.06.33.08.46.02.09.04.26.05.36,0,.04.02.21.04.39.03.33.05.49.05.51,0,.06,0,.15,0,.25,0,.11,0,.23,0,.3v.19c.01.09.01.19.02.28,0,.09,0,.18,0,.26Z"/>
  <path class="cls-1" d="M36.25,15.53c-1.02-.65-2.06-.52-3.06-.39-1.02.14-2.07.27-3.16-.52-.46-.34-.86-.78-1.25-1.21-.85-.95-1.73-1.92-3.32-2.1-.31-.04-.62-.03-.93,0-1.59.18-2.47,1.15-3.32,2.1-.39.43-.79.88-1.25,1.21-1.09.79-2.14.65-3.16.52-1-.13-2.04-.27-3.06.39-1.13.72-1.91,2.24-2.21,4.29-.53,3.64.52,9.45,4.09,13.59,2.88,3.34,6.66,4.73,9.35,5.31h.17c2.62-.59,6.35-1.98,9.22-5.31,3.57-4.14,4.62-9.95,4.09-13.59-.3-2.05-1.08-3.57-2.21-4.29ZM14.38,16.52c.33-.21.7-.31,1.17-.31.34,0,.71.05,1.1.1,1.19.16,2.53.33,4-.73.56-.41,1-.9,1.43-1.38.74-.82,1.43-1.59,2.58-1.72.22-.02.45-.02.67,0,1.14.13,1.84.9,2.58,1.72.43.48.87.97,1.43,1.38,1.47,1.07,2.81.89,4.01.73.86-.11,1.61-.21,2.26.21.83.53,1.43,1.76,1.68,3.46.5,3.39-.49,8.79-3.82,12.65-2.63,3.04-6.05,4.34-8.48,4.89-2.42-.55-5.85-1.85-8.48-4.89-3.33-3.86-4.31-9.26-3.82-12.65.25-1.7.85-2.93,1.68-3.46Z"/>
  <path class="cls-1" d="M24.29,25.64c-.08,4.73.16,5.72.63,5.87l.1.03.09-.04c.12-.05.35-.15.53-5.82.84.02,1.48.03,1.63.03h.04c.26-.02.56-.02.88-.03h.05c1.15-.02,2.45-.04,3.14-.46l.06-.05c.09-.11.11-.25.05-.37-.07-.14-.2-.42-2.44-.42h-.16c-.17.01-.85,0-1.72-.03-.53-.02-1.02-.03-1.49-.04.02-.6.04-1.6.03-1.64-.01-.26-.02-.56-.03-.88v-.05c-.02-1.15-.04-2.45-.46-3.14l-.05-.05c-.11-.09-.25-.11-.37-.05-.14.07-.43.21-.42,2.6.01.18,0,.93-.03,1.72-.02.52-.03,1.01-.04,1.47-4.71-.08-5.69.16-5.84.63l-.03.1.04.09c.05.13.15.35,5.8.53Z"/>
</svg>