<?xml version="1.0" encoding="UTF-8"?>
<svg id="Ostrożność" xmlns="http://www.w3.org/2000/svg" viewBox="0 0 50 50">
  <defs>
    <style>
      .cls-1 {
        fill: #d55554;
      }

      .cls-1, .cls-2 {
        stroke-width: 0px;
      }

      .cls-2 {
        fill: none;
      }
    </style>
  </defs>
  <g>
    <path class="cls-2" d="M45.16,24.82c-.01-.06-.08-.82-.09-.91,0-.09-.03-.27-.05-.36-.04-.26-.11-.64-.15-.9-.06-.24-.2-.83-.25-1.07-.1-.32-.22-.73-.32-1.05-.09-.23-.3-.8-.39-1.03-.14-.31-.31-.7-.45-1.01-.11-.22-.39-.76-.51-.98-.17-.29-.39-.66-.56-.95-.2-.28-.52-.79-.73-1.06-2.18-2.98-5.16-5.36-8.51-6.9-.33-.13-.69-.3-1.02-.43-.23-.08-.82-.3-1.04-.38-.23-.08-.82-.25-1.06-.33-.41-.1-1.03-.27-1.44-.34-.42-.09-1.03-.19-1.46-.24-.21-.03-.52-.07-.73-.08-8.28-.65-15.87,3.25-19.03,11.14-3.42,8.38-.33,18.79,7.34,23.7,5.1,3.24,11.88,3.29,17.16.41.03-.02.07,0,.09.03.02.03,0,.07-.03.09-3.13,1.76-6.81,2.49-10.37,2.12.56.1,1.13.17,1.7.22,7.87.77,15.11-2.67,19.31-9.4,1.4-2.29,2.34-4.87,2.54-7.55.02-.22.06-.51.06-.73,0,0,.03-.73.03-.73,0-.2-.01-.52-.02-.73,0-.14-.01-.42-.02-.55Z"/>
    <path class="cls-1" d="M46.27,25.71c0-.19-.03-.59-.03-.78-.01-.36-.11-1-.14-1.35-.06-.35-.14-.8-.2-1.15-.09-.35-.22-.97-.33-1.32-.09-.27-.2-.66-.29-.93-.13-.34-.34-.93-.5-1.26-.12-.26-.28-.63-.4-.88-.12-.23-.42-.8-.54-1.03-.18-.3-.42-.69-.6-.99-.15-.21-.51-.74-.65-.96-.07-.09-.28-.37-.35-.46-2.34-3.05-5.52-5.47-9.06-6.97-.54-.24-1.23-.49-1.8-.68-.24-.07-.85-.26-1.11-.33,0,0-.75-.18-.75-.18-.43-.11-1.07-.22-1.51-.3-.37-.05-.77-.1-1.15-.15-.27-.03-.87-.06-1.15-.08-9.59-.33-17.68,5.18-19.79,14.72-1.48,6.52.57,13.73,5.2,18.51-3.03-2.83-5.16-6.63-6.01-11.06-.77-3.85-.22-7.93,1.45-11.47.94-2.01,2.23-3.86,3.75-5.48.19-.18.6-.61.79-.79.27-.24.55-.52.83-.75.22-.18.64-.54.86-.71,2.06-1.62,4.42-2.82,6.88-3.73.94-.36,1.89-.69,2.84-1.01.03-.01.05-.05.04-.08-.01-.03-.05-.06-.08-.05-1.94.55-3.87,1.15-5.73,1.96-1.39.6-2.74,1.37-3.98,2.24-2.93,2.05-5.37,4.82-6.97,8.02l-.33.7-.08.17c-.05.12-.16.41-.22.54-.59,1.42-.98,2.94-1.24,4.46-.61,4.1.19,8.35,2,12.05,3.66,7.78,11.85,12.14,20.32,11.8,6.37-.22,12.18-3.24,16.03-8.32,1.87-2.47,3.25-5.37,3.76-8.45l.11-.77s.07-.77.07-.77c.02-.24.06-.53.05-.77,0-.29.04-.87.01-1.17ZM45.2,26.1s-.03.73-.03.73c0,.22-.03.51-.06.73-.2,2.68-1.15,5.26-2.54,7.55-4.19,6.73-11.44,10.18-19.31,9.4-.58-.05-1.14-.13-1.7-.22,3.56.36,7.24-.37,10.37-2.12.03-.02.04-.06.03-.09-.02-.03-.06-.04-.09-.03-5.28,2.88-12.06,2.83-17.16-.41-7.67-4.9-10.76-15.32-7.34-23.7,3.16-7.88,10.75-11.78,19.03-11.14.21,0,.53.05.73.08.42.05,1.04.15,1.46.24.41.07,1.03.24,1.44.34.24.08.83.25,1.06.33.22.08.82.3,1.04.38.33.13.69.3,1.02.43,3.35,1.54,6.34,3.92,8.51,6.9.21.27.53.78.73,1.06.17.29.39.66.56.95.11.22.39.76.51.98.14.31.31.7.45,1.01.09.23.3.8.39,1.03.1.32.22.73.32,1.05.06.24.2.83.25,1.07.04.26.11.64.15.9.02.09.04.27.05.36.01.09.08.85.09.91,0,.13.02.41.02.55,0,.21.02.53.02.73Z"/>
  </g>
  <g>
    <path class="cls-1" d="M38.34,19.83c-.29-2.01-1.06-3.5-2.15-4.2-.99-.63-2-.5-2.98-.37-1.04.14-2.12.28-3.25-.54-.47-.34-.88-.79-1.27-1.23-.84-.93-1.7-1.89-3.24-2.06-.3-.03-.6-.03-.9,0-1.54.17-2.41,1.13-3.24,2.06-.39.44-.8.89-1.27,1.23-1.13.82-2.2.68-3.25.54-.98-.13-1.99-.26-2.97.37-1.1.7-1.86,2.19-2.15,4.2-.53,3.62.52,9.38,4.06,13.49,2.85,3.31,6.59,4.69,9.26,5.26h.14c2.61-.59,6.31-1.97,9.16-5.26,3.54-4.11,4.59-9.87,4.06-13.49ZM25.35,12.36c1.19.13,1.9.92,2.66,1.76.42.47.87.96,1.41,1.36,1.43,1.04,2.75.87,3.92.71.89-.12,1.65-.22,2.35.23.86.55,1.48,1.81,1.74,3.55.5,3.41-.49,8.86-3.85,12.75-2.66,3.08-6.12,4.38-8.57,4.93-2.45-.55-5.92-1.86-8.57-4.93-3.35-3.89-4.34-9.33-3.85-12.75.25-1.74.87-3,1.74-3.55.36-.23.74-.33,1.24-.33.35,0,.72.05,1.11.1,1.16.15,2.48.33,3.92-.71.54-.4.99-.89,1.41-1.36.75-.84,1.46-1.63,2.65-1.76.23-.03.47-.03.7,0Z"/>
    <path class="cls-1" d="M24.44,24.42c-4.15-.07-5.7.09-5.84.54l-.02.05.02.05c.1.23,3.32.38,5.82.46-.07,4.17.08,5.72.54,5.87l.05.02.05-.02c.23-.1.38-3.33.46-5.83.92.02,1.6.04,1.75.04.02,0,.03,0,.03,0,.27-.02.6-.02.94-.03,1.13-.02,2.42-.04,3.06-.43l.04-.03c.06-.07.07-.16.03-.24-.04-.09-.17-.35-2.33-.35-.05,0-.1,0-.15,0-.18.01-.87,0-1.73-.03-.58-.02-1.11-.03-1.61-.04.03-1.01.04-1.73.04-1.75-.02-.27-.02-.6-.03-.94-.02-1.13-.04-2.42-.43-3.06l-.04-.04c-.07-.06-.16-.07-.24-.03-.09.04-.36.17-.34,2.48.01.18,0,.87-.03,1.73-.02.57-.03,1.09-.04,1.59Z"/>
  </g>
</svg>