<?xml version="1.0" encoding="UTF-8"?>
<svg id="Pracowitość" xmlns="http://www.w3.org/2000/svg" viewBox="0 0 50 50">
  <defs>
    <style>
      .cls-1 {
        fill: #d34d47;
        stroke-width: 0px;
      }
    </style>
  </defs>
  <path class="cls-1" d="M46.38,25.32c0-.15-.01-.29-.02-.39,0-.23-.05-.58-.09-.89-.02-.18-.04-.34-.05-.48l-.21-1.16c-.03-.12-.07-.27-.11-.43-.07-.31-.16-.66-.23-.89l-.12-.4c-.06-.19-.12-.38-.17-.54-.05-.11-.1-.26-.16-.41-.11-.3-.24-.64-.34-.86l-.17-.38c-.08-.18-.16-.36-.23-.51l-.13-.25c-.14-.27-.32-.61-.41-.78l-.6-1-.19-.27c-.16-.24-.37-.54-.47-.69-.03-.04-.09-.11-.14-.19-.08-.1-.17-.22-.21-.27-2.35-3.06-5.5-5.48-9.11-7.01-.54-.24-1.22-.48-1.82-.69-.11-.03-.29-.09-.49-.15-.23-.07-.48-.15-.62-.19l-.75-.18c-.35-.09-.82-.18-1.24-.25l-.29-.05c-.27-.04-.56-.07-.84-.11l-.31-.04c-.16-.02-.44-.03-.7-.05-.17-.01-.34-.02-.46-.03-.29,0-.57-.01-.85-.01-9.62,0-17.06,5.75-19.07,14.83-1.12,4.93-.21,10.32,2.32,14.74-1.4-2.17-2.37-4.64-2.88-7.29-.75-3.77-.24-7.81,1.44-11.4.92-1.96,2.17-3.79,3.72-5.44.08-.08.21-.21.34-.34.17-.17.34-.34.44-.44.13-.11.25-.23.38-.35.15-.14.29-.27.44-.4.09-.07.21-.17.34-.28.19-.16.39-.33.53-.43,1.89-1.48,4.19-2.73,6.85-3.71.97-.37,1.97-.71,2.84-1.01.1-.03.15-.14.12-.23-.01-.05-.05-.09-.09-.12-.05-.02-.1-.03-.15-.02-2.17.62-3.98,1.19-5.74,1.96-1.38.6-2.72,1.36-4,2.26-3,2.09-5.42,4.88-7.01,8.07l-.41.88c-.02.06-.06.15-.1.25-.04.11-.09.22-.12.28-.55,1.32-.97,2.83-1.25,4.49-.59,3.95.12,8.26,2.01,12.13,3.44,7.3,11.02,11.89,19.5,11.89.31,0,.62,0,.94-.02,6.4-.22,12.27-3.28,16.12-8.37,1.99-2.63,3.3-5.57,3.78-8.5l.11-.78s.04-.45.06-.66v-.12c.02-.08.03-.17.03-.25.02-.18.04-.37.03-.53,0-.11,0-.25,0-.4,0-.27.02-.57,0-.77,0-.1,0-.24-.02-.39ZM45.07,25.85c0,.09,0,.17,0,.24l-.03.74c0,.18-.02.4-.04.6v.12c-.2,2.51-1.08,5.1-2.54,7.49-3.92,6.31-10.59,9.77-18.04,9.43,2.67-.16,5.28-.91,7.57-2.2.09-.05.12-.16.07-.26-.02-.04-.06-.08-.11-.09-.05-.02-.1,0-.15.02-5.36,2.92-12.04,2.76-17.03-.41-7.52-4.81-10.72-15.15-7.29-23.54,3-7.5,10.25-11.74,18.91-11.06.17,0,.41.04.61.06l.12.02c.41.04,1.02.15,1.45.24.28.05.66.14.99.23.16.04.31.08.43.11.11.04.31.1.5.15.22.06.44.13.55.17.22.08.82.3,1.04.38.17.06.34.14.51.22.17.08.34.15.5.21,3.4,1.56,6.33,3.93,8.46,6.86.14.18.33.47.5.72.08.12.16.24.22.33l.56.94.5.97.44,1,.38,1.02.32,1.04.25,1.06c.02.12.04.26.07.41.03.17.06.35.08.49.02.09.04.26.05.36,0,.04.02.23.04.42.01.11.02.22.03.31,0,.09.02.16.02.17,0,.05,0,.11,0,.18,0,0,0,0,0,.01,0,.07,0,.15,0,.22v.35c.02.09.02.18.02.27Z"/>
  <path class="cls-1" d="M35.28,35.36c-.22-1.17-.67-2.31-1.32-3.36l-.69-1.2c-.08-.13-.17-.28-.26-.44-.33-.6-.74-1.34-1.48-1.38h-.06c-.52.04-.97.28-1.41.52-.35.19-.67.36-.99.42-.28.05-.56.04-.86.02-.11,0-.21-.01-.32-.01-.04-.09-.08-.18-.12-.24-.52-.9-1.57-2.72-2.99-5.21l-.25-.44c-1.88-3.29-4.23-7.38-5.2-9.02.06-.17.11-.35.15-.48l.04-.16c.23-.84.39-1.52.16-2.02l-.06-.08c-.12-.16-.3-.24-.52-.24-.47,0-1.09.38-1.69.74l-.03.02c-.18.11-.35.21-.47.27-.19.11-.36.21-.57.33-.37.21-.76.43-1.1.67-.04.03-.06.05-.1.07-.2.15-.46.34-.53.71v.05c-.04.56.6.94,2.27,1.34.89,1.56,3.19,5.48,5.21,8.95l.57.97c1.25,2.14,2.34,3.99,2.83,4.83.03.06.07.12.12.18-.08.12-.15.26-.23.42-.18.35-.36.69-.66.91-.17.14-.38.27-.6.41-.36.23-.74.46-1,.77-.34.37-.38.88-.12,1.45.17.39.45.87.72,1.34v.02c.11.16.21.35.26.44.02.03.03.05.03.06h0l.2.34c.09.17.25.41.54.53.17.07.32.09.4.09.04,0,.08,0,.11,0,.18,0,.36-.03.53-.1.39-.12.86-.35,1.38-.62.95-.48,2.02-1.03,3.16-1.05h.06c1.12,0,2.02.39,2.74.71.91.4,1.62.71,2.14-.09.19-.29.17-.63.01-1.45ZM27.17,32.71c-.26-.06-.47-.2-.57-.37-.03-.05-.05-.1-.06-.16,0-.02,0-.04-.01-.08,0-.03-.01-.14,0-.25.03-.18.36-.69.91-.8.04,0,.11-.02.21-.02s.2.01.3.04c.11.03.2.08.25.12.12.1.18.35.16.6-.03.34-.19.64-.43.8-.21.13-.49.17-.77.11ZM25.66,33.58h.05s.08-.02.12-.03h.07s.09-.01.12-.01c.01,0,.02,0,.03,0v-.07s0,0,0,0l.02.08c.12,0,.22.01.34.03.11.01.21.02.31.03.1,0,.2,0,.31,0h.1c.37,0,.77-.14,1.18-.39.07-.05.13-.09.18-.13.29-.21.54-.47.72-.77.11-.18.18-.34.25-.5.03-.07.06-.13.08-.19l.06-.12s.02-.03.03-.05l.02-.04s.05-.07.07-.1c.03-.04.06-.08.09-.11.15-.15.31-.29.49-.41.21-.14.45-.27.7-.38.13-.05.25-.08.36-.1.08.01.16.06.24.14.09.1.18.24.24.34l.07.11c.18.33.38.68.56.98l.41.71c.17.29.33.58.47.85.22.43.38.82.5,1.17.15.44.22.91.21,1.4-.03-.01-.06-.03-.09-.04h-.02c-2.78-1.33-5.8-1.11-8.73.61-.15-.27-.31-.55-.47-.83-.08-.14-.15-.27-.22-.4l-.12-.22c-.13-.26-.21-.44-.23-.55,0-.06,0-.1,0-.12.02-.07.08-.13.15-.21.11-.1.25-.2.42-.3l.22-.13c.12-.06.25-.12.38-.17.05-.02.09-.03.13-.05h0s.02,0,.02,0c.06-.02.1-.03.15-.04ZM26.56,30.3c-.06-.1-.12-.21-.18-.31l-.02-.04c-.07-.11-.13-.22-.2-.34l-6.39-10.93c-.61-1.05-1.09-1.88-1.43-2.46.06-.02.11-.05.16-.08l7.93,13.79c.06.12.13.24.19.34l-.06.03ZM16.4,14.84c.33-.25.96-.61,1.42-.88.15-.09.29-.17.42-.25.07-.04.13-.07.18-.1-.02.13-.07.3-.12.51l-.02.06c-.11.41-.27.67-.51.79-.29.15-.75.1-1.38-.13Z"/>
</svg>