<?xml version="1.0" encoding="UTF-8"?>
<svg id="Pracowitość" xmlns="http://www.w3.org/2000/svg" viewBox="0 0 50 50">
  <defs>
    <style>
      .cls-1 {
        fill: #d55554;
      }

      .cls-1, .cls-2, .cls-3 {
        stroke-width: 0px;
      }

      .cls-2, .cls-3 {
        fill: none;
      }

      .cls-3 {
        stroke: #d55554;
        stroke-linecap: round;
        stroke-linejoin: round;
      }
    </style>
  </defs>
  <path class="cls-2" d="M22.98,31.88c.07.11.14.23.2.34h0c.06-.04.12-.08.19-.11-.06-.1-.12-.21-.19-.34l-7.1-12.36c-.3-.52-.59-1.02-.87-1.5-.09.06-.19.11-.3.14.37.62.88,1.5,1.48,2.54l6.39,10.93c.06.12.13.23.2.35Z"/>
  <path class="cls-2" d="M14.49,16.92c.26-.13.43-.4.55-.84v-.05c.05-.14.14-.46.16-.66-.07.02-.17.07-.31.15-.12.07-.27.16-.42.24-.55.32-1.23.71-1.52.95,0,0-.01,0-.02.01,0,0,0,0,0,0,.71.28,1.22.34,1.56.17Z"/>
  <path class="cls-3" d="M23.5,40.94s.01.01.02.02"/>
  <path class="cls-1" d="M30.32,35.99h.06c1.16,0,2.08.4,2.82.72.99.43,1.49.61,1.9-.01.15-.23.13-.54-.01-1.3-.22-1.15-.65-2.26-1.3-3.3l-.68-1.19c-.09-.13-.17-.29-.26-.45-.31-.55-.69-1.24-1.31-1.28h-.04c-.48.04-.91.27-1.33.49-.37.2-.71.38-1.05.44-.31.06-.6.04-.91.02-.12,0-.24-.01-.37-.02h-.09s-.03-.08-.03-.08c-.04-.09-.08-.19-.12-.25-.54-.93-1.67-2.91-2.99-5.21-1.88-3.29-4.46-7.8-5.47-9.49l-.03-.05.02-.06c.06-.17.11-.34.15-.5l.04-.16c.21-.78.37-1.44.18-1.85l-.04-.07c-.09-.11-.22-.16-.37-.16-.41,0-1,.36-1.58.71l-.03.02c-.19.11-.36.22-.47.27-.19.11-.37.21-.54.31-.39.22-.77.44-1.11.67-.04.03-.07.05-.1.07-.2.15-.4.3-.46.58v.04c-.03.44.59.77,2.15,1.14h.05s.03.06.03.06c.96,1.69,3.76,6.46,5.8,9.95,1.26,2.14,2.34,3.99,2.83,4.84.03.06.08.13.12.19l.06.07-.05.08c-.09.15-.17.3-.25.45-.2.38-.38.73-.72.98-.19.15-.4.28-.62.42-.36.22-.71.44-.96.73-.28.31-.31.74-.08,1.23.17.38.45.87.72,1.34.13.23.29.5.29.5.13.22.19.34.2.34.32.55.74.63,1.34.44l.13-.08-.13.08c.38-.12.82-.34,1.35-.61.97-.5,2.06-1.06,3.25-1.07ZM28.02,30.88c.09.03.23.08.32.16.17.15.26.44.23.77-.03.4-.23.76-.52.95-.18.11-.39.17-.62.17-.1,0-.21-.01-.31-.04-.31-.07-.57-.25-.69-.47-.04-.07-.07-.14-.08-.22,0-.02-.01-.05-.01-.09,0,0-.02-.16,0-.31.04-.23.4-.83,1.07-.96.08-.01.32-.06.61.03ZM17.36,15.26c-.31,0-.69-.09-1.15-.27l-.18-.07.15-.16c.31-.25.99-.65,1.54-.96.16-.09.3-.17.42-.25.13-.08.24-.13.33-.16l.19-.07-.02.2c-.02.2-.11.53-.15.68v.05c-.13.47-.33.77-.62.92-.14.07-.31.11-.51.11ZM26.39,30.4c-.06-.1-.12-.21-.18-.31l-.02-.03c-.07-.12-.14-.23-.21-.35l-6.39-10.93c-.63-1.09-1.12-1.95-1.47-2.54l-.08-.13.14-.05c.1-.04.19-.08.27-.13l.11-.07.93,1.61,7.1,12.36c.07.13.13.24.19.34M25.45,33.43c.07-.02.12-.03.17-.04h.05s.09-.03.14-.03h.08c.06-.01.1-.01.15-.01,0,0,.03,0,.05,0,.12,0,.23.01.34.03.11.01.21.02.32.03.09,0,.18,0,.28,0h.12c.33,0,.7-.13,1.07-.35.07-.05.12-.09.18-.13.27-.2.5-.44.67-.71.1-.17.17-.33.24-.48.03-.08.07-.15.1-.23l.04-.08s.03-.05.04-.07c0-.01.02-.03.03-.04.03-.05.05-.08.07-.11.03-.04.07-.09.11-.13.15-.16.33-.3.52-.44.23-.15.48-.29.75-.41.15-.05.28-.09.4-.11h.02s.02,0,.02,0c.13.02.26.08.38.21.09.11.18.24.27.37l.07.12c.18.33.39.68.58,1.01l.39.68c.17.29.33.58.48.86.22.44.39.83.52,1.2.17.5.24,1.03.22,1.59v.19s-.22-.11-.22-.11c-.05-.02-.1-.05-.15-.07h0c-2.75-1.31-5.73-1.08-8.63.64l-.11.07-.06-.11c-.16-.29-.33-.6-.51-.9-.07-.14-.15-.27-.22-.39l-.13-.23c-.14-.28-.22-.47-.25-.62,0-.08,0-.15.01-.21.04-.1.1-.19.21-.29.12-.11.28-.22.45-.32l.23-.13c.13-.07.26-.13.38-.17.05-.02.11-.04.16-.06"/>
  <g>
    <path class="cls-2" d="M45.16,24.82c-.01-.06-.08-.82-.09-.91,0-.09-.03-.27-.05-.36-.04-.26-.11-.64-.15-.9-.06-.24-.2-.83-.25-1.07-.1-.32-.22-.73-.32-1.05-.09-.23-.3-.8-.39-1.03-.14-.31-.31-.7-.45-1.01-.11-.22-.39-.76-.51-.98-.17-.29-.39-.66-.56-.95-.2-.28-.52-.79-.73-1.06-2.18-2.98-5.16-5.36-8.51-6.9-.33-.13-.69-.3-1.02-.43-.23-.08-.82-.3-1.04-.38-.23-.08-.82-.25-1.06-.33-.41-.1-1.03-.27-1.44-.34-.42-.09-1.03-.19-1.46-.24-.21-.03-.52-.07-.73-.08-8.28-.65-15.87,3.25-19.03,11.14-3.42,8.38-.33,18.79,7.34,23.7,5.1,3.24,11.88,3.29,17.16.41.03-.02.07,0,.09.03.02.03,0,.07-.03.09-3.13,1.76-6.81,2.49-10.37,2.12.56.1,1.13.17,1.7.22,7.87.77,15.11-2.67,19.31-9.4,1.4-2.29,2.34-4.87,2.54-7.55.02-.22.06-.51.06-.73,0,0,.03-.73.03-.73,0-.2-.01-.52-.02-.73,0-.14-.01-.42-.02-.55Z"/>
    <path class="cls-1" d="M46.27,25.71c0-.19-.03-.59-.03-.78-.01-.36-.11-1-.14-1.35-.06-.35-.14-.8-.2-1.15-.09-.35-.22-.97-.33-1.32-.09-.27-.2-.66-.29-.93-.13-.34-.34-.93-.5-1.26-.12-.26-.28-.63-.4-.88-.12-.23-.42-.8-.54-1.03-.18-.3-.42-.69-.6-.99-.15-.21-.51-.74-.65-.96-.07-.09-.28-.37-.35-.46-2.34-3.05-5.52-5.47-9.06-6.97-.54-.24-1.23-.49-1.8-.68-.24-.07-.85-.26-1.11-.33,0,0-.75-.18-.75-.18-.43-.11-1.07-.22-1.51-.3-.37-.05-.77-.1-1.15-.15-.27-.03-.87-.06-1.15-.08-9.59-.33-17.68,5.18-19.79,14.72-1.48,6.52.57,13.73,5.2,18.51-3.03-2.83-5.16-6.63-6.01-11.06-.77-3.85-.22-7.93,1.45-11.47.94-2.01,2.23-3.86,3.75-5.48.19-.18.6-.61.79-.79.27-.24.55-.52.83-.75.22-.18.64-.54.86-.71,2.06-1.62,4.42-2.82,6.88-3.73.94-.36,1.89-.69,2.84-1.01.03-.01.05-.05.04-.08-.01-.03-.05-.06-.08-.05-1.94.55-3.87,1.15-5.73,1.96-1.39.6-2.74,1.37-3.98,2.24-2.93,2.05-5.37,4.82-6.97,8.02l-.33.7-.08.17c-.05.12-.16.41-.22.54-.59,1.42-.98,2.94-1.24,4.46-.61,4.1.19,8.35,2,12.05,3.66,7.78,11.85,12.14,20.32,11.8,6.37-.22,12.18-3.24,16.03-8.32,1.87-2.47,3.25-5.37,3.76-8.45l.11-.77s.07-.77.07-.77c.02-.24.06-.53.05-.77,0-.29.04-.87.01-1.17ZM45.2,26.1s-.03.73-.03.73c0,.22-.03.51-.06.73-.2,2.68-1.15,5.26-2.54,7.55-4.19,6.73-11.44,10.18-19.31,9.4-.58-.05-1.14-.13-1.7-.22,3.56.36,7.24-.37,10.37-2.12.03-.02.04-.06.03-.09-.02-.03-.06-.04-.09-.03-5.28,2.88-12.06,2.83-17.16-.41-7.67-4.9-10.76-15.32-7.34-23.7,3.16-7.88,10.75-11.78,19.03-11.14.21,0,.53.05.73.08.42.05,1.04.15,1.46.24.41.07,1.03.24,1.44.34.24.08.83.25,1.06.33.22.08.82.3,1.04.38.33.13.69.3,1.02.43,3.35,1.54,6.34,3.92,8.51,6.9.21.27.53.78.73,1.06.17.29.39.66.56.95.11.22.39.76.51.98.14.31.31.7.45,1.01.09.23.3.8.39,1.03.1.32.22.73.32,1.05.06.24.2.83.25,1.07.04.26.11.64.15.9.02.09.04.27.05.36.01.09.08.85.09.91,0,.13.02.41.02.55,0,.21.02.53.02.73Z"/>
  </g>
</svg>