<?xml version="1.0" encoding="UTF-8"?>
<svg id="Poszanowanie_prywatności" data-name="Poszanowanie prywatności" xmlns="http://www.w3.org/2000/svg" viewBox="0 0 50 50">
  <defs>
    <style>
      .cls-1, .cls-2 {
        stroke-width: 0px;
      }

      .cls-1, .cls-3 {
        fill: #d55554;
      }

      .cls-2 {
        fill: none;
      }

      .cls-3 {
        stroke: #d55554;
        stroke-miterlimit: 10;
        stroke-width: .25px;
      }
    </style>
  </defs>
  <g>
    <path class="cls-2" d="M45.16,24.82c-.01-.06-.08-.82-.09-.91,0-.09-.03-.27-.05-.36-.04-.26-.11-.64-.15-.9-.06-.24-.2-.83-.25-1.07-.1-.32-.22-.73-.32-1.05-.09-.23-.3-.8-.39-1.03-.14-.31-.31-.7-.45-1.01-.11-.22-.39-.76-.51-.98-.17-.29-.39-.66-.56-.95-.2-.28-.52-.79-.73-1.06-2.18-2.98-5.16-5.36-8.51-6.9-.33-.13-.69-.3-1.02-.43-.23-.08-.82-.3-1.04-.38-.23-.08-.82-.25-1.06-.33-.41-.1-1.03-.27-1.44-.34-.42-.09-1.03-.19-1.46-.24-.21-.03-.52-.07-.73-.08-8.28-.65-15.87,3.25-19.03,11.14-3.42,8.38-.33,18.79,7.34,23.7,5.1,3.24,11.88,3.29,17.16.41.03-.02.07,0,.09.03.02.03,0,.07-.03.09-3.13,1.76-6.81,2.49-10.37,2.12.56.1,1.13.17,1.7.22,7.87.77,15.11-2.67,19.31-9.4,1.4-2.29,2.34-4.87,2.54-7.55.02-.22.06-.51.06-.73,0,0,.03-.73.03-.73,0-.2-.01-.52-.02-.73,0-.14-.01-.42-.02-.55Z"/>
    <path class="cls-1" d="M46.27,25.71c0-.19-.03-.59-.03-.78-.01-.36-.11-1-.14-1.35-.06-.35-.14-.8-.2-1.15-.09-.35-.22-.97-.33-1.32-.09-.27-.2-.66-.29-.93-.13-.34-.34-.93-.5-1.26-.12-.26-.28-.63-.4-.88-.12-.23-.42-.8-.54-1.03-.18-.3-.42-.69-.6-.99-.15-.21-.51-.74-.65-.96-.07-.09-.28-.37-.35-.46-2.34-3.05-5.52-5.47-9.06-6.97-.54-.24-1.23-.49-1.8-.68-.24-.07-.85-.26-1.11-.33,0,0-.75-.18-.75-.18-.43-.11-1.07-.22-1.51-.3-.37-.05-.77-.1-1.15-.15-.27-.03-.87-.06-1.15-.08-9.59-.33-17.68,5.18-19.79,14.72-1.48,6.52.57,13.73,5.2,18.51-3.03-2.83-5.16-6.63-6.01-11.06-.77-3.85-.22-7.93,1.45-11.47.94-2.01,2.23-3.86,3.75-5.48.19-.18.6-.61.79-.79.27-.24.55-.52.83-.75.22-.18.64-.54.86-.71,2.06-1.62,4.42-2.82,6.88-3.73.94-.36,1.89-.69,2.84-1.01.03-.01.05-.05.04-.08-.01-.03-.05-.06-.08-.05-1.94.55-3.87,1.15-5.73,1.96-1.39.6-2.74,1.37-3.98,2.24-2.93,2.05-5.37,4.82-6.97,8.02l-.33.7-.08.17c-.05.12-.16.41-.22.54-.59,1.42-.98,2.94-1.24,4.46-.61,4.1.19,8.35,2,12.05,3.66,7.78,11.85,12.14,20.32,11.8,6.37-.22,12.18-3.24,16.03-8.32,1.87-2.47,3.25-5.37,3.76-8.45l.11-.77s.07-.77.07-.77c.02-.24.06-.53.05-.77,0-.29.04-.87.01-1.17ZM45.2,26.1s-.03.73-.03.73c0,.22-.03.51-.06.73-.2,2.68-1.15,5.26-2.54,7.55-4.19,6.73-11.44,10.18-19.31,9.4-.58-.05-1.14-.13-1.7-.22,3.56.36,7.24-.37,10.37-2.12.03-.02.04-.06.03-.09-.02-.03-.06-.04-.09-.03-5.28,2.88-12.06,2.83-17.16-.41-7.67-4.9-10.76-15.32-7.34-23.7,3.16-7.88,10.75-11.78,19.03-11.14.21,0,.53.05.73.08.42.05,1.04.15,1.46.24.41.07,1.03.24,1.44.34.24.08.83.25,1.06.33.22.08.82.3,1.04.38.33.13.69.3,1.02.43,3.35,1.54,6.34,3.92,8.51,6.9.21.27.53.78.73,1.06.17.29.39.66.56.95.11.22.39.76.51.98.14.31.31.7.45,1.01.09.23.3.8.39,1.03.1.32.22.73.32,1.05.06.24.2.83.25,1.07.04.26.11.64.15.9.02.09.04.27.05.36.01.09.08.85.09.91,0,.13.02.41.02.55,0,.21.02.53.02.73Z"/>
  </g>
  <g>
    <path class="cls-3" d="M20.53,35.75c-.45,0-.9,0-1.34-.02-.85-.04-2.25-.11-2.48-1.68-.13-.74-.13-1.44-.13-2.17,0-.18,0-.37,0-.55,0-.7,0-1.45,0-2.2,0-.67,0-1.35,0-1.98,0-.47,0-.89,0-1.29,0-.78-.01-1.51.06-2.33.15-1.64,1.37-1.92,2.44-2.16l.18-.04.16.7-.19.04c-1.17.26-1.79.45-1.88,1.52-.07.79-.06,1.47-.06,2.26,0,.41,0,.83,0,1.3,0,.63,0,1.3,0,1.98,0,.75,0,1.5,0,2.2,0,.19,0,.38,0,.56,0,.7,0,1.37.12,2.05h0c.12.86.65,1.02,1.79,1.08.65.02,1.31.02,2.01.01.38,0,.77,0,1.16,0h4.49c.56,0,1.07,0,1.55,0,.74,0,1.45,0,2.19,0,1.28-.05,1.85-.17,1.98-1.13v-.02c.11-.66.11-1.3.11-1.99,0-.16,0-.32,0-.48v-5.15c0-.25,0-.49,0-.71,0-.53,0-.99-.01-1.4-.01-.99-.27-1.56-.8-1.76h-.01c-.34-.15-.71-.22-1.1-.3-.1-.02-.21-.04-.31-.07l.15-.71c.1.02.2.04.3.06.41.08.83.17,1.23.34.82.32,1.25,1.13,1.26,2.42.01.42.01.88.01,1.42,0,.23,0,.46,0,.71v5.15c0,.16,0,.32,0,.47,0,.71,0,1.39-.12,2.1-.21,1.66-1.64,1.72-2.67,1.75-.76.01-1.46,0-2.21,0-.48,0-.98,0-1.54,0h-4.49c-.39,0-.78,0-1.16,0-.24,0-.47,0-.69,0Z"/>
    <path class="cls-3" d="M23.29,23.17c-.98,0-1.95-.01-2.85-.05-.56-.04-.98-.25-1.27-.62-.64-.82-.4-2.22-.24-3.15v-.04c.55-3.17,3.4-5.34,6.64-5.03,2.72.19,4.97,2.21,5.47,4.91.11.5.43,2.25-.06,3.12v.02c-.54.85-1.48.84-2.38.83-.23,0-.46,0-.7,0h0s0,0,0,0c-.88-.01-1.81,0-2.8,0-.59,0-1.2,0-1.79,0ZM24.97,14.97c-2.64,0-4.87,1.84-5.32,4.46v.04c-.14.8-.35,2.02.09,2.59.16.21.4.32.75.34,1.41.06,3.03.05,4.59.04.99,0,1.92-.01,2.8,0,.25,0,.49,0,.73,0,.91,0,1.44,0,1.74-.48h0c.28-.49.18-1.7-.02-2.62-.44-2.39-2.43-4.16-4.82-4.33-.18-.02-.36-.03-.54-.03Z"/>
    <path class="cls-3" d="M24.98,32.71c-.13,0-.25-.02-.38-.05-.72-.2-1.18-.89-1.12-1.68,0-.32,0-.78,0-1.21,0-.29,0-.56,0-.76,0-.26,0-.36-.08-.48-.39-.48-.89-1.23-.71-2.17.27-1.45,1.48-2.02,2.5-1.94,1.01.08,2.12.83,2.17,2.3v.04c0,.42-.12.83-.33,1.19-.1.18-.22.32-.33.44-.14.15-.22.25-.25.37-.02.29-.01.61-.01.93,0,.21,0,.43,0,.63,0,.13,0,.25,0,.37,0,.39.01.79-.16,1.15-.28.56-.76.88-1.3.88ZM24.99,25.14c-.69,0-1.42.41-1.6,1.36-.09.51.08.98.57,1.59l.02.02c.23.33.22.64.22.92,0,.19,0,.46,0,.75,0,.43,0,.9,0,1.22v.03c-.04.52.28.85.59.94.34.09.66-.07.84-.44.09-.2.09-.5.08-.82,0-.13,0-.26,0-.4,0-.19,0-.41,0-.61,0-.34,0-.69.01-1v-.05c.07-.32.26-.54.43-.73.09-.11.18-.21.25-.32.15-.26.23-.54.23-.83v-.02c-.04-1.03-.78-1.55-1.51-1.6-.04,0-.09,0-.13,0Z"/>
    <path class="cls-3" d="M23.83,21.71c-.67,0-1.33,0-1.94-.03-.38-.03-.67-.16-.87-.39-.44-.52-.27-1.4-.17-1.98v-.02c.37-2,2.31-3.36,4.52-3.16,1.85.12,3.38,1.39,3.73,3.09.07.32.3,1.41-.04,1.96h0c-.36.55-1,.54-1.61.54-.16,0-.32,0-.48,0h0s0,0,0,0c-.6,0-1.23,0-1.9,0-.4,0-.81,0-1.22,0ZM24.97,16.56c-1.8,0-3.32,1.16-3.62,2.8v.02c-.1.5-.24,1.27.06,1.63.11.13.28.2.51.22.96.04,2.06.03,3.13.03.67,0,1.31,0,1.91,0,.17,0,.34,0,.5,0,.62,0,.98,0,1.18-.3h0c.19-.31.13-1.07-.01-1.65-.3-1.5-1.65-2.62-3.28-2.72-.12-.01-.25-.02-.37-.02Z"/>
  </g>
</svg>