<?xml version="1.0" encoding="UTF-8"?>
<svg id="Poszanowanie_prywatności" data-name="Poszanowanie prywatności" xmlns="http://www.w3.org/2000/svg" viewBox="0 0 50 50">
  <defs>
    <style>
      .cls-1 {
        fill: #d34d47;
        stroke-width: 0px;
      }
    </style>
  </defs>
  <path class="cls-1" d="M46.38,25.32c0-.15-.01-.29-.02-.39,0-.23-.05-.58-.09-.89-.02-.18-.04-.34-.05-.48l-.21-1.16c-.03-.12-.07-.27-.11-.43-.07-.31-.16-.66-.23-.89l-.12-.4c-.06-.19-.12-.38-.17-.54-.05-.11-.1-.26-.16-.41-.11-.3-.24-.64-.34-.86l-.17-.38c-.08-.18-.16-.36-.23-.51l-.13-.25c-.14-.27-.32-.61-.41-.78l-.6-1-.19-.27c-.16-.24-.37-.54-.47-.69-.03-.04-.09-.11-.14-.19-.08-.1-.17-.22-.21-.27-2.35-3.06-5.5-5.48-9.11-7.01-.54-.24-1.22-.48-1.82-.69-.11-.03-.29-.09-.49-.15-.23-.07-.48-.15-.62-.19l-.75-.18c-.35-.09-.82-.18-1.24-.25l-.29-.05c-.27-.04-.56-.07-.84-.11l-.31-.04c-.16-.02-.44-.03-.7-.05-.17-.01-.34-.02-.46-.03-.29,0-.57-.01-.85-.01-9.62,0-17.06,5.75-19.07,14.83-1.12,4.93-.21,10.32,2.32,14.74-1.4-2.17-2.37-4.64-2.88-7.29-.75-3.77-.24-7.81,1.44-11.4.92-1.96,2.17-3.79,3.72-5.44.08-.08.21-.21.34-.34.17-.17.34-.34.44-.44.13-.11.25-.23.38-.35.15-.14.29-.27.44-.4.09-.07.21-.17.34-.28.19-.16.39-.33.53-.43,1.89-1.48,4.19-2.73,6.85-3.71.97-.37,1.97-.71,2.84-1.01.1-.03.15-.14.12-.23-.01-.05-.05-.09-.09-.12-.04-.02-.1-.03-.15-.02-2.17.62-3.98,1.19-5.74,1.96-1.38.6-2.72,1.36-4,2.26-3,2.09-5.42,4.88-7.01,8.07l-.41.88c-.02.06-.06.15-.1.25-.04.11-.09.22-.12.28-.55,1.32-.97,2.83-1.25,4.49-.59,3.95.12,8.26,2.01,12.13,3.44,7.3,11.02,11.89,19.5,11.89.31,0,.62,0,.94-.02,6.4-.22,12.27-3.28,16.12-8.37,1.99-2.63,3.3-5.57,3.78-8.5l.11-.78s.04-.45.06-.66v-.12c.02-.08.03-.17.03-.25.02-.18.04-.37.03-.53,0-.11,0-.25,0-.4,0-.27.02-.57,0-.77,0-.1,0-.24-.02-.39ZM45.07,25.85c0,.09,0,.17,0,.24l-.03.74c0,.18-.02.4-.04.6v.12c-.2,2.51-1.08,5.1-2.54,7.49-3.92,6.31-10.59,9.77-18.04,9.43,2.67-.16,5.28-.91,7.57-2.2.09-.05.12-.16.07-.26-.02-.04-.06-.08-.11-.09-.05-.02-.1,0-.15.02-5.36,2.92-12.04,2.76-17.03-.41-7.52-4.81-10.72-15.15-7.29-23.54,3-7.5,10.25-11.74,18.91-11.06.17,0,.41.04.61.06l.12.02c.41.04,1.02.15,1.45.24.28.05.66.14.99.23.16.04.31.08.43.11.11.04.31.1.5.15.22.06.44.13.55.17.22.08.82.3,1.04.38.17.06.34.14.51.22.17.08.34.15.5.21,3.4,1.56,6.33,3.93,8.46,6.86.14.18.33.47.5.72.08.12.16.24.22.33l.56.94.5.97.44,1,.38,1.02.32,1.04.25,1.06c.02.12.04.26.07.41.03.17.06.35.08.49.02.09.04.26.05.36,0,.04.02.23.04.42.01.11.02.22.03.31,0,.09.02.16.02.17,0,.05,0,.11,0,.18,0,0,0,0,0,.01,0,.07,0,.15,0,.22v.35c.02.09.02.18.02.27Z"/>
  <g>
    <path class="cls-1" d="M33.66,24.13c-.02-1.4-.49-2.29-1.42-2.64-.26-.11-.52-.18-.77-.24.05-.89-.14-1.83-.2-2.11-.52-2.81-2.87-4.91-5.69-5.11-3.38-.32-6.34,1.94-6.9,5.24v.04c-.09.5-.22,1.24-.18,1.93-.99.26-1.98.75-2.12,2.26-.08.83-.07,1.57-.06,2.36,0,.4,0,.82,0,1.29v4.19c0,.11,0,.21,0,.31v.24c0,.74,0,1.45.13,2.21.26,1.77,1.92,1.85,2.72,1.89.45.01.89.01,1.35.01h.7c.38,0,.77,0,1.16,0h4.49c.56,0,1.06,0,1.54,0,.75,0,1.46,0,2.22,0,1-.04,2.67-.1,2.91-1.96.12-.73.12-1.42.12-2.14v-6.36c0-.53,0-.99-.01-1.39ZM17.55,25.85c0-.78-.01-1.46.05-2.24.07-.75.42-.98,1.21-1.19.04.07.09.16.15.23.33.43.82.67,1.46.72.77.04,1.68.05,2.86.05.6,0,1.2,0,1.8,0h.06c.96,0,1.87-.01,2.76,0,.21,0,.42,0,.62,0h.09c.93.01,1.96.02,2.57-.95v-.02c.21.05.42.1.62.19.42.16.63.66.64,1.54.01.4.01.85.01,1.39v6.34c0,.67,0,1.3-.11,1.97-.09.71-.38.86-1.73.91-.74,0-1.44,0-2.19,0-.48,0-.99,0-1.55,0h-4.49c-.39,0-.78,0-1.17,0-.7,0-1.36,0-1.99-.01-1.24-.06-1.47-.27-1.56-.87-.12-.66-.12-1.31-.12-2v-.56s0-4.17,0-4.17c0-.47,0-.9,0-1.31ZM30.13,21.82c-.21.33-.53.37-1.52.36-.24,0-.49,0-.73,0-.9-.01-1.83,0-2.81,0-1.55.01-3.16.02-4.57-.04-.27-.02-.45-.1-.57-.25-.38-.48-.18-1.63-.05-2.39v-.04c.43-2.46,2.56-4.25,5.08-4.25.17,0,.35,0,.52.02,2.28.16,4.17,1.86,4.6,4.14.23,1.04.25,2.09.05,2.44Z"/>
    <path class="cls-1" d="M23.22,29.66h0c0,.2,0,.47,0,.76,0,.43,0,.89,0,1.19-.06.91.47,1.7,1.3,1.93.15.04.3.06.45.06.64,0,1.21-.38,1.53-1.02.19-.4.18-.83.18-1.26,0-.12,0-.24,0-.37,0-.21,0-.43,0-.64v-.04c0-.3,0-.6,0-.82.01-.06.08-.14.19-.26.11-.12.25-.28.36-.48.24-.4.36-.85.37-1.32v-.04c-.05-1.63-1.28-2.46-2.4-2.54-1.16-.1-2.48.61-2.76,2.15-.19,1.04.34,1.85.75,2.35.03.05.04.1.04.34ZM25.48,29.25v.06c-.03.32-.02.65-.02,1.02,0,.2,0,.41,0,.6,0,.14,0,.28,0,.42,0,.28,0,.56-.06.7-.09.19-.26.39-.55.31-.22-.06-.44-.3-.41-.69v-.04c0-.32,0-.79,0-1.22,0-.29,0-.56,0-.74,0-.28.02-.67-.27-1.07l-.02-.03c-.44-.54-.6-.96-.52-1.38.16-.85.83-1.16,1.36-1.16.04,0,.08,0,.11,0,.61.05,1.25.49,1.28,1.37,0,.25-.07.49-.2.71-.05.1-.13.19-.22.28-.17.19-.4.45-.48.86Z"/>
    <path class="cls-1" d="M25.4,15.72c-2.33-.2-4.39,1.26-4.79,3.39-.12.63-.29,1.58.22,2.19.24.29.59.45,1.05.48.53.02,1.15.03,1.95.03.41,0,.82,0,1.22,0h.17c.6,0,1.18,0,1.75,0,.13,0,.26,0,.39,0h.08c.65,0,1.38.01,1.83-.66.38-.61.18-1.7.07-2.14-.36-1.81-1.99-3.16-3.95-3.28ZM28.43,20.66c-.12.18-.34.2-.99.19-.15,0-.32,0-.47,0-.6,0-1.24,0-1.91,0h-.07c-.98,0-2.09.01-3.03-.03-.16-.01-.27-.05-.33-.13-.23-.27-.09-1,0-1.44.28-1.51,1.7-2.6,3.38-2.6.11,0,.23,0,.35.02,1.52.1,2.78,1.14,3.06,2.53.15.62.17,1.25.05,1.45Z"/>
  </g>
</svg>