<?xml version="1.0" encoding="UTF-8"?>
<svg id="Rodzina" xmlns="http://www.w3.org/2000/svg" viewBox="0 0 50 50">
  <defs>
    <style>
      .cls-1 {
        fill: #d34d47;
        stroke-width: 0px;
      }
    </style>
  </defs>
  <path class="cls-1" d="M34.76,19.78h0s-.08-.1-.08-.1c-.22-.24-.46-.47-.73-.67-.91-.68-2.05-1.05-3.23-1.06-1.16,0-2.32.35-3.27,1-.52.35-1.03.79-1.5,1.29-.21.23-.42.47-.6.68l-.07.08c-.1.12-.21.24-.33.36-.04-.04-.07-.08-.1-.11-.15-.18-.3-.36-.46-.56-.17-.22-.41-.52-.65-.79-.91-.98-1.93-1.62-3.02-1.89-1.13-.28-2.32-.21-3.34.2-1.08.44-1.94,1.14-2.51,2.05-.51.83-.8,1.85-.79,2.9,0,1,.26,2,.79,3.06.46.92,1.12,1.83,2.08,2.88.58.64,1.22,1.25,1.83,1.84l.06.06c.19.18.38.36.56.55l.23.23c.34.33.69.67,1.01,1.02.36.38.71.8,1.06,1.23l.23.29c.09.12.18.24.27.35.16.22.33.45.49.68.32.46.62.93.93,1.44.28.45.58.95.91,1.53.08.14.22.25.4.29.05.01.1.02.15.02.07,0,.14-.01.2-.03.15-.05.27-.15.34-.28.71-1.24,1.29-2.17,1.88-3.02.17-.25.33-.47.49-.68.08-.1.15-.2.23-.3,0,0,.01-.01.01-.01l.23-.29c.35-.43.72-.86,1.1-1.26.52-.56,1.08-1.09,1.62-1.61l.08-.07c.25-.24.52-.5.78-.75l.03-.03c1.02-1,1.85-1.94,2.33-2.63,1.34-1.92,1.91-4.41,1.38-6.07-.27-.83-.75-1.52-.98-1.79ZM26.42,21.59l.02-.03c.09-.1.18-.21.27-.31.21-.23.42-.44.62-.63.21-.2.4-.35.64-.52.2-.15.42-.28.64-.39.06-.03.12-.06.18-.08l.11-.05c.14-.05.25-.1.36-.13.24-.08.49-.14.74-.18l.13-.02s.1-.01.15-.02c.26-.02.55-.02.76,0,.05,0,.11,0,.15.01l.15.02c.25.04.5.1.73.18.06.02.11.04.16.06l.08.03h.03c.13.07.25.13.36.19.22.12.41.24.57.36.01.01.02.02.04.04.02.01.03.02.05.04.04.04.09.07.13.11.08.07.16.15.24.24.06.07.12.14.18.21l.02.03s.02.03.05.06c.04.05.07.1.11.16.11.18.21.36.3.55l.09.23c.04.11.07.21.1.31.03.11.05.22.08.33,0,.04.02.09.02.13v.08s.02.03.02.04c.03.25.04.46.03.66,0,.09,0,.2-.01.31,0,.06,0,.11-.01.17v.09c-.05.24-.09.46-.15.67-.05.19-.12.39-.23.66l-.04.1c-.02.06-.05.11-.08.17-.05.11-.11.23-.18.36-.24.45-.53.9-.89,1.39l-.2.25c-.1.12-.19.24-.29.35-.17.2-.36.41-.55.61-.56.6-1.17,1.19-1.73,1.73-.23.22-.45.44-.68.66l-.26.25c-.29.29-.65.64-.98,1-.04.05-.08.1-.12.14h-.01c-.29-.15-.46-.32-.49-.48-.07-.31.43-.8,1.07-1.43.55-.54,1.23-1.21,1.84-2.09.75-1.09,1.29-2.34,1.59-3.71l.05-.22-1.17-.26-.05.22c-.27,1.23-.75,2.33-1.41,3.29-.16.22-.32.44-.53.68-1.27-.56-2.6-.88-3.95-.94-.17,0-.34-.01-.5-.01-1.42,0-2.81.27-4.15.81-.15-.19-.28-.36-.4-.54-.66-.96-1.14-2.07-1.41-3.29l-.05-.22-1.17.26.05.22c.31,1.38.84,2.63,1.59,3.71.61.88,1.29,1.55,1.83,2.09l.03.03c.62.61,1.12,1.1,1.05,1.41-.03.14-.17.29-.41.44l-.03-.03s-.08-.09-.12-.13c-.56-.61-1.17-1.19-1.75-1.74-.23-.22-.46-.44-.68-.66-.46-.45-.86-.85-1.2-1.22-.2-.21-.39-.43-.56-.63-.09-.11-.18-.22-.27-.33-.04-.04-.07-.09-.12-.14l-.1-.13c-.35-.46-.64-.9-.88-1.35-.06-.12-.12-.24-.18-.36l-.13-.31c-.1-.26-.18-.46-.23-.65-.05-.2-.1-.41-.14-.68l-.02-.21c0-.11-.02-.22-.02-.34,0-.22,0-.44.03-.66v-.05s0-.02.01-.04c0-.04.01-.09.02-.13.02-.11.05-.23.08-.35.03-.1.06-.2.09-.29.02-.05.04-.1.07-.18l.03-.09c.07-.17.17-.35.29-.55.05-.08.11-.17.18-.26l.04-.06c.04-.05.08-.1.12-.15.15-.17.31-.32.5-.47.01,0,.02-.02.04-.03.05-.03.09-.07.14-.1.08-.05.16-.1.24-.15l.07-.04c.1-.06.21-.12.33-.18.03-.02.06-.03.1-.05l.17-.07c.23-.08.47-.15.71-.2.05,0,.1-.02.17-.03h.09c.13-.02.25-.03.37-.04.25,0,.49,0,.72.04l.13.02c.06.01.12.02.18.04.12.03.25.06.36.09.11.03.21.07.32.11l.15.06c.05.02.11.05.16.08.22.11.43.23.62.37.04.03.09.06.13.1l.13.1c.09.08.22.18.34.29.21.19.41.4.61.64.19.21.37.44.53.65l.09.12c.12.16.26.34.42.5.04.04.41.34.77.4.53.08,1.17-.36,1.55-1.09ZM21.18,30.22h0s0,0,0,0h0ZM23.32,31.98c.21-.96-.49-1.65-1.38-2.54-.15-.15-.3-.3-.45-.45,1.21-.42,2.46-.61,3.74-.55,1.06.05,2.11.28,3.14.68-.11.11-.21.21-.32.32-.89.87-1.59,1.57-1.38,2.53.1.44.39.83.88,1.15h0c-.06.06-.11.13-.16.19-.68.86-1.32,1.79-1.97,2.84-.12.19-.24.39-.36.6-.87-1.46-1.68-2.64-2.54-3.69.44-.31.71-.68.8-1.09ZM33.41,20h0s0,0,0,0Z"/>
  <path class="cls-1" d="M30.6,17.05c.17,0,.33,0,.5-.03,1.34-.15,2.4-.81,2.83-1.78.5-1.14.14-2.65-.81-3.37-.62-.48-1.47-.61-2.39-.37-1.15.3-2.16,1.13-2.58,2.11-.11.25-.61,1.52.08,2.47.44.6,1.33.96,2.37.96ZM29.24,14.1h0c.28-.65,1-1.22,1.79-1.43.2-.05.39-.08.57-.08.31,0,.59.08.8.24.51.39.72,1.29.44,1.92-.3.68-1.16,1-1.86,1.08-.8.09-1.51-.1-1.77-.45-.25-.34-.08-.99.05-1.28Z"/>
  <path class="cls-1" d="M22.85,24.8c0,1.13.92,2.05,2.05,2.05s2.05-.92,2.05-2.05-.92-2.05-2.05-2.05-2.05.92-2.05,2.05ZM24.05,24.8c0-.47.38-.85.85-.85s.85.38.85.85-.38.85-.85.85-.85-.38-.85-.85Z"/>
  <path class="cls-1" d="M18.92,17.15h0c.17.01.33.02.5.02,1.04,0,1.92-.3,2.36-.8.71-.81.2-1.9.09-2.11-.43-.83-1.44-1.52-2.59-1.77-.91-.2-1.75-.09-2.37.3-.96.61-1.33,1.9-.81,2.87.43.81,1.49,1.37,2.83,1.5ZM17.61,13.65c.33-.21.83-.26,1.38-.14.79.17,1.51.65,1.79,1.19.12.23.28.73.07,1v.02c-.27.3-1.01.45-1.8.38-.71-.06-1.57-.33-1.87-.89-.27-.51-.07-1.24.43-1.55Z"/>
  <path class="cls-1" d="M46.38,25.32c0-.15-.01-.29-.02-.39,0-.23-.05-.58-.09-.89-.02-.18-.04-.34-.05-.48l-.21-1.16c-.03-.12-.07-.27-.11-.43-.07-.31-.16-.66-.23-.89l-.12-.4c-.06-.19-.12-.38-.17-.54-.05-.11-.1-.26-.16-.41-.11-.3-.24-.64-.34-.86l-.17-.38c-.08-.18-.16-.36-.23-.51l-.13-.25c-.14-.27-.32-.61-.41-.78l-.6-1-.19-.27c-.16-.24-.37-.54-.47-.69-.03-.04-.09-.11-.14-.19-.08-.1-.17-.22-.21-.27-2.35-3.06-5.5-5.48-9.11-7.01-.54-.24-1.22-.48-1.82-.69-.11-.03-.29-.09-.49-.15-.23-.07-.48-.15-.62-.19l-.75-.18c-.35-.09-.82-.18-1.24-.25l-.29-.05c-.27-.04-.56-.07-.84-.11l-.31-.04c-.16-.02-.44-.03-.7-.05-.17-.01-.34-.02-.46-.03-.29,0-.57-.01-.85-.01-9.62,0-17.06,5.75-19.07,14.83-1.12,4.93-.21,10.32,2.32,14.74-1.4-2.17-2.37-4.64-2.88-7.29-.75-3.77-.24-7.81,1.44-11.4.92-1.96,2.17-3.79,3.72-5.44.08-.08.21-.21.34-.34.17-.17.34-.34.44-.44.13-.11.25-.23.38-.35.15-.14.29-.27.44-.4.09-.07.21-.17.34-.28.19-.16.39-.33.53-.43,1.89-1.48,4.19-2.73,6.85-3.71.97-.37,1.97-.71,2.84-1.01.1-.03.15-.14.12-.23-.01-.05-.05-.09-.09-.12-.04-.02-.1-.03-.15-.02-2.17.62-3.98,1.19-5.74,1.96-1.38.6-2.72,1.36-4,2.26-3,2.09-5.42,4.88-7.01,8.07l-.41.88c-.02.06-.06.15-.1.25-.04.11-.09.22-.12.28-.55,1.32-.97,2.83-1.25,4.49-.59,3.95.12,8.26,2.01,12.13,3.44,7.3,11.02,11.89,19.5,11.89.31,0,.62,0,.94-.02,6.4-.22,12.27-3.28,16.12-8.37,1.99-2.63,3.3-5.57,3.78-8.5l.11-.78s.04-.45.06-.66v-.12c.02-.08.03-.17.03-.25.02-.18.04-.37.03-.53,0-.11,0-.25,0-.4,0-.27.02-.57,0-.77,0-.1,0-.24-.02-.39ZM45.07,25.85c0,.09,0,.17,0,.24l-.03.74c0,.18-.02.4-.04.6v.12c-.2,2.51-1.08,5.1-2.54,7.49-3.92,6.31-10.59,9.77-18.04,9.43,2.67-.16,5.28-.91,7.57-2.2.09-.05.12-.16.07-.26-.02-.04-.06-.08-.11-.09-.05-.02-.1,0-.15.02-5.36,2.92-12.04,2.76-17.03-.41-7.52-4.81-10.72-15.15-7.29-23.54,3-7.5,10.25-11.74,18.91-11.06.17,0,.41.04.61.06l.12.02c.41.04,1.02.15,1.45.24.28.05.66.14.99.23.16.04.31.08.43.11.11.04.31.1.5.15.22.06.44.13.55.17.22.08.82.3,1.04.38.17.06.34.14.51.22.17.08.34.15.5.21,3.4,1.56,6.33,3.93,8.46,6.86.14.18.33.47.5.72.08.12.16.24.22.33l.56.94.5.97.44,1,.38,1.02.32,1.04.25,1.06c.02.12.04.26.07.41.03.17.06.35.08.49.02.09.04.26.05.36,0,.04.02.23.04.42.01.11.02.22.03.31,0,.09.02.16.02.17,0,.05,0,.11,0,.18,0,0,0,0,0,.01,0,.07,0,.15,0,.22v.35c.02.09.02.18.02.27Z"/>
</svg>