<?xml version="1.0" encoding="UTF-8"?>
<svg id="Rodzina" xmlns="http://www.w3.org/2000/svg" viewBox="0 0 50 50">
  <defs>
    <style>
      .cls-1 {
        fill: #d55554;
      }

      .cls-1, .cls-2 {
        stroke-width: 0px;
      }

      .cls-2 {
        fill: none;
      }
    </style>
  </defs>
  <g>
    <path class="cls-1" d="M35.62,21.61c-.3-.93-.89-1.7-1.04-1.84h0c-.21-.24-.45-.46-.71-.66-.89-.66-2-1.03-3.14-1.03h-.02c-1.14,0-2.27.35-3.2.97-.51.35-1.01.78-1.48,1.27-.21.23-.42.46-.6.67l-.07.08c-.13.15-.27.31-.43.45l-.05-.04c-.05-.05-.1-.11-.15-.16-.15-.18-.3-.36-.44-.54l-.02-.02c-.19-.25-.41-.52-.65-.78-.89-.96-1.89-1.59-2.96-1.85-1.11-.28-2.27-.21-3.26.19-1.05.43-1.9,1.12-2.45,2-.5.81-.78,1.81-.78,2.83,0,.98.25,1.96.78,3,.46.91,1.11,1.81,2.07,2.85.6.65,1.25,1.28,1.88,1.89.19.18.38.36.56.55l.23.23c.34.33.69.67,1.02,1.02.37.4.74.83,1.1,1.28.02.03.05.06.07.09l.06.08h-.02l.08.08c.09.12.18.24.27.35.17.23.33.46.49.68.32.46.62.93.94,1.44.28.45.58.95.91,1.53.06.11.18.2.32.23.04,0,.08.01.12.01.06,0,.11,0,.16-.03.12-.04.21-.12.27-.22.71-1.25,1.29-2.18,1.88-3.03.18-.25.34-.48.49-.68.08-.1.15-.21.23-.3,0,0,0-.01.01-.02h.01s0-.02,0-.02l.08-.1c.04-.05.08-.1.12-.16.35-.43.72-.86,1.1-1.27.52-.55,1.08-1.09,1.63-1.62l.08-.07c.25-.24.52-.5.77-.75l.03-.03c1.01-1,1.84-1.93,2.32-2.62,1.32-1.89,1.89-4.34,1.37-5.96ZM24.93,21.55v.04s-.01-.04-.01-.04c0,0,0,0,.01,0ZM21.12,19.27h0,0s0,0,0,0ZM19.95,18.94h0s0,0,0,0h0ZM27.64,33.21c-.05.06-.11.12-.16.19-.67.85-1.31,1.78-1.96,2.83-.15.25-.31.51-.47.78-.94-1.58-1.81-2.85-2.72-3.96.48-.31.77-.68.86-1.09.2-.9-.48-1.57-1.35-2.42-.2-.19-.39-.39-.58-.59,1.29-.47,2.61-.68,3.97-.62,1.13.05,2.26.31,3.35.76-.15.16-.3.31-.45.45-.86.85-1.54,1.52-1.34,2.41.1.44.42.83.95,1.15-.03.04-.06.07-.09.11ZM34.85,23.61c0,.06,0,.12-.02.17v.08s-.01.02-.01.02c-.04.25-.08.47-.14.68-.05.19-.13.4-.24.67-.01.03-.02.06-.04.09,0,0,0,.01,0,.02-.02.06-.05.11-.08.17-.05.11-.11.23-.18.37-.24.46-.54.92-.91,1.4l-.02.03.04.03-.05-.02v.02s-.04.03-.05.05c-.04.05-.07.09-.11.14-.1.12-.2.24-.3.36-.17.2-.36.41-.55.61-.55.59-1.15,1.17-1.72,1.72h-.01c-.23.23-.45.45-.68.67l-.21.21c-.3.3-.68.66-1.02,1.03-.04.04-.08.09-.12.14-.03.03-.05.06-.08.09-.38-.2-.59-.41-.64-.62-.09-.38.41-.87,1.09-1.54.55-.54,1.23-1.21,1.84-2.09.74-1.08,1.27-2.31,1.57-3.67l.02-.1-.93-.21-.02.1c-.27,1.24-.75,2.36-1.43,3.33-.17.24-.35.48-.59.76-1.28-.58-2.62-.9-3.99-.97-.17,0-.33-.01-.5-.01-1.43,0-2.84.28-4.19.83-.18-.22-.33-.42-.47-.62-.67-.97-1.15-2.09-1.43-3.33l-.02-.1-.93.21.02.1c.3,1.36.83,2.6,1.57,3.67.6.87,1.28,1.54,1.83,2.08h.01c.68.68,1.17,1.16,1.08,1.54-.04.2-.23.39-.56.58-.02-.03-.05-.06-.07-.09-.04-.05-.09-.1-.13-.15-.56-.6-1.16-1.18-1.74-1.74-.23-.22-.46-.44-.69-.66-.3-.3-.76-.75-1.21-1.22-.2-.22-.39-.43-.56-.63-.09-.11-.19-.22-.28-.33-.04-.04-.07-.09-.11-.14-.01-.02-.03-.03-.04-.05l-.07-.09c-.35-.46-.65-.91-.89-1.37-.06-.12-.12-.24-.18-.37-.01-.03-.03-.06-.04-.09l-.09-.22c-.11-.27-.18-.47-.24-.67-.06-.2-.1-.42-.14-.68,0,0,0-.02,0-.02v-.04c-.01-.06-.02-.12-.02-.17,0-.11-.02-.23-.02-.34,0-.23,0-.46.03-.68,0-.02,0-.04,0-.05,0-.01,0-.03,0-.04,0-.05.01-.09.02-.14.02-.11.05-.23.08-.36.03-.1.06-.2.09-.3.02-.05.04-.11.06-.16,0-.02.01-.04.02-.06l.02-.06c.07-.18.17-.37.3-.57.05-.09.12-.18.18-.27l.02-.03s.02-.03.03-.04c.04-.05.08-.1.13-.15.16-.17.32-.33.5-.47l.02-.02s.02-.02.04-.03c.05-.04.1-.07.15-.1.08-.05.16-.1.24-.15l.07-.04c.11-.06.22-.12.34-.18.03-.02.07-.03.1-.05l.04-.02v-.05s.02.04.02.04l.04-.02s.05-.02.08-.03c.24-.09.48-.16.73-.2.05,0,.1-.02.15-.03h.03s.02,0,.04,0c.02,0,.04,0,.05,0,.13-.01.26-.02.38-.03.27,0,.51,0,.74.04v-.05s.02.05.02.05h.03s.06.01.09.02c.06.01.12.02.19.04.13.03.25.06.37.1.11.03.22.07.33.11l.13.05.02-.05v.05c.06.03.11.05.17.08.23.11.44.24.64.38.05.03.09.07.14.1l.12.09c.1.08.23.19.36.31.21.19.41.41.62.65.2.23.38.47.56.69l.07.09c.12.16.26.33.41.49.23.23.44.34.69.36.02,0,.04,0,.06,0,.24,0,.43-.11.56-.2.31-.23.57-.53.82-.83v-.02c.11-.12.21-.23.31-.35.22-.24.42-.44.63-.63.22-.2.41-.36.66-.53.21-.15.43-.29.66-.4.06-.03.12-.06.18-.09.03-.01.06-.03.09-.04,0,0,.01,0,.03-.01.14-.06.26-.1.37-.14.25-.08.5-.14.76-.19l.13-.02c.05,0,.1-.01.16-.02.13-.01.26-.02.39-.02.15,0,.27,0,.39.01.05,0,.11,0,.16.01l.15.02c.26.04.51.1.75.18.06.02.11.04.17.06l.09.03s.01,0,.01,0c.15.07.27.13.38.19.22.12.41.25.59.38,0,0,0,0,.01.01h.02s.03.04.05.06c.04.04.09.08.13.11.08.07.16.16.24.24.06.07.12.14.19.22,0,0,.01.02.02.02.02.02.03.04.05.07.04.05.08.11.11.16.11.18.22.37.31.57l.02.05.05-.02-.04.03v.03c.03.05.05.11.07.16.04.11.07.22.1.32.03.11.06.22.08.33,0,.05.02.09.03.14v.09s.02.02.02.03v.02c.03.25.04.47.04.67,0,.1,0,.2-.01.32Z"/>
    <path class="cls-1" d="M30.6,16.93c.16,0,.32,0,.48-.03,1.3-.14,2.32-.78,2.73-1.71.48-1.09.14-2.53-.77-3.22-.59-.45-1.4-.57-2.29-.34-1.11.29-2.09,1.09-2.5,2.04-.1.23-.58,1.45.07,2.34.42.57,1.27.91,2.27.91ZM29.13,14.05c.29-.68,1.05-1.28,1.87-1.5.21-.05.41-.08.6-.08.34,0,.64.09.87.27.56.42.78,1.39.47,2.07-.32.73-1.22,1.07-1.96,1.15-.84.09-1.6-.11-1.89-.5-.29-.39-.11-1.06.03-1.4Z"/>
    <path class="cls-1" d="M24.9,22.88c-1.06,0-1.92.86-1.92,1.92s.86,1.92,1.92,1.92,1.92-.86,1.92-1.92-.86-1.92-1.92-1.92ZM24.9,25.78c-.54,0-.98-.44-.98-.98s.44-.98.98-.98.98.44.98.98-.44.98-.98.98Z"/>
    <path class="cls-1" d="M18.94,17.03c.16.01.32.02.48.02,1,0,1.85-.28,2.27-.76.66-.75.18-1.77.07-1.97-.41-.79-1.39-1.46-2.5-1.71-.88-.19-1.68-.09-2.28.29-.91.58-1.26,1.79-.77,2.7.41.78,1.43,1.31,2.73,1.43ZM17.55,13.55c.23-.15.53-.22.88-.22.19,0,.39.02.6.07.82.18,1.58.68,1.87,1.25.14.28.32.84.04,1.16h0c-.29.33-1.05.5-1.89.42-.74-.07-1.64-.35-1.96-.96-.3-.56-.08-1.37.47-1.72Z"/>
  </g>
  <g>
    <path class="cls-2" d="M45.16,24.82c-.01-.06-.08-.82-.09-.91,0-.09-.03-.27-.05-.36-.04-.26-.11-.64-.15-.9-.06-.24-.2-.83-.25-1.07-.1-.32-.22-.73-.32-1.05-.09-.23-.3-.8-.39-1.03-.14-.31-.31-.7-.45-1.01-.11-.22-.39-.76-.51-.98-.17-.29-.39-.66-.56-.95-.2-.28-.52-.79-.73-1.06-2.18-2.98-5.16-5.36-8.51-6.9-.33-.13-.69-.3-1.02-.43-.23-.08-.82-.3-1.04-.38-.23-.08-.82-.25-1.06-.33-.41-.1-1.03-.27-1.44-.34-.42-.09-1.03-.19-1.46-.24-.21-.03-.52-.07-.73-.08-8.28-.65-15.87,3.25-19.03,11.14-3.42,8.38-.33,18.79,7.34,23.7,5.1,3.24,11.88,3.29,17.16.41.03-.02.07,0,.09.03.02.03,0,.07-.03.09-3.13,1.76-6.81,2.49-10.37,2.12.56.1,1.13.17,1.7.22,7.87.77,15.11-2.67,19.31-9.4,1.4-2.29,2.34-4.87,2.54-7.55.02-.22.06-.51.06-.73,0,0,.03-.73.03-.73,0-.2-.01-.52-.02-.73,0-.14-.01-.42-.02-.55Z"/>
    <path class="cls-1" d="M46.27,25.71c0-.19-.03-.59-.03-.78-.01-.36-.11-1-.14-1.35-.06-.35-.14-.8-.2-1.15-.09-.35-.22-.97-.33-1.32-.09-.27-.2-.66-.29-.93-.13-.34-.34-.93-.5-1.26-.12-.26-.28-.63-.4-.88-.12-.23-.42-.8-.54-1.03-.18-.3-.42-.69-.6-.99-.15-.21-.51-.74-.65-.96-.07-.09-.28-.37-.35-.46-2.34-3.05-5.52-5.47-9.06-6.97-.54-.24-1.23-.49-1.8-.68-.24-.07-.85-.26-1.11-.33,0,0-.75-.18-.75-.18-.43-.11-1.07-.22-1.51-.3-.37-.05-.77-.1-1.15-.15-.27-.03-.87-.06-1.15-.08-9.59-.33-17.68,5.18-19.79,14.72-1.48,6.52.57,13.73,5.2,18.51-3.03-2.83-5.16-6.63-6.01-11.06-.77-3.85-.22-7.93,1.45-11.47.94-2.01,2.23-3.86,3.75-5.48.19-.18.6-.61.79-.79.27-.24.55-.52.83-.75.22-.18.64-.54.86-.71,2.06-1.62,4.42-2.82,6.88-3.73.94-.36,1.89-.69,2.84-1.01.03-.01.05-.05.04-.08-.01-.03-.05-.06-.08-.05-1.94.55-3.87,1.15-5.73,1.96-1.39.6-2.74,1.37-3.98,2.24-2.93,2.05-5.37,4.82-6.97,8.02l-.33.7-.08.17c-.05.12-.16.41-.22.54-.59,1.42-.98,2.94-1.24,4.46-.61,4.1.19,8.35,2,12.05,3.66,7.78,11.85,12.14,20.32,11.8,6.37-.22,12.18-3.24,16.03-8.32,1.87-2.47,3.25-5.37,3.76-8.45l.11-.77s.07-.77.07-.77c.02-.24.06-.53.05-.77,0-.29.04-.87.01-1.17ZM45.2,26.1s-.03.73-.03.73c0,.22-.03.51-.06.73-.2,2.68-1.15,5.26-2.54,7.55-4.19,6.73-11.44,10.18-19.31,9.4-.58-.05-1.14-.13-1.7-.22,3.56.36,7.24-.37,10.37-2.12.03-.02.04-.06.03-.09-.02-.03-.06-.04-.09-.03-5.28,2.88-12.06,2.83-17.16-.41-7.67-4.9-10.76-15.32-7.34-23.7,3.16-7.88,10.75-11.78,19.03-11.14.21,0,.53.05.73.08.42.05,1.04.15,1.46.24.41.07,1.03.24,1.44.34.24.08.83.25,1.06.33.22.08.82.3,1.04.38.33.13.69.3,1.02.43,3.35,1.54,6.34,3.92,8.51,6.9.21.27.53.78.73,1.06.17.29.39.66.56.95.11.22.39.76.51.98.14.31.31.7.45,1.01.09.23.3.8.39,1.03.1.32.22.73.32,1.05.06.24.2.83.25,1.07.04.26.11.64.15.9.02.09.04.27.05.36.01.09.08.85.09.91,0,.13.02.41.02.55,0,.21.02.53.02.73Z"/>
  </g>
</svg>