<?xml version="1.0" encoding="UTF-8"?>
<svg id="Toksycznosc" xmlns="http://www.w3.org/2000/svg" viewBox="0 0 50 50">
  <defs>
    <style>
      .cls-1 {
        fill: #d34d47;
        stroke-width: 0px;
      }
    </style>
  </defs>
  <path class="cls-1" d="M46.38,25.32c0-.15-.01-.29-.02-.39,0-.23-.05-.58-.09-.89-.02-.18-.04-.34-.05-.48l-.21-1.16c-.03-.12-.07-.27-.11-.43-.07-.31-.16-.66-.23-.89l-.12-.4c-.06-.19-.12-.38-.17-.54-.05-.11-.1-.26-.16-.41-.11-.3-.24-.64-.34-.86l-.17-.38c-.08-.18-.16-.36-.23-.51l-.13-.25c-.14-.27-.32-.61-.41-.78l-.6-1-.19-.27c-.16-.24-.37-.54-.47-.69-.03-.04-.09-.11-.14-.19-.08-.1-.17-.22-.21-.27-2.35-3.06-5.5-5.48-9.11-7.01-.54-.24-1.22-.48-1.82-.69-.11-.03-.29-.09-.49-.15-.23-.07-.48-.15-.62-.19l-.75-.18c-.35-.09-.82-.18-1.24-.25l-.29-.05c-.27-.04-.56-.07-.84-.11l-.31-.04c-.16-.02-.44-.03-.7-.05-.17-.01-.34-.02-.46-.03-10.02-.34-17.85,5.47-19.92,14.82-1.12,4.93-.21,10.32,2.32,14.74-1.4-2.17-2.37-4.64-2.88-7.29-.75-3.77-.24-7.81,1.44-11.4.92-1.96,2.17-3.79,3.72-5.44.08-.08.21-.21.34-.34.17-.17.34-.34.44-.44.13-.11.25-.23.38-.35.15-.14.29-.27.44-.4.09-.07.21-.17.34-.28.19-.16.39-.33.53-.43,1.89-1.48,4.19-2.73,6.85-3.71.97-.37,1.97-.71,2.84-1.01.1-.03.15-.14.12-.23-.01-.05-.05-.09-.09-.12-.05-.02-.1-.03-.15-.02-2.17.62-3.98,1.19-5.74,1.96-1.38.6-2.72,1.36-4,2.26-3,2.09-5.42,4.88-7.01,8.07l-.41.88c-.02.06-.06.15-.1.25-.04.11-.09.22-.12.28-.55,1.32-.97,2.83-1.25,4.49-.59,3.95.12,8.26,2.01,12.13,3.44,7.3,11.02,11.89,19.5,11.89.31,0,.62,0,.94-.02,6.4-.22,12.27-3.28,16.12-8.37,1.99-2.63,3.3-5.57,3.78-8.5l.11-.78s.04-.45.06-.66v-.12c.02-.08.03-.17.03-.25.02-.18.04-.37.03-.53,0-.11,0-.25,0-.4,0-.27.02-.57,0-.77,0-.1,0-.24-.02-.39ZM45.07,25.85c0,.09,0,.17,0,.24l-.03.74c0,.18-.02.4-.04.6v.12c-.2,2.51-1.08,5.1-2.54,7.49-3.92,6.31-10.6,9.77-18.04,9.43,2.67-.16,5.28-.91,7.57-2.2.09-.05.12-.16.07-.26-.02-.04-.06-.08-.11-.09-.05-.02-.1,0-.15.02-5.36,2.92-12.04,2.76-17.03-.41-7.52-4.81-10.72-15.15-7.29-23.54,3-7.5,10.25-11.74,18.91-11.06.17,0,.41.04.61.06l.12.02c.41.04,1.02.15,1.45.24.28.05.66.14.99.23.16.04.31.08.43.11.11.04.31.1.5.15.22.06.44.13.55.17.22.08.82.3,1.04.38.17.06.34.14.51.22.17.08.34.15.5.21,3.4,1.56,6.33,3.93,8.46,6.86.14.18.33.47.5.72.08.12.16.24.22.33l.56.94.5.97.44,1,.38,1.02.32,1.04.25,1.06c.02.12.04.26.07.41.03.17.06.35.08.49.02.09.04.26.05.36,0,.04.02.23.04.42.01.11.02.22.03.31,0,.09.02.16.02.17,0,.05,0,.11,0,.18,0,0,0,0,0,.01,0,.07,0,.15,0,.22v.35c.02.09.02.18.02.27Z"/>
  <path class="cls-1" d="M29.22,26.32c-.26-.07-.74-.06-1.26-.05h-.05c-.35,0-.69.01-.98,0h-.23s-.02,0-.02,0c.12-.41.29-.94.46-1.49v-.04c.3-.89.59-1.81.71-2.36.03-.13-.06-.26-.18-.29-.23-.06-.88-.06-1.84-.05-.4,0-.78,0-1.04,0-.18.02-.4,0-.61,0-.44-.02-.82-.04-1.05.14-.03.03-.06.06-.07.1-.13.3-1.02,2.45-1.61,3.87-.36.88-.69,1.66-.84,2.03l-.03.06c-.05.12-.11.26-.02.41.1.15.26.15.55.15.26,0,.71,0,1.19,0,.53,0,1.09,0,1.43,0-.19.62-.65,2.16-1.12,3.7q-1.2,3.97-1.19,4.04s0,.04.02.06c.03.08.11.14.2.15h.04c.08,0,.15-.03.2-.1,2.5-3.31,5-6.62,7.51-9.94.05-.07.06-.15.04-.23-.03-.08-.09-.14-.17-.16ZM24.32,31.01l.1-.34c.3-.99.61-2.01.83-2.75.02-.07.01-.13-.02-.19-.03-.06-.09-.1-.15-.12-.12-.03-.48-.05-1.23-.05-.34,0-.74,0-1.16,0h-.3c-.08,0-.14,0-.21,0,.39-.95,1.45-3.51,1.77-4.28,0-.01,0-.03.01-.04.02,0,.04,0,.06,0,.09,0,.21.02.33,0,.23,0,.53,0,.83,0,.36,0,.79,0,1.13,0-.12.42-.38,1.23-.57,1.84-.18.59-.36,1.14-.43,1.4-.04.16-.08.28-.12.4-.07.19-.12.34,0,.48.04.05.14.12.24.1.3,0,.72,0,1.14,0h.15c.18,0,.36,0,.52,0-.33.44-.9,1.2-1.5,2l-.03.03c-.52.69-1.1,1.47-1.56,2.08.06-.19.12-.39.18-.59Z"/>
  <path class="cls-1" d="M30.63,17.61s0-.01,0-.02c-.4-1.59-1.3-2.87-2.52-3.59-1.83-1.12-4.39-.96-6.1.37-1.15.84-1.96,2.22-2.22,3.77-.01.05-.03.08-.04.1-.23-.06-.46-.15-.71-.25-.51-.2-1.14-.44-1.83-.44-.03,0-.07,0-.1,0-1.74-.08-3.59.82-4.72,2.3-.95,1.24-1.25,2.69-.83,3.98.03.08.06.16.09.25.17.48.38,1.08.86,1.33.04.02.08.03.12.03.35,0,1,0,1.81,0,2.03.02,4.8.04,5.92-.04.06,0,.11-.03.15-.07.21-.2.19-.66.08-.88-.12-.24-.38-.23-.6-.23-.08,0-.18,0-.3,0h-2.33c-.55-.02-1.15,0-1.8,0-.86.01-1.75.03-2.48-.04-.51-.73-.63-1.61-.33-2.5.42-1.26,1.62-2.37,2.99-2.76,1.35-.41,3.06-.02,4.26.98l.05.04c.23.19.47.38.69.25.25-.11.24-.44.23-.86,0-.2-.01-.42.01-.62.05-1.45.83-2.79,2.1-3.58,1.24-.78,2.69-.91,3.98-.35,1.54.67,2.56,2.44,2.49,4.3-.02.46-.02.79.25.89.27.1.49-.15.77-.51.89-1.25,2.64-1.88,4.25-1.52,1.34.29,2.25,1.19,2.5,2.46.26,1.19-.05,2.97-1.01,3.79-.46.06-1.45.05-2.49.03h-.09c-1.44-.03-2.93-.06-3.63.1-.07.02-.12.06-.16.12-.09.15-.13.46-.05.69.05.14.15.24.28.28.02,0,.06.02.09.01.26,0,.93,0,1.66.01h.05c.8.01,1.71.02,2.54.02,1.34,0,2.1-.03,2.38-.1.03,0,.07-.02.1-.05l.1-.08c2.26-2.6,1.85-5.4.45-7.03-1.36-1.58-4.01-2.37-6.86-.61Z"/>
</svg>