<?xml version="1.0" encoding="UTF-8"?>
<svg id="Toksycznosc" xmlns="http://www.w3.org/2000/svg" viewBox="0 0 50 50">
  <defs>
    <style>
      .cls-1 {
        fill: #d55554;
      }

      .cls-1, .cls-2 {
        stroke-width: 0px;
      }

      .cls-2 {
        fill: none;
      }
    </style>
  </defs>
  <g>
    <path class="cls-2" d="M45.16,24.82c-.01-.06-.08-.82-.09-.91,0-.09-.03-.27-.05-.36-.04-.26-.11-.64-.15-.9-.06-.24-.2-.83-.25-1.07-.1-.32-.22-.73-.32-1.05-.09-.23-.3-.8-.39-1.03-.14-.31-.31-.7-.45-1.01-.11-.22-.39-.76-.51-.98-.17-.29-.39-.66-.56-.95-.2-.28-.52-.79-.73-1.06-2.18-2.98-5.16-5.36-8.51-6.9-.33-.13-.69-.3-1.02-.43-.23-.08-.82-.3-1.04-.38-.23-.08-.82-.25-1.06-.33-.41-.1-1.03-.27-1.44-.34-.42-.09-1.03-.19-1.46-.24-.21-.03-.52-.07-.73-.08-8.28-.65-15.87,3.25-19.03,11.14-3.42,8.38-.33,18.79,7.34,23.7,5.1,3.24,11.88,3.29,17.16.41.03-.02.07,0,.09.03.02.03,0,.07-.03.09-3.13,1.76-6.81,2.49-10.37,2.12.56.1,1.13.17,1.7.22,7.87.77,15.11-2.67,19.31-9.4,1.4-2.29,2.34-4.87,2.54-7.55.02-.22.06-.51.06-.73,0,0,.03-.73.03-.73,0-.2-.01-.52-.02-.73,0-.14-.01-.42-.02-.55Z"/>
    <path class="cls-1" d="M46.27,25.71c0-.19-.03-.59-.03-.78-.01-.36-.11-1-.14-1.35-.06-.35-.14-.8-.2-1.15-.09-.35-.22-.97-.33-1.32-.09-.27-.2-.66-.29-.93-.13-.34-.34-.93-.5-1.26-.12-.26-.28-.63-.4-.88-.12-.23-.42-.8-.54-1.03-.18-.3-.42-.69-.6-.99-.15-.21-.51-.74-.65-.96-.07-.09-.28-.37-.35-.46-2.34-3.05-5.52-5.47-9.06-6.97-.54-.24-1.23-.49-1.8-.68-.24-.07-.85-.26-1.11-.33,0,0-.75-.18-.75-.18-.43-.11-1.07-.22-1.51-.3-.37-.05-.77-.1-1.15-.15-.27-.03-.87-.06-1.15-.08-9.59-.33-17.68,5.18-19.79,14.72-1.48,6.52.57,13.73,5.2,18.51-3.03-2.83-5.16-6.63-6.01-11.06-.77-3.85-.22-7.93,1.45-11.47.94-2.01,2.23-3.86,3.75-5.48.19-.18.6-.61.79-.79.27-.24.55-.52.83-.75.22-.18.64-.54.86-.71,2.06-1.62,4.42-2.82,6.88-3.73.94-.36,1.89-.69,2.84-1.01.03-.01.05-.05.04-.08-.01-.03-.05-.06-.08-.05-1.94.55-3.87,1.15-5.73,1.96-1.39.6-2.74,1.37-3.98,2.24-2.93,2.05-5.37,4.82-6.97,8.02l-.33.7-.08.17c-.05.12-.16.41-.22.54-.59,1.42-.98,2.94-1.24,4.46-.61,4.1.19,8.35,2,12.05,3.66,7.78,11.85,12.14,20.32,11.8,6.37-.22,12.18-3.24,16.03-8.32,1.87-2.47,3.25-5.37,3.76-8.45l.11-.77s.07-.77.07-.77c.02-.24.06-.53.05-.77,0-.29.04-.87.01-1.17ZM45.2,26.1s-.03.73-.03.73c0,.22-.03.51-.06.73-.2,2.68-1.15,5.26-2.54,7.55-4.19,6.73-11.44,10.18-19.31,9.4-.58-.05-1.14-.13-1.7-.22,3.56.36,7.24-.37,10.37-2.12.03-.02.04-.06.03-.09-.02-.03-.06-.04-.09-.03-5.28,2.88-12.06,2.83-17.16-.41-7.67-4.9-10.76-15.32-7.34-23.7,3.16-7.88,10.75-11.78,19.03-11.14.21,0,.53.05.73.08.42.05,1.04.15,1.46.24.41.07,1.03.24,1.44.34.24.08.83.25,1.06.33.22.08.82.3,1.04.38.33.13.69.3,1.02.43,3.35,1.54,6.34,3.92,8.51,6.9.21.27.53.78.73,1.06.17.29.39.66.56.95.11.22.39.76.51.98.14.31.31.7.45,1.01.09.23.3.8.39,1.03.1.32.22.73.32,1.05.06.24.2.83.25,1.07.04.26.11.64.15.9.02.09.04.27.05.36.01.09.08.85.09.91,0,.13.02.41.02.55,0,.21.02.53.02.73Z"/>
  </g>
  <g>
    <path class="cls-1" d="M27.92,26.39c-.34,0-.69.01-.98,0h-.18c-.09,0-.19,0-.25,0,.12-.44.31-1.04.52-1.68.29-.89.58-1.8.69-2.35.01-.07-.03-.13-.09-.15-.22-.06-.89-.05-1.81-.04-.4,0-.78,0-1.02,0-.19.02-.41,0-.63,0-.42-.02-.78-.04-.96.11-.02.01-.03.03-.04.05-.13.29-.95,2.28-1.61,3.87-.36.88-.69,1.66-.84,2.03l-.03.06c-.05.11-.08.2-.03.29.06.09.17.1.44.09.26,0,.71,0,1.19,0,.57,0,1.17,0,1.5,0h.09s0,0,0,0c-.14.47-.65,2.17-1.17,3.86q-1.2,3.95-1.19,3.98s0,.02,0,.03c.02.04.05.07.1.08,0,0,.01,0,.02,0,.04,0,.08-.02.1-.05,2.5-3.31,5-6.62,7.51-9.94.03-.03.03-.08.02-.12-.01-.04-.04-.07-.08-.08-.25-.07-.75-.06-1.27-.05ZM27.47,27.37c-.29.38-.96,1.27-1.67,2.23-.69.93-1.51,2.01-1.98,2.64.12-.39.25-.82.38-1.26.33-1.1.68-2.26.93-3.08,0-.03,0-.07-.01-.1-.02-.03-.04-.05-.08-.06-.12-.03-.57-.04-1.2-.04-.34,0-.74,0-1.16,0-.27,0-.54,0-.7,0,.31-.75,1.49-3.63,1.83-4.45.04-.14.04-.14.2-.13.08,0,.2.02.33,0,.23,0,.52,0,.83,0,.45,0,.95,0,1.3,0-.09.34-.39,1.28-.61,2-.18.59-.36,1.13-.43,1.4-.04.17-.09.3-.13.41-.06.18-.1.28-.03.36.02.03.08.07.14.06.33,0,.83,0,1.29,0,.28,0,.55,0,.77,0,0,0,0,0,0,0Z"/>
    <path class="cls-1" d="M37.4,18.31c-1.34-1.56-3.96-2.32-6.78-.54-.03-.01-.07-.04-.11-.15-.4-1.56-1.27-2.81-2.46-3.52-1.79-1.09-4.29-.94-5.96.37-1.12.82-1.92,2.18-2.18,3.7-.04.13-.08.19-.1.21-.26-.06-.53-.16-.81-.27-.55-.21-1.19-.45-1.9-.43-.07,0-.14,0-.22,0-1.63,0-3.34.87-4.4,2.26-.92,1.2-1.22,2.61-.81,3.86.03.08.06.16.09.25.16.46.37,1.03.8,1.26.02,0,.04.01.06.01h0c.36,0,1.02,0,1.81,0,2.02.02,4.8.04,5.91-.04.03,0,.06-.01.08-.03.16-.15.15-.55.06-.73-.09-.17-.27-.16-.48-.16-.08,0-.18,0-.31,0h-2.33c-.55-.02-1.17,0-1.76,0-.9.01-1.83.03-2.58-.05-.56-.77-.7-1.71-.38-2.66.43-1.3,1.67-2.44,3.07-2.84,1.39-.43,3.15-.02,4.37,1l.04.04c.21.17.4.33.56.23.18-.08.17-.35.16-.74,0-.2-.01-.43.01-.63.05-1.49.86-2.86,2.16-3.68,1.27-.81,2.77-.94,4.1-.36,1.58.69,2.64,2.51,2.57,4.42-.02.47,0,.7.17.76.17.06.34-.11.62-.47.92-1.29,2.72-1.93,4.38-1.57,1.39.3,2.33,1.23,2.59,2.56.28,1.24-.06,3.09-1.08,3.94-.47.07-1.53.05-2.64.03-1.44-.03-2.92-.06-3.6.09-.03,0-.06.03-.08.06-.08.13-.11.4-.04.58.05.13.13.19.2.21.01,0,.03.01.05,0,.25,0,.87,0,1.66.01.81.01,1.74.02,2.59.02,1.09,0,2.04-.02,2.36-.09.02,0,.03-.01.05-.02l.08-.06c2.21-2.54,1.82-5.28.45-6.87Z"/>
  </g>
</svg>