<?xml version="1.0" encoding="UTF-8"?>
<svg id="Umiar" xmlns="http://www.w3.org/2000/svg" viewBox="0 0 50 50">
  <defs>
    <style>
      .cls-1 {
        fill: #d34d47;
        stroke-width: 0px;
      }
    </style>
  </defs>
  <path class="cls-1" d="M46.38,25.32c0-.15-.01-.29-.02-.39,0-.23-.05-.58-.09-.89-.02-.18-.04-.34-.05-.48l-.21-1.16c-.03-.12-.07-.27-.11-.43-.07-.31-.16-.66-.23-.89l-.12-.4c-.06-.19-.12-.38-.17-.54-.05-.11-.1-.26-.16-.41-.11-.3-.24-.64-.34-.86l-.17-.38c-.08-.18-.16-.36-.23-.51l-.13-.25c-.14-.27-.32-.61-.41-.78l-.6-1-.19-.27c-.16-.24-.37-.54-.47-.69-.03-.04-.09-.11-.14-.19-.08-.1-.17-.22-.21-.27-2.35-3.06-5.5-5.48-9.11-7.01-.54-.24-1.22-.48-1.82-.69-.11-.03-.29-.09-.49-.15-.23-.07-.48-.15-.62-.19l-.75-.18c-.35-.09-.82-.18-1.24-.25l-.29-.05c-.27-.04-.56-.07-.84-.11l-.31-.04c-.16-.02-.44-.03-.7-.05-.17-.01-.34-.02-.46-.03-10.02-.34-17.85,5.47-19.92,14.82-1.12,4.93-.21,10.32,2.32,14.74-1.4-2.17-2.37-4.64-2.88-7.29-.75-3.77-.24-7.81,1.44-11.4.92-1.96,2.17-3.79,3.72-5.44.08-.08.21-.21.34-.34.17-.17.34-.34.44-.44.13-.11.25-.23.38-.35.15-.14.29-.27.44-.4.09-.07.21-.17.34-.28.19-.16.39-.33.53-.43,1.89-1.48,4.19-2.73,6.85-3.71.97-.37,1.97-.71,2.84-1.01.1-.03.15-.14.12-.23-.01-.05-.05-.09-.09-.12-.05-.02-.1-.03-.15-.02-2.17.62-3.98,1.19-5.74,1.96-1.38.6-2.72,1.36-4,2.26-3,2.09-5.42,4.88-7.01,8.07l-.41.88c-.02.06-.06.15-.1.25-.04.11-.09.22-.12.28-.55,1.32-.97,2.83-1.25,4.49-.59,3.95.12,8.26,2.01,12.13,3.44,7.3,11.02,11.89,19.5,11.89.31,0,.62,0,.94-.02,6.4-.22,12.27-3.28,16.12-8.37,1.99-2.63,3.3-5.57,3.78-8.5l.11-.78s.04-.45.06-.66v-.12c.02-.08.03-.17.03-.25.02-.18.04-.37.03-.53,0-.11,0-.25,0-.4,0-.27.02-.57,0-.77,0-.1,0-.24-.02-.39ZM45.07,26.09l-.03.74c0,.18-.02.4-.04.6v.12c-.2,2.51-1.08,5.1-2.54,7.49-3.92,6.31-10.6,9.77-18.04,9.43,2.67-.16,5.28-.91,7.57-2.2.09-.05.12-.16.07-.26-.02-.04-.06-.08-.11-.09-.05-.02-.1,0-.15.02-5.36,2.92-12.04,2.76-17.03-.41-7.52-4.81-10.72-15.15-7.29-23.54,3-7.5,10.25-11.74,18.91-11.06.17,0,.41.04.61.06l.12.02c.41.04,1.02.15,1.45.24.28.05.66.14.99.23.16.04.31.08.43.11.11.04.31.1.5.15.22.06.44.13.55.17.22.08.82.3,1.04.38.17.06.34.14.51.22.17.08.34.15.5.21,3.4,1.56,6.33,3.93,8.46,6.86.14.18.33.47.5.72.08.12.16.24.22.33l.56.94.5.97.44,1,.38,1.02.32,1.04.25,1.06c.02.12.04.26.07.41.03.17.06.35.08.49.02.09.04.26.05.36,0,.04.02.23.04.42.01.11.02.22.03.31,0,.09.02.16.02.17,0,.05,0,.11,0,.18,0,0,0,0,0,.01,0,.07,0,.15,0,.22v.35c.02.09.02.18.02.27,0,.09,0,.17,0,.24Z"/>
  <path class="cls-1" d="M24.96,18.93c-.61-.19-1.25-.39-1.86-.85-.15-.12-.51-.39-.73-.23-.23.17-.03.62.03.77l.06.12h0c.88,1.61,2.45,2.9,3.73,3.08.1.01.2.02.29.02.44,0,.81-.15,1.09-.43.22-.23.26-.67-.11-1.05-.83-.91-1.68-1.17-2.51-1.43Z"/>
  <path class="cls-1" d="M23.59,18.05c.44.22.89.37,1.32.5.77.25,1.51.49,2.24,1.14.13.11.24.15.32.15.08,0,.13-.03.16-.06.16-.13.15-.44-.02-.78l-.06-.13h0c-.95-1.75-2.5-2.97-3.94-3.11-.7-.05-1.21.2-1.33.63-.15.53.34,1.15,1.32,1.67Z"/>
  <path class="cls-1" d="M40.28,22.62c.16-.86-.23-1.34-.49-1.56-.85-.73-2.61-.54-3.75.05-.63.31-1.11.75-1.57,1.18-.04.04-.08.08-.12.12-1.83-1.53-3.22-.65-4.7.56-.72.58-1.5,1.05-2.33,1.56h-.01c-.88-.07-1.79-.1-2.62-.13-1.42-.05-2.88-.09-4.35-.36-3.43-.57-7.19-1.59-10.08-2.41-.15-.04-.31-.03-.46.05-.14.08-.24.21-.29.36-.04.15-.03.32.05.46.08.14.21.24.36.29,2.92.83,6.72,1.86,10.2,2.44,1.54.28,3.06.33,4.53.38h.05c.83.03,1.68.06,2.51.13l.25.03c.6.08,1.09.16,1.58.25l.22.06c1.32.38,1.98.58,2.38,1,.41.43.5.93.46,1.15-.04.22-.18.36-.41.44-.39.14-.99.12-1.52.1-.88-.05-1.86-.19-2.8-.32h-.03c-.7-.1-1.49-.21-2.21-.28-1.97-.23-3.8.15-5.32.54-.16.04-.29.14-.37.28-.08.14-.1.3-.06.46.08.31.41.51.73.43,1.49-.39,3.11-.72,4.9-.51.68.06,1.44.17,2.1.26h.09c.87.13,1.95.29,2.9.34.18,0,.34.02.49.02-1.02.61-1.87,1.14-2.63,1.66-1.17.83-2.27,1.24-3.28,1.24-.08,0-.17,0-.27,0-1.05-.03-1.84-.47-2.75-.99l-.12-.07c-2.63-1.46-10-4.91-10.83-5.29-.14-.07-.31-.08-.46-.02-.15.05-.27.16-.34.31-.07.14-.08.31-.02.46.05.15.17.27.31.34,1.92.9,8.35,3.92,10.76,5.26l.13.07c1,.56,1.95,1.09,3.28,1.13.11,0,.22.01.32.01,1.26,0,2.59-.49,3.96-1.46,1.65-1.13,3.41-2.12,5.11-3.08l.36-.2c1.28-.73,2.49-1.42,3.69-2.48,2.78-2.39,2.83-3.41,2.62-3.97-.04-.1-.09-.19-.15-.27ZM35.29,23.17c.42-.38.81-.75,1.3-.98.5-.26,1.13-.4,1.63-.4.34,0,.63.06.79.2.02.02.05.04.08.1-.12-.01-.24-.02-.38-.02h-.06c-1.52.18-2.83.88-4.06,1.73.25-.2.48-.41.71-.62ZM29.13,24.81c.37-.24.82-.55,1.27-.91,1.34-1.1,1.98-1.47,2.97-.73-1.17.75-2.63,1.25-4.04,1.69-.07-.01-.14-.03-.21-.04ZM31.89,25.79c-.18-.11-.38-.22-.59-.32,1.13-.41,2.03-.84,2.78-1.32-.36.26-.72.54-1.08.81-.33.25-.72.55-1.11.83ZM37.02,25.96h0c-1.1.98-2.25,1.64-3.49,2.34l-.24.14c.11-.6-.06-1.3-.47-1.85.28-.2.55-.41.81-.61l.09-.07c1.64-1.25,3.18-2.43,5.02-2.65.35,0,.51.06.56.07-.03.14-.26.88-2.28,2.62Z"/>
</svg>