<?xml version="1.0" encoding="UTF-8"?>
<svg id="_3" data-name="+3" xmlns="http://www.w3.org/2000/svg" viewBox="0 0 50 50">
  <defs>
    <style>
      .cls-1 {
        fill: #d34d47;
        stroke-width: 0px;
      }
    </style>
  </defs>
  <path class="cls-1" d="M24.32,23.52c-.35.05-.8.11-1.4.16-.54.05-1.14.08-1.79.1,0-.2-.01-.4-.02-.59-.03-.54-.07-1.07-.12-1.57-.05-.5-.13-.96-.21-1.37l-.02-.1h-.91c-.12,0-.22,0-.31,0-.1,0-.17,0-.21.02l-.12.02.02.12c.05.34.1.72.15,1.14.04.42.08.86.12,1.33.03.35.05.7.07,1.04-.59,0-1.21,0-1.76,0-.31,0-.59-.01-.84-.03-.25-.01-.45-.03-.6-.04h-.14s0,.12,0,.12c0,.05,0,.13,0,.24,0,.1.01.22.02.35.01.13.02.25.04.37.02.12.04.22.05.28l.02.08h.08c.27.04.58.07.94.09.36.02.74.04,1.15.06.36.01.71.02,1.07.02,0,.08,0,.16,0,.23,0,.58-.01,1.13-.04,1.64-.02.52-.06,1-.12,1.43l-.02.14h.14c.07,0,.16,0,.27,0h.37c.13.01.25.01.36.01.12,0,.2,0,.25-.01h.09s.01-.11.01-.11c.07-.59.13-1.23.17-1.88.03-.5.05-1,.06-1.48.49-.02.94-.04,1.35-.08.78-.07,1.39-.15,1.83-.25l.09-.02v-.09c.01-.06.02-.17.03-.31,0-.14.01-.3.02-.47,0-.17,0-.33,0-.47v-.14s-.14.02-.14.02Z"/>
  <path class="cls-1" d="M32.08,24.76c-.33-.15-.69-.26-1.05-.33.21-.09.43-.19.65-.32.41-.24.76-.56,1.05-.96.29-.4.43-.88.43-1.42,0-.64-.15-1.19-.44-1.64-.29-.44-.7-.79-1.21-1.02-.5-.23-1.08-.35-1.71-.35-.71,0-1.36.11-1.94.34-.57.22-1.07.49-1.48.8-.41.31-.73.58-.98.84l-.08.09.33.33c.11.11.24.23.37.34.14.12.26.22.38.3l.1.07.07-.1c.21-.27.47-.52.79-.75.32-.23.68-.42,1.07-.55.39-.14.82-.21,1.26-.21.62,0,1.08.16,1.37.47.29.31.44.7.44,1.16s-.18.85-.55,1.17c-.38.33-.87.58-1.46.75-.6.17-1.24.26-1.89.26h-.12v.12c0,.2.01.42.04.66.03.24.06.42.09.53l.02.09h.1c.94,0,1.77.05,2.45.14.66.09,1.17.29,1.53.6.34.3.51.78.51,1.42,0,.7-.24,1.23-.72,1.62-.49.39-1.13.59-1.9.59-.66,0-1.22-.16-1.68-.47-.45-.31-.74-.72-.87-1.22l-.03-.13-.13.05c-.14.05-.29.12-.46.21-.16.09-.32.18-.47.27-.15.1-.28.19-.39.28l-.06.05.03.08c.15.47.43.88.83,1.24.4.35.89.63,1.45.82.56.19,1.18.29,1.82.29.8,0,1.51-.15,2.13-.46.62-.31,1.12-.75,1.48-1.32.36-.57.54-1.25.54-2.04,0-.68-.16-1.26-.47-1.7-.31-.44-.73-.78-1.24-1.01Z"/>
  <path class="cls-1" d="M46.38,25.32c0-.15-.01-.29-.02-.39,0-.23-.05-.58-.09-.89-.02-.18-.04-.34-.05-.48l-.21-1.16c-.03-.12-.07-.27-.11-.43-.07-.31-.16-.66-.23-.89l-.12-.4c-.06-.19-.12-.38-.17-.54-.05-.11-.1-.26-.16-.41-.11-.3-.24-.64-.34-.86l-.17-.38c-.08-.18-.16-.36-.23-.51l-.13-.25c-.14-.27-.32-.61-.41-.78l-.6-1-.19-.27c-.16-.24-.37-.54-.47-.69-.03-.04-.09-.11-.14-.19-.08-.1-.17-.22-.21-.27-2.35-3.06-5.5-5.48-9.11-7.01-.54-.24-1.22-.48-1.82-.69-.11-.03-.29-.09-.49-.15-.23-.07-.48-.15-.62-.19l-.75-.18c-.35-.09-.82-.18-1.24-.25l-.29-.05c-.27-.04-.56-.07-.84-.11l-.31-.04c-.16-.02-.44-.03-.7-.05-.17-.01-.34-.02-.46-.03-.29,0-.57-.01-.85-.01-9.62,0-17.06,5.75-19.07,14.83-1.12,4.93-.21,10.32,2.32,14.74-1.4-2.17-2.37-4.64-2.88-7.29-.75-3.77-.24-7.81,1.44-11.4.92-1.96,2.17-3.79,3.72-5.44.08-.08.21-.21.34-.34.17-.17.34-.34.44-.44.13-.11.25-.23.38-.35.15-.14.29-.27.44-.4.09-.07.21-.17.34-.28.19-.16.39-.33.53-.43,1.89-1.48,4.19-2.73,6.85-3.71.97-.37,1.97-.71,2.84-1.01.1-.03.15-.14.12-.23-.01-.05-.05-.09-.09-.12-.05-.02-.1-.03-.15-.02-2.17.62-3.98,1.19-5.74,1.96-1.38.6-2.72,1.36-4,2.26-3,2.09-5.42,4.88-7.01,8.07l-.41.88c-.02.06-.06.15-.1.25-.04.11-.09.22-.12.28-.55,1.32-.97,2.83-1.25,4.49-.59,3.95.12,8.26,2.01,12.13,3.44,7.3,11.02,11.89,19.5,11.89.31,0,.62,0,.94-.02,6.4-.22,12.27-3.28,16.12-8.37,1.99-2.63,3.3-5.57,3.78-8.5l.11-.78s.04-.45.06-.66v-.12c.02-.08.03-.17.03-.25.02-.18.04-.37.03-.53,0-.11,0-.25,0-.4,0-.27.02-.57,0-.77,0-.1,0-.24-.02-.39ZM45.07,25.85c0,.09,0,.17,0,.24l-.03.74c0,.18-.02.4-.04.6v.12c-.2,2.51-1.08,5.1-2.54,7.49-3.92,6.31-10.6,9.77-18.04,9.43,2.67-.16,5.28-.91,7.57-2.2.09-.05.12-.16.07-.26-.02-.04-.06-.08-.11-.09-.05-.02-.1,0-.15.02-5.36,2.92-12.04,2.76-17.03-.41-7.52-4.81-10.72-15.15-7.29-23.54,3-7.5,10.25-11.74,18.91-11.06.17,0,.41.04.61.06l.12.02c.41.04,1.02.15,1.45.24.28.05.66.14.99.23.16.04.31.08.43.11.11.04.31.1.5.15.22.06.44.13.55.17.22.08.82.3,1.04.38.17.06.34.14.51.22.17.08.34.15.5.21,3.4,1.56,6.33,3.93,8.46,6.86.14.18.33.47.5.72.08.12.16.24.22.33l.56.94.5.97.44,1,.38,1.02.32,1.04.25,1.06c.02.12.04.26.07.41.03.17.06.35.08.49.02.09.04.26.05.36,0,.04.02.23.04.42.01.11.02.22.03.31,0,.09.02.16.02.17,0,.05,0,.11,0,.18,0,0,0,0,0,.01,0,.07,0,.15,0,.22v.35c.02.09.02.18.02.27Z"/>
</svg>