<?xml version="1.0" encoding="UTF-8"?>
<svg id="_5" data-name="+5" xmlns="http://www.w3.org/2000/svg" viewBox="0 0 50 50">
  <defs>
    <style>
      .cls-1 {
        fill: #d34d47;
        stroke-width: 0px;
      }
    </style>
  </defs>
  <path class="cls-1" d="M23.83,23.53c-.36.06-.83.11-1.4.16-.54.05-1.14.08-1.79.1,0-.2-.02-.4-.03-.59-.03-.55-.07-1.08-.12-1.57-.05-.5-.13-.96-.21-1.37l-.02-.1h-.91c-.12,0-.22,0-.31,0-.1,0-.16,0-.2.02l-.12.02.02.12c.05.34.1.72.15,1.14.04.42.08.86.12,1.33.03.33.05.68.07,1.04-.6,0-1.21,0-1.76,0-.33,0-.6-.01-.84-.03-.25-.02-.45-.03-.6-.04h-.14s0,.12,0,.12c0,.05,0,.13,0,.24,0,.11.01.22.02.35.01.13.02.25.04.37.02.13.04.22.06.28l.02.08h.08c.26.04.57.07.94.09.37.03.75.04,1.15.06.36.01.71.02,1.07.02,0,.08,0,.16,0,.23,0,.58-.01,1.13-.04,1.64-.03.54-.06,1-.12,1.43l-.02.14h.14c.07,0,.16,0,.27,0h.37c.13.01.25.01.36.01.12,0,.2,0,.25-.01h.09s.01-.11.01-.11c.07-.59.13-1.23.17-1.88.03-.51.05-1,.06-1.48.49-.02.94-.04,1.35-.08.78-.07,1.4-.15,1.83-.25l.09-.02v-.09c.01-.06.02-.17.03-.31,0-.14.01-.3.02-.47,0-.18,0-.33,0-.47v-.14s-.14.02-.14.02Z"/>
  <path class="cls-1" d="M32.7,22.85c-.52-.4-1.16-.6-1.9-.6-.41,0-.79.07-1.13.21-.34.14-.63.31-.88.53-.25.21-.46.43-.61.65-.03.04-.06.09-.09.13,0-.02,0-.05,0-.08-.02-.28-.04-.59-.07-.96l-.09-1.07c-.03-.31-.06-.58-.09-.81.13-.02.32-.05.55-.09.32-.04.7-.09,1.16-.14.46-.05.97-.1,1.54-.16.57-.05,1.19-.1,1.84-.15h.12v-.12c0-.16-.01-.33-.04-.5-.03-.17-.06-.32-.1-.47-.04-.14-.07-.24-.09-.3l-.03-.09h-.09c-.27.03-.61.06-1.03.11-.43.05-.9.11-1.4.17-.51.06-1.02.13-1.54.2-.5.07-.99.14-1.45.22-.47.08-.83.15-1.11.22l-.11.03v.11c.16,1.07.27,2.11.35,3.08.08.96.12,1.93.12,2.86v.11h.11c.08.02.19.02.35.03.26,0,.48,0,.72-.02.09,0,.18-.02.24-.02h.17s0-.12,0-.12c.01-.15.07-.34.18-.57.11-.24.27-.48.47-.72.2-.24.46-.44.76-.6.3-.16.65-.24,1.05-.24.47,0,.85.12,1.17.38.31.26.55.6.72,1.02.16.42.24.88.24,1.38,0,.62-.12,1.17-.36,1.64-.24.47-.58.84-1.02,1.1-.44.26-.96.4-1.56.4s-1.13-.07-1.54-.22c-.41-.14-.75-.32-1-.52-.26-.21-.46-.39-.6-.56l-.08-.09-.09.08c-.07.06-.17.15-.32.29-.14.14-.27.28-.41.43-.14.16-.24.29-.3.41l-.04.08.06.06c.36.38.77.69,1.22.92.45.24.94.41,1.46.51.52.11,1.06.16,1.61.16.93,0,1.75-.19,2.42-.58.68-.38,1.21-.94,1.57-1.64.36-.7.54-1.53.54-2.46,0-.74-.13-1.43-.4-2.07-.27-.65-.67-1.17-1.18-1.56Z"/>
  <path class="cls-1" d="M46.38,25.32c0-.15-.01-.29-.02-.39,0-.23-.05-.58-.09-.89-.02-.18-.04-.34-.05-.48l-.21-1.16c-.03-.12-.07-.27-.11-.43-.07-.31-.16-.66-.23-.89l-.12-.4c-.06-.19-.12-.38-.17-.54-.05-.11-.1-.26-.16-.41-.11-.3-.24-.64-.34-.86l-.17-.38c-.08-.18-.16-.36-.23-.51l-.13-.25c-.14-.27-.32-.61-.41-.78l-.6-1-.19-.27c-.16-.24-.37-.54-.47-.69-.03-.04-.09-.11-.14-.19-.08-.1-.17-.22-.21-.27-2.35-3.06-5.5-5.48-9.11-7.01-.54-.24-1.22-.48-1.82-.69-.11-.03-.29-.09-.49-.15-.23-.07-.48-.15-.62-.19l-.75-.18c-.35-.09-.82-.18-1.24-.25l-.29-.05c-.27-.04-.56-.07-.84-.11l-.31-.04c-.16-.02-.44-.03-.7-.05-.17-.01-.34-.02-.46-.03-.29,0-.57-.01-.85-.01-9.62,0-17.06,5.75-19.07,14.83-1.12,4.93-.21,10.32,2.32,14.74-1.4-2.17-2.37-4.64-2.88-7.29-.75-3.77-.24-7.81,1.44-11.4.92-1.96,2.17-3.79,3.72-5.44.08-.08.21-.21.34-.34.17-.17.34-.34.44-.44.13-.11.25-.23.38-.35.15-.14.29-.27.44-.4.09-.07.21-.17.34-.28.19-.16.39-.33.53-.43,1.89-1.48,4.19-2.73,6.85-3.71.97-.37,1.97-.71,2.84-1.01.1-.03.15-.14.12-.23-.01-.05-.05-.09-.09-.12-.04-.02-.1-.03-.15-.02-2.17.62-3.98,1.19-5.74,1.96-1.38.6-2.72,1.36-4,2.26-3,2.09-5.42,4.88-7.01,8.07l-.41.88c-.02.06-.06.15-.1.25-.04.11-.09.22-.12.28-.55,1.32-.97,2.83-1.25,4.49-.59,3.95.12,8.26,2.01,12.13,3.44,7.3,11.02,11.89,19.5,11.89.31,0,.62,0,.94-.02,6.4-.22,12.27-3.28,16.12-8.37,1.99-2.63,3.3-5.57,3.78-8.5l.11-.78s.04-.45.06-.66v-.12c.02-.08.03-.17.03-.25.02-.18.04-.37.03-.53,0-.11,0-.25,0-.4,0-.27.02-.57,0-.77,0-.1,0-.24-.02-.39ZM45.07,25.85c0,.09,0,.17,0,.24l-.03.74c0,.18-.02.4-.04.6v.12c-.2,2.51-1.08,5.1-2.54,7.49-3.92,6.31-10.6,9.77-18.04,9.43,2.67-.16,5.28-.91,7.57-2.2.09-.05.12-.16.07-.26-.02-.04-.06-.08-.11-.09-.05-.02-.1,0-.15.02-5.36,2.92-12.04,2.76-17.03-.41-7.52-4.81-10.72-15.15-7.29-23.54,3-7.5,10.25-11.74,18.91-11.06.17,0,.41.04.61.06l.12.02c.41.04,1.02.15,1.45.24.28.05.66.14.99.23.16.04.31.08.43.11.11.04.31.1.5.15.22.06.44.13.55.17.22.08.82.3,1.04.38.17.06.34.14.51.22.17.08.34.15.5.21,3.4,1.56,6.33,3.93,8.46,6.86.14.18.33.47.5.72.08.12.16.24.22.33l.56.94.5.97.44,1,.38,1.02.32,1.04.25,1.06c.02.12.04.26.07.41.03.17.06.35.08.49.02.09.04.26.05.36,0,.04.02.23.04.42.01.11.02.22.03.31,0,.09.02.16.02.17,0,.05,0,.11,0,.18,0,0,0,0,0,.01,0,.07,0,.15,0,.22v.35c.02.09.02.18.02.27Z"/>
</svg>