<?xml version="1.0" encoding="UTF-8"?>
<svg id="_5" data-name="+5" xmlns="http://www.w3.org/2000/svg" viewBox="0 0 50 50">
  <defs>
    <style>
      .cls-1 {
        fill: #d55554;
      }

      .cls-1, .cls-2 {
        stroke-width: 0px;
      }

      .cls-2 {
        fill: none;
      }
    </style>
  </defs>
  <g>
    <path class="cls-1" d="M23.81,24.89c-.43.1-1.03.18-1.81.25-.78.07-1.7.1-2.75.1-.41,0-.81,0-1.21-.02s-.78-.03-1.14-.06-.67-.05-.93-.08c-.02-.06-.04-.15-.05-.26-.02-.11-.03-.23-.04-.36,0-.13-.02-.24-.02-.35,0-.1,0-.18,0-.23.15.01.35.03.6.04.25.02.53.02.85.03.32,0,.65,0,1,0,.75,0,1.49-.01,2.2-.04s1.36-.06,1.94-.11c.58-.05,1.05-.1,1.41-.16,0,.14,0,.29,0,.46,0,.17-.01.33-.02.47s-.01.24-.02.3ZM20.16,20.29c.09.41.16.86.21,1.36s.1,1.02.12,1.56c.03.55.04,1.11.04,1.67,0,.64-.02,1.28-.06,1.94-.04.65-.1,1.28-.17,1.87-.05,0-.13,0-.23,0s-.23,0-.35,0c-.13,0-.25,0-.37,0-.12,0-.21,0-.28,0,.05-.43.09-.91.12-1.44.03-.53.04-1.08.04-1.65,0-.45,0-.92-.03-1.4-.02-.48-.05-.95-.08-1.42-.04-.47-.08-.91-.12-1.33-.04-.42-.09-.8-.15-1.15.04,0,.1-.01.19-.01.09,0,.19,0,.31,0h.81Z"/>
    <path class="cls-1" d="M25.55,29.48c.06-.11.15-.24.28-.39.13-.15.27-.29.41-.42.14-.13.24-.23.31-.29.15.17.35.36.62.58.26.21.61.39,1.04.54s.96.23,1.58.23,1.17-.14,1.62-.41c.46-.28.81-.66,1.06-1.15.25-.49.38-1.06.38-1.7,0-.51-.08-.98-.25-1.42s-.42-.79-.75-1.07c-.33-.27-.75-.41-1.25-.41-.42,0-.79.08-1.11.25-.32.17-.58.38-.8.63s-.38.5-.49.75-.18.45-.19.61c-.08,0-.18.01-.31.03s-.25.02-.38.02c-.11,0-.23,0-.36,0-.13,0-.23,0-.31-.01,0-.94-.04-1.9-.12-2.87-.08-.98-.19-2.01-.34-3.09.29-.07.66-.14,1.1-.22s.93-.15,1.44-.22c.51-.07,1.03-.14,1.54-.2s.98-.12,1.4-.17c.43-.05.77-.08,1.03-.1.02.06.05.15.08.29.04.14.07.29.1.46.03.17.04.33.04.48-.66.05-1.27.1-1.84.15s-1.09.1-1.54.16c-.46.05-.84.1-1.16.14s-.54.08-.68.11c.04.26.07.56.1.92s.06.71.09,1.07c.03.36.05.68.07.95.01.28.02.47.02.57.04-.16.14-.34.29-.56.15-.21.35-.42.59-.63s.53-.37.85-.51.69-.2,1.08-.2c.72,0,1.33.19,1.83.57.5.38.88.89,1.14,1.51.26.63.39,1.3.39,2.02,0,.92-.18,1.72-.53,2.41s-.86,1.21-1.52,1.59-1.45.56-2.36.56c-.55,0-1.08-.05-1.59-.16-.51-.1-.99-.27-1.43-.5-.44-.23-.83-.53-1.18-.9Z"/>
  </g>
  <g>
    <path class="cls-2" d="M45.16,24.82c-.01-.06-.08-.82-.09-.91,0-.09-.03-.27-.05-.36-.04-.26-.11-.64-.15-.9-.06-.24-.2-.83-.25-1.07-.1-.32-.22-.73-.32-1.05-.09-.23-.3-.8-.39-1.03-.14-.31-.31-.7-.45-1.01-.11-.22-.39-.76-.51-.98-.17-.29-.39-.66-.56-.95-.2-.28-.52-.79-.73-1.06-2.18-2.98-5.16-5.36-8.51-6.9-.33-.13-.69-.3-1.02-.43-.23-.08-.82-.3-1.04-.38-.23-.08-.82-.25-1.06-.33-.41-.1-1.03-.27-1.44-.34-.42-.09-1.03-.19-1.46-.24-.21-.03-.52-.07-.73-.08-8.28-.65-15.87,3.25-19.03,11.14-3.42,8.38-.33,18.79,7.34,23.7,5.1,3.24,11.88,3.29,17.16.41.03-.02.07,0,.09.03.02.03,0,.07-.03.09-3.13,1.76-6.81,2.49-10.37,2.12.56.1,1.13.17,1.7.22,7.87.77,15.11-2.67,19.31-9.4,1.4-2.29,2.34-4.87,2.54-7.55.02-.22.06-.51.06-.73,0,0,.03-.73.03-.73,0-.2-.01-.52-.02-.73,0-.14-.01-.42-.02-.55Z"/>
    <path class="cls-1" d="M46.27,25.71c0-.19-.03-.59-.03-.78-.01-.36-.11-1-.14-1.35-.06-.35-.14-.8-.2-1.15-.09-.35-.22-.97-.33-1.32-.09-.27-.2-.66-.29-.93-.13-.34-.34-.93-.5-1.26-.12-.26-.28-.63-.4-.88-.12-.23-.42-.8-.54-1.03-.18-.3-.42-.69-.6-.99-.15-.21-.51-.74-.65-.96-.07-.09-.28-.37-.35-.46-2.34-3.05-5.52-5.47-9.06-6.97-.54-.24-1.23-.49-1.8-.68-.24-.07-.85-.26-1.11-.33,0,0-.75-.18-.75-.18-.43-.11-1.07-.22-1.51-.3-.37-.05-.77-.1-1.15-.15-.27-.03-.87-.06-1.15-.08-9.59-.33-17.68,5.18-19.79,14.72-1.48,6.52.57,13.73,5.2,18.51-3.03-2.83-5.16-6.63-6.01-11.06-.77-3.85-.22-7.93,1.45-11.47.94-2.01,2.23-3.86,3.75-5.48.19-.18.6-.61.79-.79.27-.24.55-.52.83-.75.22-.18.64-.54.86-.71,2.06-1.62,4.42-2.82,6.88-3.73.94-.36,1.89-.69,2.84-1.01.03-.01.05-.05.04-.08-.01-.03-.05-.06-.08-.05-1.94.55-3.87,1.15-5.73,1.96-1.39.6-2.74,1.37-3.98,2.24-2.93,2.05-5.37,4.82-6.97,8.02l-.33.7-.08.17c-.05.12-.16.41-.22.54-.59,1.42-.98,2.94-1.24,4.46-.61,4.1.19,8.35,2,12.05,3.66,7.78,11.85,12.14,20.32,11.8,6.37-.22,12.18-3.24,16.03-8.32,1.87-2.47,3.25-5.37,3.76-8.45l.11-.77s.07-.77.07-.77c.02-.24.06-.53.05-.77,0-.29.04-.87.01-1.17ZM45.2,26.1s-.03.73-.03.73c0,.22-.03.51-.06.73-.2,2.68-1.15,5.26-2.54,7.55-4.19,6.73-11.44,10.18-19.31,9.4-.58-.05-1.14-.13-1.7-.22,3.56.36,7.24-.37,10.37-2.12.03-.02.04-.06.03-.09-.02-.03-.06-.04-.09-.03-5.28,2.88-12.06,2.83-17.16-.41-7.67-4.9-10.76-15.32-7.34-23.7,3.16-7.88,10.75-11.78,19.03-11.14.21,0,.53.05.73.08.42.05,1.04.15,1.46.24.41.07,1.03.24,1.44.34.24.08.83.25,1.06.33.22.08.82.3,1.04.38.33.13.69.3,1.02.43,3.35,1.54,6.34,3.92,8.51,6.9.21.27.53.78.73,1.06.17.29.39.66.56.95.11.22.39.76.51.98.14.31.31.7.45,1.01.09.23.3.8.39,1.03.1.32.22.73.32,1.05.06.24.2.83.25,1.07.04.26.11.64.15.9.02.09.04.27.05.36.01.09.08.85.09.91,0,.13.02.41.02.55,0,.21.02.53.02.73Z"/>
  </g>
</svg>