<?xml version="1.0" encoding="UTF-8"?>
<svg id="Współpraca" xmlns="http://www.w3.org/2000/svg" viewBox="0 0 50 50">
  <defs>
    <style>
      .cls-1 {
        fill: #d34d47;
        stroke-width: 0px;
      }
    </style>
  </defs>
  <path class="cls-1" d="M46.52,25.7l-.03-.77c0-.23-.05-.58-.09-.9-.02-.17-.04-.34-.05-.49l-.21-1.17c-.03-.12-.07-.27-.1-.43-.08-.32-.16-.67-.23-.9l-.3-.94c-.05-.11-.1-.26-.16-.41-.11-.3-.24-.64-.34-.87l-.41-.89-.55-1.04-.44-.73-.83-1.25-.14-.19c-.08-.11-.17-.22-.21-.27-2.36-3.07-5.53-5.51-9.15-7.05-.55-.24-1.23-.48-1.83-.69-.11-.03-.29-.09-.48-.15-.24-.07-.48-.15-.63-.19l-.74-.18c-.35-.09-.83-.18-1.25-.25l-.29-.05c-.27-.04-.56-.07-.84-.11l-.31-.04c-.16-.02-.44-.04-.71-.05-.17-.01-.34-.02-.46-.03-10.12-.34-17.96,5.5-20.05,14.91-.71,3.1-.61,6.38.18,9.5-.2-.67-.36-1.35-.5-2.05-.75-3.74-.24-7.76,1.44-11.32.91-1.94,2.16-3.77,3.7-5.41l.34-.34c.17-.17.34-.34.43-.43.13-.11.26-.23.39-.35.15-.14.29-.27.43-.39.09-.07.21-.17.34-.28.19-.16.39-.32.52-.43,1.88-1.48,4.17-2.72,6.81-3.7.97-.37,1.97-.71,2.83-1,.16-.05.25-.22.2-.38l-.06-.14-.23-.11-.1.03c-2.18.62-3.99,1.19-5.76,1.97-1.39.6-2.74,1.36-4.02,2.27-3.01,2.1-5.45,4.91-7.05,8.12l-.42.88c-.03.06-.06.16-.1.26-.04.11-.09.21-.12.28-.55,1.33-.98,2.84-1.25,4.52-.6,3.97.12,8.31,2.02,12.2,3.46,7.34,11.09,11.97,19.61,11.97.31,0,.63,0,.94-.02,6.43-.23,12.34-3.3,16.22-8.42,2.01-2.65,3.32-5.61,3.81-8.56l.11-.78s.03-.32.05-.54l.02-.23c0-.08.01-.16.02-.25.02-.19.04-.38.03-.54,0-.1,0-.25,0-.4,0-.27.02-.58,0-.78ZM44.92,26.83c0,.18-.02.4-.04.59v.12c-.2,2.49-1.07,5.06-2.52,7.43-3.52,5.65-9.27,9.01-15.79,9.36,1.93-.35,3.8-1.01,5.49-1.96.15-.08.2-.27.12-.43l-.09-.12-.25-.05-.09.05c-5.32,2.9-11.96,2.74-16.91-.4-7.47-4.78-10.65-15.05-7.24-23.39,2.98-7.45,10.2-11.65,18.79-10.98.17,0,.41.04.6.06l.12.02c.41.04,1.01.15,1.44.24.27.05.65.14.98.23.16.04.31.08.42.1.11.04.31.1.51.16.21.06.43.13.55.17.22.08.82.3,1.04.38.16.06.33.14.5.21.17.08.35.15.5.21,3.38,1.55,6.29,3.91,8.42,6.82.14.18.33.47.5.72l.77,1.26.5.96.44.99.38,1.02.32,1.04.25,1.05.07.41c.03.17.06.35.08.5.02.08.04.25.05.35,0,.04.02.23.04.42,0,.08.01.15.02.22,0,.03,0,.06,0,.08,0,.1.02.17.02.17,0,.09.01.27.02.41v.35c.02.17.02.36.02.5l-.03.74Z"/>
  <path class="cls-1" d="M36.15,27.74c-6.96,4.63-13.67,5.85-20.54,3.7l-.2-.05c-.91-.23-2.15-.54-2.72-.37l-.11.06-.02.04c-.04.09-.04.19,0,.29.15.38.87.71,1.66,1.06.12.05.23.1.33.14,2.62.91,5.29,1.36,7.91,1.36,5.27,0,10.32-1.82,14.35-5.32.83-.83.67-1.06.62-1.13-.09-.13-.32-.24-1.27.23Z"/>
  <path class="cls-1" d="M14.24,21.89c.05.02.11.02.16.02.23,0,.44-.15.54-.41.51-1.22,1.13-2.41,2.19-2.86,1.15-.49,2.53.09,3.72.72.19.1.39.1.57-.01.19-.12.3-.33.29-.54,0-.19-.11-.35-.29-.44-1.34-.71-3.09-1.45-4.68-.8-1.47.6-2.26,2.08-2.9,3.6-.05.12-.04.26.02.39.08.16.22.28.38.33Z"/>
  <path class="cls-1" d="M25.88,18.71c.18.05.38,0,.52-.16.68-.71,1.49-1.45,2.43-1.38.91.07,1.67.95,2.17,1.53.11.13.24.19.39.19.03,0,.06,0,.09,0,.2-.04.38-.2.46-.41.07-.2.03-.41-.11-.57-.71-.83-1.7-1.79-2.97-1.88-.06,0-.12,0-.17,0-1.25,0-2.31.91-3.09,1.72-.15.15-.2.35-.14.54.06.21.24.38.44.43Z"/>
</svg>