<?xml version="1.0" encoding="UTF-8"?>
<svg id="_Śmierć" data-name="Śmierć" xmlns="http://www.w3.org/2000/svg" viewBox="0 0 50 50">
  <defs>
    <style>
      .cls-1 {
        fill: #d34d47;
      }

      .cls-1, .cls-2, .cls-3 {
        stroke-width: 0px;
      }

      .cls-2 {
        fill: #fff;
      }

      .cls-3 {
        fill: #d55554;
      }
    </style>
  </defs>
  <g>
    <path class="cls-3" d="M24.94,34.12c-2.69-.26-10.35.95-11.38-2.09-.35-1.37.93-3.97,2.21-6.06,1.64-2.74,3.24-5.45,4.9-8.19,4.02-6.88,6.57-3.88,9.67,1.57,6.4,11.21,11.78,15.53-5.22,14.77h-.18Z"/>
    <path class="cls-2" d="M25.03,30.4c-.4,0-.71-.11-.95-.34-.23-.23-.35-.51-.35-.85s.13-.63.39-.82c.26-.19.55-.29.88-.29.35,0,.64.11.89.32.24.21.37.49.37.81,0,.35-.12.64-.36.85-.24.21-.53.32-.87.32ZM25.54,26.98c-.07,0-.19,0-.35,0-.16,0-.31-.01-.47-.02s-.27-.02-.35-.03c-.01-.55-.02-1.16-.03-1.85,0-.69,0-1.39,0-2.12,0-.73,0-1.43.02-2.12,0-.69.02-1.32.04-1.88.02-.56.04-1.02.07-1.36l1.5.07c-.04.32-.08.77-.12,1.34s-.08,1.23-.12,1.94c-.04.72-.07,1.45-.1,2.19-.03.75-.06,1.45-.07,2.12-.02.67-.03,1.24-.03,1.71Z"/>
  </g>
  <path class="cls-1" d="M46.38,25.32c0-.15-.01-.29-.02-.39,0-.23-.05-.58-.09-.89-.02-.18-.04-.34-.05-.48l-.21-1.16c-.03-.12-.07-.27-.11-.43-.07-.31-.16-.66-.23-.89l-.12-.4c-.06-.19-.12-.38-.17-.54-.05-.11-.1-.26-.16-.41-.11-.3-.24-.64-.34-.86l-.17-.38c-.08-.18-.16-.36-.23-.51l-.13-.25c-.14-.27-.32-.61-.41-.78l-.6-1-.19-.27c-.16-.24-.37-.54-.47-.69-.03-.04-.09-.11-.14-.19-.08-.1-.17-.22-.21-.27-2.35-3.06-5.5-5.48-9.11-7.01-.54-.24-1.22-.48-1.82-.69-.11-.03-.29-.09-.49-.15-.23-.07-.48-.15-.62-.19l-.75-.18c-.35-.09-.82-.18-1.24-.25l-.29-.05c-.27-.04-.56-.07-.84-.11l-.31-.04c-.16-.02-.44-.03-.7-.05-.17-.01-.34-.02-.46-.03-.29,0-.57-.01-.85-.01-9.62,0-17.06,5.75-19.07,14.83-1.12,4.93-.21,10.32,2.32,14.74-1.4-2.17-2.37-4.64-2.88-7.29-.75-3.77-.24-7.81,1.44-11.4.92-1.96,2.17-3.79,3.72-5.44.08-.08.21-.21.34-.34.17-.17.34-.34.44-.44.13-.11.25-.23.38-.35.15-.14.29-.27.44-.4.09-.07.21-.17.34-.28.19-.16.39-.33.53-.43,1.89-1.48,4.19-2.73,6.85-3.71.97-.37,1.97-.71,2.84-1.01.1-.03.15-.14.12-.23-.01-.05-.05-.09-.09-.12-.05-.02-.1-.03-.15-.02-2.17.62-3.98,1.19-5.74,1.96-1.38.6-2.72,1.36-4,2.26-3,2.09-5.42,4.88-7.01,8.07l-.41.88c-.02.06-.06.15-.1.25-.04.11-.09.22-.12.28-.55,1.32-.97,2.83-1.25,4.49-.59,3.95.12,8.26,2.01,12.13,3.44,7.3,11.02,11.89,19.5,11.89.31,0,.62,0,.94-.02,6.4-.22,12.27-3.28,16.12-8.37,1.99-2.63,3.3-5.57,3.78-8.5l.11-.78s.04-.45.06-.66v-.12c.02-.08.03-.17.03-.25.02-.18.04-.37.03-.53,0-.11,0-.25,0-.4,0-.27.02-.57,0-.77,0-.1,0-.24-.02-.39ZM45.07,25.85c0,.09,0,.17,0,.24l-.03.74c0,.18-.02.4-.04.6v.12c-.2,2.51-1.08,5.1-2.54,7.49-3.92,6.31-10.6,9.77-18.04,9.43,2.67-.16,5.28-.91,7.57-2.2.09-.05.12-.16.07-.26-.02-.04-.06-.08-.11-.09-.05-.02-.1,0-.15.02-5.36,2.92-12.04,2.76-17.03-.41-7.52-4.81-10.72-15.15-7.29-23.54,3-7.5,10.25-11.74,18.91-11.06.17,0,.41.04.61.06l.12.02c.41.04,1.02.15,1.45.24.28.05.66.14.99.23.16.04.31.08.43.11.11.04.31.1.5.15.22.06.44.13.55.17.22.08.82.3,1.04.38.17.06.34.14.51.22.17.08.34.15.5.21,3.4,1.56,6.33,3.93,8.46,6.86.14.18.33.47.5.72.08.12.16.24.22.33l.56.94.5.97.44,1,.38,1.02.32,1.04.25,1.06c.02.12.04.26.07.41.03.17.06.35.08.49.02.09.04.26.05.36,0,.04.02.23.04.42.01.11.02.22.03.31,0,.09.02.16.02.17,0,.05,0,.11,0,.18,0,0,0,0,0,.01,0,.07,0,.15,0,.22v.35c.02.09.02.18.02.27Z"/>
</svg>