<?xml version="1.0" encoding="UTF-8"?>
<svg id="Zadośćuczynienie" xmlns="http://www.w3.org/2000/svg" viewBox="0 0 50 50">
  <defs>
    <style>
      .cls-1 {
        fill: #d55554;
      }

      .cls-1, .cls-2 {
        stroke-width: 0px;
      }

      .cls-2 {
        fill: none;
      }
    </style>
  </defs>
  <g>
    <path class="cls-1" d="M35.72,19.32c-.31-1.03-.93-1.9-1.77-2.53-.9-.67-2.03-1.04-3.18-1.05h-.02c-1.15,0-2.3.35-3.24.99-.52.35-1.02.79-1.5,1.29-.2.21-.38.42-.57.63l-.11.13c-.13.15-.27.31-.41.43-.06-.06-.12-.13-.18-.19-.16-.19-.31-.38-.46-.57-.21-.26-.42-.54-.66-.79-.91-.98-1.92-1.61-3-1.88-1.12-.28-2.3-.21-3.31.2-1.07.43-1.93,1.13-2.48,2.03-.51.82-.79,1.84-.79,2.87,0,.99.26,1.98.79,3.04.46.91,1.12,1.83,2.09,2.89.61.66,1.26,1.29,1.89,1.91.19.18.38.37.57.55l.19.18c.36.35.73.71,1.07,1.08.38.41.75.84,1.11,1.29l.16.2s.01.02.04.06c.09.12.18.24.27.36.17.23.33.46.49.69.31.45.62.92.95,1.45.28.46.58.97.92,1.55.04.07.1.13.18.17l.06.04h.01c.07.03.14.04.21.04.04,0,.08,0,.12-.01l.06-.02s.05-.01.08-.03c.05-.04.1-.08.14-.13l.04-.02.02-.03c.7-1.23,1.31-2.2,1.9-3.06.16-.23.33-.46.49-.69.08-.11.17-.22.26-.34l.06-.08c.04-.06.09-.12.15-.19.35-.44.73-.87,1.11-1.28.53-.56,1.1-1.11,1.65-1.64.29-.27.57-.55.85-.82.76-.75,1.63-1.65,2.37-2.67.74-1.03,1.23-2.04,1.46-3.01.24-1.03.21-2.07-.08-3.02ZM35,20.28l-.12.05c.03.26.04.48.04.69,0,.11,0,.21-.01.32h0c0,.06,0,.11-.01.17v.1c-.05.25-.1.48-.16.69-.07.25-.16.48-.23.67l-.04.1c-.03.06-.05.12-.08.18-.06.12-.12.25-.18.37-.24.46-.54.93-.91,1.41l-.2.25c-.1.12-.2.24-.3.36-.18.21-.37.42-.56.62-.55.6-1.15,1.17-1.73,1.73-.24.23-.47.46-.7.68l-.19.18c-.35.34-.71.7-1.06,1.07-.38.41-.74.84-1.08,1.28-.68.86-1.33,1.79-1.98,2.86-.16.25-.3.51-.45.77-1.23-2.07-2.36-3.65-3.57-4.96-.56-.61-1.17-1.19-1.76-1.75-.23-.22-.46-.44-.69-.67-.34-.33-.79-.77-1.22-1.23-.19-.21-.38-.42-.57-.63-.09-.11-.19-.22-.28-.33l-.18-.22h-.02s.01,0,.01,0l-.06-.07c-.35-.47-.64-.91-.88-1.36-.06-.12-.13-.24-.18-.37l-.14-.31c-.07-.18-.17-.42-.24-.67-.06-.2-.11-.43-.14-.67v-.08c-.02-.06-.02-.12-.03-.17,0-.12-.02-.23-.02-.35,0-.23,0-.47.04-.71l.03-.21c.02-.12.05-.24.08-.36.03-.1.06-.2.09-.3.02-.05.04-.11.06-.16l.04-.1c.07-.18.17-.38.31-.59.06-.09.12-.18.18-.27l.05-.07c.04-.05.08-.1.13-.15.15-.17.32-.33.52-.49h0s.03-.02.04-.03c.05-.04.1-.07.15-.1.09-.06.18-.11.27-.17l.05-.03c.11-.07.22-.13.34-.18.05-.02.1-.05.17-.08l.12-.05c.24-.09.48-.16.74-.2.05,0,.1-.02.16-.03h.11c.13-.03.25-.04.38-.04.24,0,.5,0,.75.04l.12.02c.06.01.13.02.19.04.13.03.25.06.37.1.11.03.22.07.33.11.03.01.06.02.1.04l.04.02c.06.03.12.06.18.08.22.11.44.23.64.38.05.03.09.07.14.1l.12.1c.12.1.24.2.36.31.21.19.41.41.63.66.2.23.39.47.56.69l.07.08c.13.17.27.34.42.5.23.23.46.35.71.37.22.02.44-.05.64-.2.32-.24.58-.55.83-.84.1-.12.21-.25.31-.36.22-.24.43-.45.63-.64.22-.2.41-.36.66-.54.21-.15.43-.29.67-.41.06-.03.12-.06.18-.09l.11-.05c.12-.05.25-.1.37-.14.25-.08.51-.14.77-.19l.14-.02s.09-.01.14-.01c.13-.01.26-.02.39-.02.13,0,.26,0,.39.01.05,0,.11,0,.16.01l.15.02c.26.04.51.1.76.19.06.02.11.04.17.06l.1.04c.13.06.26.12.38.19.22.12.42.25.61.39l.07.06s.09.08.13.11c.08.08.17.16.24.24.07.07.13.15.21.25l.05.07c.04.05.08.11.11.16.12.18.22.37.32.59l.03.06c.02.05.04.11.06.16.04.11.07.22.1.32.03.11.06.22.08.33l.04.23.12-.02h0Z"/>
    <path class="cls-1" d="M21.86,21.26l-.03-.02-1.52-.06.06-1.52-.02-.03c-.06-.1-.21-.26-.43-.27h0c-.22,0-.37.16-.42.23l-.02.03-.06,1.52-1.52-.06-.03.02c-.17.11-.26.27-.26.43,0,.23.18.39.23.43l.03.02,1.52.06-.06,1.52.02.03c.05.08.2.26.43.27h0c.22,0,.37-.16.42-.23l.02-.03.06-1.52,1.52.06.03-.02c.06-.04.26-.19.27-.43,0-.22-.16-.37-.23-.43Z"/>
  </g>
  <g>
    <path class="cls-2" d="M45.16,24.82c-.01-.06-.08-.82-.09-.91,0-.09-.03-.27-.05-.36-.04-.26-.11-.64-.15-.9-.06-.24-.2-.83-.25-1.07-.1-.32-.22-.73-.32-1.05-.09-.23-.3-.8-.39-1.03-.14-.31-.31-.7-.45-1.01-.11-.22-.39-.76-.51-.98-.17-.29-.39-.66-.56-.95-.2-.28-.52-.79-.73-1.06-2.18-2.98-5.16-5.36-8.51-6.9-.33-.13-.69-.3-1.02-.43-.23-.08-.82-.3-1.04-.38-.23-.08-.82-.25-1.06-.33-.41-.1-1.03-.27-1.44-.34-.42-.09-1.03-.19-1.46-.24-.21-.03-.52-.07-.73-.08-8.28-.65-15.87,3.25-19.03,11.14-3.42,8.38-.33,18.79,7.34,23.7,5.1,3.24,11.88,3.29,17.16.41.03-.02.07,0,.09.03.02.03,0,.07-.03.09-3.13,1.76-6.81,2.49-10.37,2.12.56.1,1.13.17,1.7.22,7.87.77,15.11-2.67,19.31-9.4,1.4-2.29,2.34-4.87,2.54-7.55.02-.22.06-.51.06-.73,0,0,.03-.73.03-.73,0-.2-.01-.52-.02-.73,0-.14-.01-.42-.02-.55Z"/>
    <path class="cls-1" d="M46.27,25.71c0-.19-.03-.59-.03-.78-.01-.36-.11-1-.14-1.35-.06-.35-.14-.8-.2-1.15-.09-.35-.22-.97-.33-1.32-.09-.27-.2-.66-.29-.93-.13-.34-.34-.93-.5-1.26-.12-.26-.28-.63-.4-.88-.12-.23-.42-.8-.54-1.03-.18-.3-.42-.69-.6-.99-.15-.21-.51-.74-.65-.96-.07-.09-.28-.37-.35-.46-2.34-3.05-5.52-5.47-9.06-6.97-.54-.24-1.23-.49-1.8-.68-.24-.07-.85-.26-1.11-.33,0,0-.75-.18-.75-.18-.43-.11-1.07-.22-1.51-.3-.37-.05-.77-.1-1.15-.15-.27-.03-.87-.06-1.15-.08-9.59-.33-17.68,5.18-19.79,14.72-1.48,6.52.57,13.73,5.2,18.51-3.03-2.83-5.16-6.63-6.01-11.06-.77-3.85-.22-7.93,1.45-11.47.94-2.01,2.23-3.86,3.75-5.48.19-.18.6-.61.79-.79.27-.24.55-.52.83-.75.22-.18.64-.54.86-.71,2.06-1.62,4.42-2.82,6.88-3.73.94-.36,1.89-.69,2.84-1.01.03-.01.05-.05.04-.08-.01-.03-.05-.06-.08-.05-1.94.55-3.87,1.15-5.73,1.96-1.39.6-2.74,1.37-3.98,2.24-2.93,2.05-5.37,4.82-6.97,8.02l-.33.7-.08.17c-.05.12-.16.41-.22.54-.59,1.42-.98,2.94-1.24,4.46-.61,4.1.19,8.35,2,12.05,3.66,7.78,11.85,12.14,20.32,11.8,6.37-.22,12.18-3.24,16.03-8.32,1.87-2.47,3.25-5.37,3.76-8.45l.11-.77s.07-.77.07-.77c.02-.24.06-.53.05-.77,0-.29.04-.87.01-1.17ZM45.2,26.1s-.03.73-.03.73c0,.22-.03.51-.06.73-.2,2.68-1.15,5.26-2.54,7.55-4.19,6.73-11.44,10.18-19.31,9.4-.58-.05-1.14-.13-1.7-.22,3.56.36,7.24-.37,10.37-2.12.03-.02.04-.06.03-.09-.02-.03-.06-.04-.09-.03-5.28,2.88-12.06,2.83-17.16-.41-7.67-4.9-10.76-15.32-7.34-23.7,3.16-7.88,10.75-11.78,19.03-11.14.21,0,.53.05.73.08.42.05,1.04.15,1.46.24.41.07,1.03.24,1.44.34.24.08.83.25,1.06.33.22.08.82.3,1.04.38.33.13.69.3,1.02.43,3.35,1.54,6.34,3.92,8.51,6.9.21.27.53.78.73,1.06.17.29.39.66.56.95.11.22.39.76.51.98.14.31.31.7.45,1.01.09.23.3.8.39,1.03.1.32.22.73.32,1.05.06.24.2.83.25,1.07.04.26.11.64.15.9.02.09.04.27.05.36.01.09.08.85.09.91,0,.13.02.41.02.55,0,.21.02.53.02.73Z"/>
  </g>
</svg>